<mxfile host="app.diagrams.net" modified="2024-01-04T17:57:31.386Z" agent="Mozilla/5.0 (Macintosh; Intel Mac OS X 10_15_7) AppleWebKit/605.1.15 (KHTML, like Gecko) Version/17.2.1 Safari/605.1.15" version="22.1.16" etag="WRwxI8KLvAKsfYgTJoHU" type="device">
  <diagram id="q5dknOCM4nPy_0_rPxCh" name="Page-1">
    <mxGraphModel dx="2417" dy="2381" grid="1" gridSize="10" guides="1" tooltips="1" connect="1" arrows="1" fold="1" page="1" pageScale="1" pageWidth="827" pageHeight="1169" math="0" shadow="0">
      <root>
        <mxCell id="0" />
        <mxCell id="1" parent="0" />
        <mxCell id="28" style="edgeStyle=none;html=1;entryX=0.5;entryY=1;entryDx=0;entryDy=0;fontSize=14;" parent="1" source="3" target="20" edge="1">
          <mxGeometry relative="1" as="geometry" />
        </mxCell>
        <mxCell id="3" value="" style="rounded=0;whiteSpace=wrap;html=1;" parent="1" vertex="1">
          <mxGeometry x="104" y="80" width="646" height="360" as="geometry" />
        </mxCell>
        <mxCell id="12" value="&lt;font style=&quot;font-size: 14px;&quot;&gt;&lt;b&gt;SAST/DAST&lt;br&gt;Module&lt;/b&gt;&lt;br&gt;(MobSFAPI)&lt;/font&gt;" style="rounded=1;whiteSpace=wrap;html=1;fontSize=9;" parent="1" vertex="1">
          <mxGeometry x="-270" y="192.5" width="150" height="135" as="geometry" />
        </mxCell>
        <mxCell id="13" value="&lt;font style=&quot;font-size: 14px;&quot;&gt;&lt;br&gt;Static and Dynamic analisys&lt;/font&gt;" style="text;html=1;strokeColor=none;fillColor=none;align=center;verticalAlign=middle;whiteSpace=wrap;rounded=0;fontSize=9;" parent="1" vertex="1">
          <mxGeometry x="-290" y="350" width="260" height="30" as="geometry" />
        </mxCell>
        <mxCell id="27" style="edgeStyle=none;html=1;entryX=0.5;entryY=0;entryDx=0;entryDy=0;fontSize=14;" parent="1" source="20" target="3" edge="1">
          <mxGeometry relative="1" as="geometry" />
        </mxCell>
        <mxCell id="20" value="" style="rounded=1;whiteSpace=wrap;html=1;fontSize=14;" parent="1" vertex="1">
          <mxGeometry x="80" y="-200" width="690" height="190" as="geometry" />
        </mxCell>
        <mxCell id="22" value="FuturStore" style="rounded=0;whiteSpace=wrap;html=1;fontSize=14;" parent="1" vertex="1">
          <mxGeometry x="130" y="-155" width="120" height="60" as="geometry" />
        </mxCell>
        <mxCell id="23" value="Futur&lt;br&gt;Console" style="rounded=0;whiteSpace=wrap;html=1;fontSize=14;" parent="1" vertex="1">
          <mxGeometry x="300" y="-155" width="120" height="60" as="geometry" />
        </mxCell>
        <mxCell id="24" value="Fusion&lt;br&gt;Console" style="rounded=0;whiteSpace=wrap;html=1;fontSize=14;" parent="1" vertex="1">
          <mxGeometry x="470" y="-155" width="120" height="60" as="geometry" />
        </mxCell>
        <mxCell id="25" value="Fusion Marketplace" style="rounded=0;whiteSpace=wrap;html=1;fontSize=14;" parent="1" vertex="1">
          <mxGeometry x="620" y="-155" width="120" height="60" as="geometry" />
        </mxCell>
        <mxCell id="26" value="&lt;b&gt;Backend&lt;/b&gt;" style="ellipse;shape=cloud;whiteSpace=wrap;html=1;fontSize=14;" parent="1" vertex="1">
          <mxGeometry x="-315" y="-200" width="230" height="190" as="geometry" />
        </mxCell>
        <mxCell id="31" value="" style="rounded=1;whiteSpace=wrap;html=1;fontSize=27;" parent="1" vertex="1">
          <mxGeometry x="140" y="110" width="150" height="250" as="geometry" />
        </mxCell>
        <mxCell id="29" value="&lt;font size=&quot;1&quot; color=&quot;#009900&quot; style=&quot;&quot;&gt;&lt;b style=&quot;font-size: 28px;&quot;&gt;Relai Network&lt;/b&gt;&lt;/font&gt;" style="text;html=1;strokeColor=none;fillColor=none;align=center;verticalAlign=middle;whiteSpace=wrap;rounded=0;fontSize=14;" parent="1" vertex="1">
          <mxGeometry x="395" y="327.5" width="60" height="30" as="geometry" />
        </mxCell>
        <mxCell id="33" value="&lt;font style=&quot;font-size: 14px;&quot;&gt;FuturStore Runtime Modules&lt;/font&gt;" style="text;html=1;strokeColor=none;fillColor=none;align=center;verticalAlign=middle;whiteSpace=wrap;rounded=0;fontSize=10;" parent="1" vertex="1">
          <mxGeometry x="150" y="380" width="120" height="30" as="geometry" />
        </mxCell>
        <mxCell id="34" value="&lt;font style=&quot;font-size: 14px;&quot;&gt;AppRegistry&lt;/font&gt;" style="text;html=1;strokeColor=none;fillColor=none;align=center;verticalAlign=middle;whiteSpace=wrap;rounded=0;fontSize=10;" parent="1" vertex="1">
          <mxGeometry x="180" y="140" width="60" height="30" as="geometry" />
        </mxCell>
        <mxCell id="35" value="&lt;font style=&quot;font-size: 14px;&quot;&gt;DevRegistry&lt;/font&gt;" style="text;html=1;strokeColor=none;fillColor=none;align=center;verticalAlign=middle;whiteSpace=wrap;rounded=0;fontSize=10;" parent="1" vertex="1">
          <mxGeometry x="180" y="180" width="60" height="30" as="geometry" />
        </mxCell>
        <mxCell id="36" value="Off-chain workers" style="label;whiteSpace=wrap;html=1;align=center;verticalAlign=bottom;spacingLeft=0;spacingBottom=4;imageAlign=center;imageVerticalAlign=top;image=img/clipart/Gear_128x128.png;fontSize=14;strokeColor=none;" parent="1" vertex="1">
          <mxGeometry x="150" y="260" width="120" height="80" as="geometry" />
        </mxCell>
        <mxCell id="38" value="&lt;font style=&quot;font-size: 14px;&quot;&gt;&lt;b&gt;......&lt;/b&gt;&lt;/font&gt;" style="text;html=1;strokeColor=none;fillColor=none;align=center;verticalAlign=middle;whiteSpace=wrap;rounded=0;fontSize=10;" parent="1" vertex="1">
          <mxGeometry x="185" y="220" width="60" height="30" as="geometry" />
        </mxCell>
        <mxCell id="39" value="" style="rounded=1;whiteSpace=wrap;html=1;fontSize=27;" parent="1" vertex="1">
          <mxGeometry x="570" y="110" width="150" height="240" as="geometry" />
        </mxCell>
        <mxCell id="40" value="&lt;font style=&quot;font-size: 14px;&quot;&gt;FusionProtocol&lt;br&gt;Runtime Modules&lt;/font&gt;" style="text;html=1;strokeColor=none;fillColor=none;align=center;verticalAlign=middle;whiteSpace=wrap;rounded=0;fontSize=10;" parent="1" vertex="1">
          <mxGeometry x="575" y="370" width="120" height="30" as="geometry" />
        </mxCell>
        <mxCell id="42" value="OEM Registry" style="text;html=1;strokeColor=none;fillColor=none;align=center;verticalAlign=middle;whiteSpace=wrap;rounded=0;fontSize=14;" parent="1" vertex="1">
          <mxGeometry x="595" y="140" width="100" height="30" as="geometry" />
        </mxCell>
        <mxCell id="43" value="Fusion Marketplace" style="text;html=1;strokeColor=none;fillColor=none;align=center;verticalAlign=middle;whiteSpace=wrap;rounded=0;fontSize=14;" parent="1" vertex="1">
          <mxGeometry x="582.5" y="180" width="125" height="30" as="geometry" />
        </mxCell>
        <mxCell id="44" value="&lt;b&gt;......&lt;/b&gt;" style="text;html=1;strokeColor=none;fillColor=none;align=left;verticalAlign=middle;whiteSpace=wrap;rounded=0;fontSize=14;" parent="1" vertex="1">
          <mxGeometry x="620" y="220" width="60" height="30" as="geometry" />
        </mxCell>
        <mxCell id="47" value="&lt;font color=&quot;#009900&quot;&gt;Apps Security Layer&lt;/font&gt;" style="text;html=1;strokeColor=none;fillColor=none;align=center;verticalAlign=middle;whiteSpace=wrap;rounded=0;fontSize=17;fontStyle=1" parent="1" vertex="1">
          <mxGeometry x="-255" y="340" width="170" height="30" as="geometry" />
        </mxCell>
        <mxCell id="50" value="&lt;font color=&quot;#009900&quot;&gt;Frontend Layer&lt;/font&gt;" style="text;html=1;strokeColor=none;fillColor=none;align=center;verticalAlign=middle;whiteSpace=wrap;rounded=0;fontSize=17;fontStyle=1" parent="1" vertex="1">
          <mxGeometry x="320" y="-240" width="170" height="30" as="geometry" />
        </mxCell>
        <mxCell id="57" value="" style="endArrow=classic;startArrow=classic;html=1;fontSize=16;fontColor=#FFFFFF;entryX=0;entryY=0.5;entryDx=0;entryDy=0;exitX=0.875;exitY=0.5;exitDx=0;exitDy=0;exitPerimeter=0;" parent="1" source="26" target="20" edge="1">
          <mxGeometry width="50" height="50" relative="1" as="geometry">
            <mxPoint x="40" y="100" as="sourcePoint" />
            <mxPoint x="90" y="50" as="targetPoint" />
          </mxGeometry>
        </mxCell>
        <mxCell id="58" value="" style="endArrow=classic;startArrow=classic;html=1;fontSize=16;fontColor=#FFFFFF;entryX=0;entryY=0;entryDx=0;entryDy=0;" parent="1" source="26" target="3" edge="1">
          <mxGeometry width="50" height="50" relative="1" as="geometry">
            <mxPoint x="40" y="90" as="sourcePoint" />
            <mxPoint x="90" y="40" as="targetPoint" />
          </mxGeometry>
        </mxCell>
        <mxCell id="59" value="" style="endArrow=classic;startArrow=classic;html=1;fontSize=16;fontColor=#FFFFFF;exitX=1;exitY=0.5;exitDx=0;exitDy=0;entryX=0;entryY=0.5;entryDx=0;entryDy=0;" parent="1" source="12" target="3" edge="1">
          <mxGeometry width="50" height="50" relative="1" as="geometry">
            <mxPoint x="40" y="90" as="sourcePoint" />
            <mxPoint x="90" y="40" as="targetPoint" />
          </mxGeometry>
        </mxCell>
        <mxCell id="60" value="&lt;font color=&quot;#000000&quot;&gt;Storage&lt;/font&gt;" style="shape=cylinder3;whiteSpace=wrap;html=1;boundedLbl=1;backgroundOutline=1;size=15;fontSize=16;fontColor=#FFFFFF;" parent="1" vertex="1">
          <mxGeometry x="-280" y="-81.82" width="60" height="80" as="geometry" />
        </mxCell>
        <mxCell id="67" value="" style="shape=image;verticalLabelPosition=bottom;labelBackgroundColor=default;verticalAlign=top;aspect=fixed;imageAspect=0;image=data:image/png,iVBORw0KGgoAAAANSUhEUgAAAOEAAADhCAMAAAAJbSJIAAAAnFBMVEX///90ycl509MUHzjZ5OgUHjYAACUAACLb5+q8xsvDxMcSGjQgM0UgNkh+29sOGzXQ2t/i7fAwOEsAACkAACQIFzMADi4AABwAACDMztKKjZZiZ3M5QVQoMUcAABoAByvDzdLk5eevucDY2dywsri8vsN2eoXv7/EAABZBSluYoquBhY5ocX2irLRPVGMzPE8bJj5QWWiVmKBaY3G/UpgSAAAGnElEQVR4nO3dW1viOhQGYDo9ojM7jWlSThUFBTnICP7//7bB0aYgQgLpapIn350XNXm7mqy0XthqKcr4qdcfFL6KFIN+72msamJq8tynHcIoUgL0fUQZ6dD+c9OsrzxO8oiGinAVJovyyWPTuG2m/Zgp132Fxf1p08BNjb4PY7Zp1DedZbX6dslWDZaxS+ot4L8w0m0K+Jyr2jxPB+UN7arP9yC+Xe4bIXZfwIC+/9LAg/oYHT6ilA0jNRkyevC7UQTfGYv9SSBCZpP5qK0io/lkRob7N5DeQQMXpDp+SIp5inGiKhin82L/ISELWOC4s3eD6TxJArVJ8Cvd60Ud2LP4oPqMknWKFfs+jMF7VL2NA0jgTbWE2QKrLuBn8KJ6ZOrcAApnlRJGPaEC4iStJhG7qFepIp3BAcc5H3e4FJlrkk6KqBN/pRMVk1Sk8Hg55EPlcCtxwrcAdCcy0eQBHez+258fhK6849exCZiQ8FHjttg8D1v4rsMJXdmO+V0hUMAuH5S+Cz2jr8desrJXoef0nd+cGOrstuFrQ6yEeHnsLYuJreBKEYdQb8Or8q6iQmxLfP/+kIrWP8BFuSboCkiIyiGHPaFOeE0Ng6RXXox8GOCU94poJCS8Zh0GyYj3xBzmg8aYLwySisxxO8u/R/bSv4InoZQf8mOYjtgtC4LexOa47YeUHfRDRoVa/i5v5cfYDGYzvSmfGsGNJvg40/hZzJP5Ymeaj2v5VpPBHE0rwjvxdwoc7J1LA4kr+bEm0ll4eZzQCa8UKvs0c+KjTaPCByUf107noUGhjxR9ID0d3knhhdBxQid0Qid0Qid0wiaEtzFEbpsT3v75DyJ/SiL4O/5W+Kv+VISx7cLQdmFouzC0XRjaLgxtF4a2C0PbhaETGi78bbvwl+1Cz3ahZ7vQs13o2S70bBd6tgs924We7ULPdqFnu9CzXejZLvRsF3q2Cz3bhZ7twkOgdcJvQNuE34GWCY8A7RIeA1olPAq0SXgcaJHwB6A9wp+A1gh/BNoi/BloifAE0A7hKaAVwpNAG4SngRYIzwDNF54DGi88CzRdeB5ouFAAaLZQBGi0UAhoslAMaLBQEGiuUBRorFAYaKpQHGioUAJoplAGaKRQCmiiUA5ooFASaJ5QFmicUBpomlAeaJjwAqBZwkuARgkvApokvAxokPBCoDnCS4HGCC8GmiK8HGiI8AqgGcJrgEYIrwKaILwOaIDwSqD+wmuB2guvBuouvB6ouVABUG+hCqDWQiVAnYVqgBoLFQH1FaoCaitUBtRVqA6oqVAhUE+hSqCWQqVAHYVqgRoKFQP1E6oGaidUDtRNqB6ombAGoF7COoBaCWsB6iSsB6iRsCagPsK6gNoIawPqIqwPqImwRqAewjqBWghrBeogrBeogbBmYPPCuoGNC2sHNi2sH9iwEKCEzQp/O6HhwtB2YWi7MLRdGNouDG0XhrYLQ9uFoe3C2Amd0Amd0Amd0Amd0AmNEtr6f9dKYQj0/4DD5oTQcUIndEIndEIndMImhAjkTIPAheXfD9HdQ7v+PNyhrwEjeCFO6g9uVhjUHyd0QlBhgoM0wIn2wqwUFnKTxaM1ytB6JHdfkqIUZjDCLhe+yQE3OUU+ovlGjvgWlsIuiHAcfw3ok1SmFu3887K8LVP7lJTjxWMQ4TQvR4xGElPFK/p5GV1LFDEZlevez6cgwhYq1wXrSUw1ZV/XISZRe9xj5arwYYCtshbbrUZGyJ/uTEbINxq6AhJuhnxhSKyoy2qYtPmNGW6AhF0+Jn0XLyJeX7IO8Tvl9xNmK92GlM+Nn4nvNRftpcmI305EoICtCeOjSjT9XT/cVVCmH1bavc8mYMIx7xf+cCnxxLVXJCbrtsQVS77m/RymG35kxteGH0l0jASnaSpxLsUL3gt9OoMDtm46fGA/W9T1hoEXWWWcDsyh9DODShH9aB1Ivi4IJQnWlQr6dAAJbI2rRfQZepV9JTrvw3PKqoN0AFfhLgtSHR1FxTzF6j7aYJzOiwhVhyALWGCrVVSf012vIuvefKTk49po3lsTsufzaQENbD2S0N8PZSRSE8Lowe9G5BFc2Oq++HB5ATuvVfN8j85PTUnQ/XMTwC0xhyGivCHgtmcwdn5+V4cx4D5RzXSVnZ/hlclWQJ8ufsgmqreMLIJ66/0x02Vcn5HFy2YL+C+Pk5xQ9XsOolE+aaALHs30ac062zatiom2h4fOcPXUtGs/46def1AoARaDfu9J2f75P5x5kFwGxuzCAAAAAElFTkSuQmCC;" parent="1" vertex="1">
          <mxGeometry x="170" y="-81.82" width="31.818181818181817" height="31.818181818181817" as="geometry" />
        </mxCell>
        <mxCell id="68" value="" style="group" parent="1" vertex="1" connectable="0">
          <mxGeometry x="315" y="-81.82" width="90" height="50" as="geometry" />
        </mxCell>
        <mxCell id="69" value="" style="shape=image;verticalLabelPosition=bottom;labelBackgroundColor=default;verticalAlign=top;aspect=fixed;imageAspect=0;image=data:image/png,iVBORw0KGgoAAAANSUhEUgAAATUAAACjCAYAAADrV4nuAAAAAXNSR0IArs4c6QAAIABJREFUeF7sfQe8JlV5/nPO9Jmv3r6FXoQgQRQUW6QXEVGJAiIoqCnGWAOKfxVFjcaoiZHExETRqHQFArvLImhQLAhIRNrSWbbf+rXpc87f98z37b132V12b9lyucPv8u397tQzc555y/M+L8P8stNGgAGQs3j02d7/LJ76/K7nR2DKI0DP/fwyjRGYB45pDN78pvMjMAsjMA9qszCo87ucH4HnGwEpJWOMzaah/nynMGf/vhHU5i2OOXuPd40Lm6kHbKb2s2uMyvxZzMIIzFtqszCo87ucH4H5Edh5IzAPajtv7OePPD8C8yMwCyMwD2qzMKjzu9x0BOZ9xi09E/MjM83ZspkBnAe1aY7pdDefSwHjuXQt072vu/32uzHazoPabv/0zV/A/Ag8dwReyC+YeVCbnxE7fgR2YytgWwbrhQwo2zI+s73OPKjN9gjP739+BOZHYIeOwDyo7dDh3j0PNscNq1m7KTtz3F7I1uI8qM3aI7377PiFPAF2n7s0f6bbOgJTBrWd+Rba1oubX29+BOZH4IU3AlMGtd1rqHYeBN9zzz1GHMe653m80WhwGrdKpSKzLJOtVkuUSiWN/l0qlTL63bIsNjg4yDvrc85TIQRtr9G2URQJ+rQsi8dxrHmeJy3LSoeHh0Hr0b4YY6lt21mapnqhUBC6rrOxsTFG23TuG62Xpql0HCej80qSRO3fMIysWCyqYwRBoNH3pmlyx3FEHMfqe03TJj03nX3R/pvNpvobrU/nQMem/dD3hUJB0vnT9dP5dMai2WxyOgats+m+O7/bti3o361Wi3HOmRBCmqaZpVkmkzjW0jTVCoUCkiQRNCZBEHD6Ttf1rHPOQRAwOlfHcWRnPdoPfdelaWxdEPDO8eg72k8fEK8MQ432R3+jY4ZhqMaUxqazPl0bbUM/9B2tT9/5vq+Or+t6esQRR/jTmjc77zGe1mnv6I1fIKC2lWGdwQdl6WOPWcu+9a3F1/7wqpPXrVl9sGGaJcvUucxEJU2SYpoljpBMY1xVMyfgmswSqYEh1TQj1DREjOuJFBkTGZDJjFum3Yzi0JOZMBmD0AwjBQTSRJqQCWNMSw3TaAkpkMaxCSCzXbfOOY/TOHXAASmkKYQwRSYMCam3R4OKqVOv4A3HUewkSWIBLDMtI9A1PQLARSacMPRL9G/GNIDzVKklCcElJIMUma6bka7zCIyLNEutLMkMcEjbtH3LsoM0TZ0w9t00ySxN0zLDMHwGHkuZcgEYnPE4yzIzzVJbZplB8x+Mcwamcc5YlgkdDAQiMeFpJjJDEm5rPLJN05cSLEliL8uEwzQGLT9HRseFZNwwjVBKupZMEzKjXWecaZFh6LGmaYkUgmUi04WQViaEAyFpjLhUpeZClCuVlXEce1EQFel7Og9N4ykk9FQkdpokLgPtVpOc8wTgMpNSFyLjkFlS6up6gkamNlrv5Zw/+YbTTvvBhRde+IfXvOY1a3b0ZJ/x483g3JnJc5sHtc2M5lRiTN+8/PK9//r97/8rRMkxRqG0VxIGTne5LOojw1yTQmNSaGACkkkIgAkOZNCkxh0hQEYSzXHBJnxK9TvjAlJ9ykmfhFZqfSGVKhuDhARTn7lMG/3QSvTZefzy+52vR1bXxO9l+5eJyhGT/r7p+hN+74ziputv+v3E0X7ueW1yPu390zabTp9tOS9ASgZSwuiMy/j45KOwuXHJjzZxNCdvnQ+gGkdOd1OEBpMCLOMZpC4k3W3OudDBQdAY+dyx7Siuh1bFcWtjQahLbq46+z3v/bsffusbt87kZJ7fVz4C86A2A0/CN77xjX2+dtllf/fUY0+81al0l4NazeSmBREGsLlGZgLowQdSZBqQERRxsrc4GLPJAJniWdA+CdCUVzj7yy76Zp7Shc/ItQhwGYMEhDRhgIzgjGnINDIt6b5kYEjg0jPQjFB2i4gFw7AftOze/oeOPOrIS//3putvntL5z2+0xRHYCGozco83HmZm97Zj7t/Uzvmpn/3MPuXccy95ctWq93HdKHHdhqYbCFo++rt70ByttY0nZZ8p2yrjAuS/0GKbztQvT4HZLADaxKF43mF57godE2hrF7Yt60x9YHbclmEYgksOQxhgIFDTFajFegrJMiDxYUYSRbrX0FGodCHRDKyp18b8NH7mc5d+6oxPfepTT+y4M577R9qKpbb1p/l5n/W5P3bqCj9ywQWH/cd3vnPTQG/vwlhIbcPwKCqVHjSbLfT1DmBkaEitp2wqBorWgCJSZK3RkoRN9aaf2tIGtG1xxjZ1tmbkd7og5fo+15mbkf3v4vulxIrpgkmuLDX6FJxATSLRaFxiuBpgRAG6NRNhswlbc2FXyhiJE4wG/qBlm1fdfd/dFx5wwAEUx5xfZmAE5t3PaQwiZTZPec2rv+mZxpvrrWZXsdKNVpig1vLhFbsw1mhA12xkjENyCierkHseNqNPAgSZUCR/GmfR2VTF2NphtF33k1Ekajc4zzwc+TzjSPeTGflqmQlGuRPGAUoOU9JVS4GwAY9J9DAd8AOkMgOHgSYYQsg0RPLwD374w9POOeecZ2bgIZjfBd2SqQTF50cuH4Hf3HZb/zHHH39Ld7Vw4OBo03U8C8ywUGtEENDhdvcjVOF/yhwaOajRA09uowI1AfitfGdTtmz4C9dS2hUsRMfLTfCUQLD9Q1aaQTc0ArIAFWTwV61Cr+VARJQg1dGiDLbOwDX9kb/90AfO+OIXv/jQ/LyamRGYt9SmMY7Lll2/9znveOeVo6P1l5cqHg+iSAWCnUoPguEG/vTk07D/YUcg5gZSriFTP+0OUhRElgycEQuDKxeU5sb2fOZuH1k+lK6bGi52Ln+q2+8y23XGb4rjMKXrYBJJFqp7pgtd3UCy1CjEAD0BRwRWG1I/t373u6haNjLfJ54fmlmq4qpMZqtOO/UNb7/xxht/MY1HcX7TCSMwD2rTeBxuvvnmfc84+63LIz/Yj3DJKpURtXzwnj7AqWDfw16Bt7zzPQg1GxG3kHKWZz6ZBKdHWjJoegESRFWbGihRHIcm0vaA4faCZ74+MdPYDjjO9oP71K5n+scBS5GkPhSGZToYARrdR43eNRF0GcBLA6Trn8VlH/0wKCUUjtXg2jZaaQyIFCzNmq886uXv/dWvfnXVNB7F+U3nQW1mnoH/Wb58nzee/sZfQtMXbJzt9Fh7FcAq4JCT3oxjzzgHLd1BwE3EXIckrhqRQAnUGEcCC4IRv3QqoEZgRpSqHQFq0weBWQUfoYzWHQq6RNnQQJQOCV1oKguaJ4SEAjVDBuhiEWqPP4wrL70UaIyBxTFkJlQYQlEQw9bwKSccf/6yZctumpmncgt7mZOZvc1f1LylNo0n6cYbb9n/9Le++edg+gLFjSVAo5lVKAF2FS866XQc89bz0DA8tLiNhGsQ9MBDQJOxcjfJgqNEwjYFpp8TuKYZ1CkQyC9kS8/unHymp3HvZmJT4i9rIoUu6ZMSBW1LjYoaGIFaC10sQePxB3HdZy4BGjWwKFS8RbLYFajFwcgpJxzz7mXLlt0wE+c0v4958u20noEbb7zxRW950zk/5ZwvNChWLAWolgcFstTKOOT1f44/O/OdqBlFNLQOqKk4CnQZI+MSkZa7pFMENakyDgSks7JsBQp3D6LZc85yJsGdRl0TFE+j+q2c0kExU3JLCdRMGaCHhaiveAjXfeaTQH0MRhxBE1luzbEMWRqMnXjSse9dtmzZdbNyC3f5nc7kHRl/se/yl72rnuBVV/344PPOOm+5yYw9OMuooBwR2WteBaldxovf8Od47ZkXYNQsoaG5iLXc/WQigSEjZbVRGXkyLUya1sbbMbQz//Btx8F3yVXJ3dQEBxccBpWKgNxPShTkoGbJFnpYjPqKB3Ddp/+fAjUnjmGKBGSvZ0gQyaBx8utPeveSJUuu3ZEXuSPu5rYxK2b+TObdz2k8Sddcc82fnPe2dxOoLTaQIZUJIoqVORVEbjcOPfWtePXZF2DUqKBmuIg4JQQycJnAFJEqo4nbZVNTP40Jt3CXtZ5m/sGd+njN7JYEakzq0ITKDkBQsqBtqVnSRx8iNFfcj2s+/Umw+hi8OIQpKEmUIWUCoYgbJ7z+xPcsXbr0mpk9sxfu3nYvUNvF5sYVV1x3yLvPueBWk2sLdWTIRIxQZm1Q68Ihb3wbXnXmuzFiVVDTXURaG9REDEuEqnwqZUQDmKr7OROk3dl5+HdZfJ3hy1USBBQEEGZOryH6IYkW8BCOaKEXMZorfo8fXfIp8NoY3DCAmVE8VaiwQyAS/4RTTj5/JkFtW6fJtllSUx+w2d7/ls5s9wK1qY/vrGx5xRVXHHLuO97zU4vrfQYVq2fkTgiIQgmZ142D3vg2vOLM92DErGBMWWqU5UyhKVCLoEnKhFrjpM3nY7Crv5ObQxJdHcb7rgts2zTo24d+27f2xhPY1mm+TWe8cSUKH2RaoioP8oJ2iqlNttR6ZIjw0YdwwyWfBGqjcAIfZpooK52qTFppFpxw4skX3HLLLfOUjq0N/3bcwnlQ277neNLaV1111cFnv/1dd+qcd5kqppYiyDKgVAXcbhx4+pk46q1kqZVR072NoEbKDgrUVP7foimh3vadt/5zPyW4ZG1+23jxTn4yuzmoTWP8d/amgpHqSg5qnWoCIkKTtSZYAkcE6JERokcfwA2XfAIYG4YV+9DSGIwsPK7Bj5PoxJNOoeznD3f29cyV48+D2jTu5Peu+t6B7zzr/PsAuAXPgh8EMEl91S4hK/Tg8De9HYeeeIaKqRGtI+FEv6BQMiUKciZ6Kq1NyLeUFeuQXQHHsiEIMBMKLKeK40RBZgJBMluInb57L7svKNM9IFoHuZJUwK7uR65aoKqm6MW1kKWIHvk9rvno+4DaOpgOgwaJJFJquAhDPzrppJP+evny5Zfv3vdxls9+zlpq23FhszzEaveX33TTQee/7dyfIk0GNFtnWRiClUqQtgeYVex9wul47RnvQs0ooaV7iDkBkARjscp+0sK4o0Bt3FPqTPJx6Q6CM0mMfkmisyTsSrXw+d91qindrZfZAbUp+qmTR/J5njdVSSDI5RSI9USBmk5mttSRcg5TxFikQO0+XP2RvwTq62G4AGMMWUigZiCJg/CEE4573/Jbl1/eVqPaMtlwt77PUz/57Y3NzVtqUx9r/Mcd9x/6l+ec+30ErReDCw1RBJRLAGmkcRfOy16L09/7ITT1InzNVmVSyrUEETYT9ZZPKTw2kWc2SfAxBzIFflQknUtMbwQ1+tv0QW12QGUaw7rbbDoToCZFOnzccUdftGzZsu/sNhe+i5/onAS1pVJag48M7fX4qg1ed8E1M00UEg4741JEGouZZA0HWssQmj4cp12RwU2eqJI9pU5LcXhdSMElp2YeIUszww9Dy9TNDIyFpmbGmca0Rx9+9GUrHvzD+wO/vp9II2RpjELJQ6rbqKcc1X0OgtG7F5qah1Cj2s88uK+Y6EiUGq6uqgk2WSYAm2kaysXUdKY+6S1P++hYbhpJ2kxrmUlQm5opPSNW1bTGYGobzwyoJbUTTjjuoiVLlnxramcxv9Vzps9cG5KfPSXta+/4+Z89MjR0VrF/QTWOkgWCoxRrwo55xhNdJEyi6SZoSmZYdcF7E64bXGapRgkpkRHRP+/UkamYlpBJxuM403TN4JqmC9t0UmaYGBoZXtjdXS2GoQ+R+JAihm1bEJyjmQJGpQ9DUV4KNV4ORQq4EppMFVVToxjbRk9zAsC0gc11HRV7MU0ThqltBDYi+hKw8Wkrss+Seu42P1g7ijy8zSe0lRUng/b2gNo1H/lLyM24n3HkJyeffOJHli1bdtlMnOHM7GNqL6eZOfb097LjLbVZHq+vLnn4wJv/8OBFqwU/dWC/F3WLVBrk8hHJNWYxIp6BCwmbsuqkJ2+7qvaS6BVcCFXHxzNqiZIXR6dhlKclqekTI4vJhGZa0LiJRGRIOEdGumhJoNxKkkuj2s5YMmSagcz0VNF6oin4at8xxTtX9A6WxArcxpfJwEaWGVlrjuPAtm3oBvU1YKp6gX6mB2o7G9DoqncnUJs84bYH1LYUU4vCVnLSSSdcuHz58q9PfzrP74FGYGqgNsvANJ1b81ff/emrn5TWF0at4p8Jr8qQUWkSQOYZgRqxuFmWKlAj4IryZm/UDQ0aqZIKAjQJ6lFHD61hUCCeQ9csJRVE4o8KjjIGZjsYizJww4BO2xL3KIkgsoR6piHJSK3ByHXrmdYm2Y5fHVUXWEqGiEy1zQAbZdWShHp8giw213WVxTYR1PKmUFNZ6KIpoJf3Ttgpi4olTg/UdqbrOhOgliahf9JJJ1y8dOnSf9kp92AOHnRqoLYLD8QZ37zlbc8a7j+M2V176139SFq5eiCBWQIS5ovB0wxuSpYZoLkEWuTKkdVDdZkkt0xytVnuJhINg2swdAtxlgf2oziFH8YwvBIi5sB2PeicQWcZoiCATGJYpo44DqFpRg5mbbZ5Xh+YL/nxSExwU1DrDLBAHMewbAPUqNfzclDjZB1mea3pBFCbwvxuW2rTA7UtH3fjX7bwFpwBUNuZj+JMgJrG5ehxxx1z6U033fTPO/Na5tKx5xyovem/b3/XSrhfzvr26m1lJlKfLLLcGlAMcJ7BEAJOQpaZgNSJLKlYsFS0lH9KAjRig0GBB7mZLglAJjGE5GgFkXIHwxSw3SqYZsHgGoKgBUPnSMMQtmWgNjyEoue2QSt/bAiGlI59+5zIBc1BbeLSgT2hYmhh5KNcLqO7u1sBWZqm0DSuYmrPZ6nR+sokJ4HH5/xIBbyzudD40XEJiOknT3SML2T9bm2ZAlLP5uVM2ve2glry6O9x5QffAzQ2wPTy0AEpGRD5Nk3C8KSTTvjMsmXL/mGHnfgcP9CcA7XTrvjp+1bC/XxSXVxtkcaVz5UqaT6ziSiZUmYTdpbmBFadI1PfkzOmdEshkCkApM9UUKG6gFtw1cNIkt1CSOUKZpkEI/dWaEiERBKn0AzqYssUmMkkBCP2OOltUdxNASW5ospGU7YaV99vCmo5/NGiQC1sg1pPdbtBjUBlU1Dr/J5/dqzEbWg0sk1lXJP3kyS5i6s6vE/47Lidk0BuFw5rbA4HZgLURBa3Tjzx+C8sXbr0i3Mca3bY5c2pxitE0nvjVT/70ErmfCYsDJRCYUEPdUWQVCVJqoiYMo8CdpqDRmqYSEhmO5d4VG4qWW4pNfZmAqapI8tS5QLqmkSzXldZSM92oGUZsmYAEEUtk8i4SakCIpWBMwnPIkuxAY2+VXwzAkoSiiQgzTXtn7NMAri2pdYBNbLUZNq21DTlMm+Ppba5pyrnwRGwkvU4812oeLuKQsUjFXF4Mujt/IqIcSTdXqtwJkCNQdSPP/6YLy9ZsuQLO2zWz/EDzSlL7RoptSuvveODT0nzsw27u5BkDqzEgJnlOcJcGSHPQRKoUYg+1g3EpLPIVNcAJfJHn8olZWSR2UhiHyxLQEXrQX0YlsZAopA8i2GEESzDhrCKkGYRCbMVsDX9FsoFBzIKlNQQARstdEzVxZsSDgpItg5smsZADXPL5eK4+5nFyoJT7qfqu7nlQD+5fOq4bRLvpp9UtDPzyzhQUKKFLNxODFCdc8cNVlyWTc999zDX8pKobaso2Jr7yVnWOOaYo/9x2bJln5v5+zB7e9xelv/snclm7IIdebDZPtbPpNT/9ce/fP/Tmf6FUc11Y+HAEzb0jOf2QbtGj87DyL0ypFpe0pIRBYMDKmyvXFFKGEgUHRNZ2ETSrMFIfVQsBoc4ZuRWpgF4HMGksiinG8MRQ2KXkWkOGn6A7u4q4mZ9AqgRkGoK1FJmKIoHFaqPZwAn0jlyl3Qc1CimNtH9pApC6ki1dVAjjluHqJuXWY0TdymuZ1n2rN4WVRJEFm37hw5GQEvnRXHBJKVysZ2UfZ3mlc+EpQaZto4//tivLF269DPTPJ188ym8E6awyYyc6mztZE5ZavdIaXzl+l++/6lU+/x6abqZsFFinlInpYVq9CLl9QkFdModJEUFnpeZU8g+ZboqGFeTTyTwdA1a3AJr1VBAjBNffhi6LA2GCGESHy2OkDAdtczCz+5dAd+qwpcmglSg2tONuDm2CajpSMlSU8chdQ66BRNvQ3uCt93QSTE1lSiY4H5uA6htCmgTLSYpGGSnREt1Lel0L5m5T8f2kIkEaSKU68yZrtx3y3SgG0CSUqLihQtqWRplxx9/7JeWL1/+ydma5C+0/e76oLYdr5EHpDS/fP1v3/9khktXJ/BSOChzF5qg4DxZZQK+wSB4pkCNeGmM0aSSKqtJQJPnIjmYkCpLWuCAGfvg9UGUZYSL3vMG9OuAC4A6djYBUDviDQK47Iq7EFjdGAyBVgp4xYJyWznRSEBsX4qp5WAWc9paUzmC8YoCevwmW2s5qE10P7cP1FqtVrsQPncBO6CmLDbBkKbtZjHb0pF8CokC1y0onbmU3H3qzaCbsG0T9L1p0VhTV4cdDWpTj6NNBIjNW2oUUtAmFbRvzf2MIz876aQTvrp8+fKP7a7gs6u5ors+qG3Hnaaaz6tvuOeDTyXap1dF0iPgKGsFpTBLwXmqKgg1DsEF9A7ZliYUFZe3i8UpUwmZQWtXF/SXSmB+A/GGNdCbo/jKRe9CkQAtFtB1YIPvI7EL8P8IdF/+r+XIqouxoZUhSJmidxQ4NRrOIHiKWOMIuYWEkYYadYEk95OysBMC9BOj1ZTUmJj97LifG2NqIj/vrcTUhoaGJoNaKifFt4rFUnuE2yTYSdyxiY9HTlLO+4uOgxBZusqqlXmbvtzyzBfqb+qHARKy1AS5yoClG/AcF0XPg2UZ0OklQ3HOdna4vWWu9a92RRLZOc+vQ9OlezT5RUBWeL6uSgipY4+HKye+OMhaV15a+2UiVFZ2S5SarT98qpxO8Q/JAyBdtVylgwtd3Wsri7GQp8hW/B4//NBkSodINehMA4HaiSce/7Vbb731ou141OdX3coIzClQI0vt81fcedHjkfGxptNTYF4RIgzU5RONglQyUmaqjKFFrH8qg9IcWIaBpLEeFTtBNPIsosYQPvKBd4CIIN/+z+ugZxI9xQJQH8Fn338O0Iow4JAmPVXBOxgVEi3O8Lef/jrKLzoUZrkLo+uH8YoX/ymOO7wXV1/9SwyKCC2vhLWwEGtVGKKiZh6TDTCy4jYp7iBAoJszDmpFdCtKR5ZnP4lf1w7+dybpplYE/b5u3YaNX6v1qU9oZzsqgm2NoFBwYVkOSJA1S+mYFlLBEAaxalaV157q4IYGjUlkLMnPg7pnkXy5oBilDoMSMvQjaZ3c3ZcWQ6IJxGmkQMnTTcgghmfYWNDXD9WCRF0rJVJS9QJQCR2KczKOQqkbQZwgCunkJAzOYRPXLUsh05wDR+vRC4tAzVL5GKb0zOh72hcF9I0sB+WIWj8p8CG1Wo5USGiGoSpHyHolsnOakYjjRAEBBZMdqN44njmQt0HNyEHNSnPpITp/ArUFRPl+7H78gECtOc5TExlRf+i/zD/h+GO/cfPNN3+CsemxoOeRLh+BOQVqlCj4zpW/vvDRwPrEmN1VkI4HQcJVKuvJkVH+khnqgXazSL3tU+bC4BlkYzW6TR9ONIj3vON0RdcoORqeWDmIe++6DyufehqLu6r4yPlvhSslvKQJ1zFIawMhLNT+OKUuvexyPNUKYJereO3LjsDJRx4AswZYDvDNG27DCj/CercbjawEIylDgwnNSpQI5PiS3xKa6HR3NE7Zzw5PrZLz1JSl1gGn3H7ZlOrWsWQ2gtoEMMtBLY8pWjZ1FpcgLzRRrihVUBiEH0jiTIEaAauuc2jkWVFVRhoiTWIkZOG6lrKijJR+dGgpWZ801hIpgZpNoJYiykJFc3E1EwhjFDQHC/r7kajO7+06WJWmSXOOIDV65jp0pwg/yhBFpJ4iYDENFpF5swSEwg65t4yrWCmhlp3m1lOk5UKNCuokvcRyCzPUyWrPfyerrukH0E1rY/lZksTKkqU+rp0Mc76X54IafatCG1wg0RNlMxOoUSMWSj4pS00mSB+/H9+fAGr0MkCag5rM4uCkE4//xpIlSy7eGqjtMi7edoSDdhbIzg1Qaw803fj3XHfvRx9s8E8NG+VSZjngqrPPOKgJGOohJ1AjZVKHaimjUWBsFbxsFBe/7xzswYFI1UVKGNBx3wNP4MknV+LAPffCKw/dFx79pTmGatnD+tog9GIFKXdx/9oN+MOadQgSgVcf/hJ0G8AAA3QGPBFJfHv5bXg85lg5LODxfuhWCYFJ8Zfn3v6OF5dnP7cMamQpbHZpf79u3frJlhpNpI6lJjniBOC6Ca5TbWqb1iLJKBLqx/M80ESPSImEelZKAVPX4dgEyAxNESjnzUgNaKkGg/pftn1SyiAzk6zhDFEWED7CIl5gHMM1LAz09SsiM40zUV7IYh0HtbxeNpQ6giRDGKRqvyanV0HeRFikWW5ZcYZIU858LlRAoKYjl3qi8c8EzDaoBe1EkQI10qMzLSUUQBUiBGLESVRCAVpuJZNVvI2gttFS2x5QSyM/e/3rT/7akiVLPsZyJvT8Ms0RmBugNmEQ3nvd7z7yQINdMqQVS4lpQ6fXcRvUCNDIWiMlDjcNYckAtgxRgA83HsEbX3s4XrvvApgIlOqGqZnQuYcoZYjCFBVPhyUBhywWP1T7lnqCVibREhq4XQRBSCgkBjhDEIRYbNsIkxShqeMxCVx+268wFJp4+rFh9C4+EMMCiBVBdfKyZVCTSLNoo6U2CdQmvkW3CdQMSOHB8cpgGkcjrKMRNlXMkTYXMkZfXx8k+aVxompaeZoqlRPVU4FnCC1yFQGNrLTMBKcEjNDbho0E1ykxkyIki5lL5cZGSaSK9Af6ByCzvNaWpJjI9aRPWpQIADTUwhR+TJUcqSrHtTREZ2pQAAAgAElEQVQOQ1lqsTovqjgiVzfSc3B3O6BGrQfbeE+PAIEYcRRDIz81K8vdUnppUHUIgTfV1aqkUQ5qknPOSFBg1kCNZL9jPzvllJP+admyZRdOcy7Pb952PeccqP3Fj3730ftr+PSwXiqRrFDHUlOkVwI1Zihrg0DNFi3VcLax5gmc/6YTcfT+FaA1hm6eYMDxkAQ+PKeiMpa00PNNIRldxW8EZGsMzNUQJzGChEN6RTSUShH1gcxQ5gb0OAA3LQyBYTUYnsyAf7/qNkhRQis1EDulNqhNtri23VLrPMu5VaL4KWrJb+3a9evyXyn2ozhtHFIQaTdv+qLzioqnxSJDrTUCwWMUyjbIS0ziptKII1UTAjO6dpu4bYysJY5UYxhmERKlt2RCCh1MWECmQaOAOblnFP9iKRJSL9EENFtHmIbQHRP9/f1gJCygKi7yqosc1DpKcyYGGz78SMCPc7AxFagR6iWQWQLPK7ZBLXfBCdQoWUGWGoEdLQReFGtTiQtq+sSgLDcKQwR+E57noFgsKostr/3NuX/Ep9tRltrSpUvnEwUzBMvPC2rb6kLvKj7/Bdfe89EHx3DJqF0twitCpiEpP05g8lvtmFoIUwZgIkSRRxjQE5x3yquwjwsspjkajKFkm2qCJlEKw/aQRJniWEWNQMWiaN8Z9e/UODS3lBM3OGnaArXaCPrKFZL0ACwb66TAIOP4wa8ewKNDPkbrDKF0QC4yVRdMlOBR2NSZkBMrCnqeG1Mbd1gmZi+3Ampt97MDaiKywWAoaoVkASwng2ULZEkTgT8CEjEhEooNDRaoEzkHizKkUYpACCQ9Ffga1VqQu2gik9T/kswkXYEJgR9ln5MkUJYadzT4FF9zDPT39ynApJcMuZ9Uk0v/VsF3IinDxIZagFYi4EfUAJjB0Bg02g91OSeg1Q3lvlOn+w6o0dDR75kqnqd9dkANCtRobMlyI4szjX0UC64SDOiAGsXUFLF5UvH988bU1JTc3phaloTJG0495Ws33XTTx2doTs/ubrYVEGb3LLa69+cFtZ14blM69HlX3vWxh+vs4obXV9bKVcRBrV1I3ilPshQ/zc0CZRVkmgZXA5I1T2CxmeCLf3Ey2FiEPYsmPCmQBLmKhUVJB0rh68BY3VdseNchsUiJNIqgmw5aSUqchY1CQiRqRAP8yLohGAM9uPaXD+Anj6xEVOpHanShFmSwdGpwPLFPQbusaSOodQraKfu5KagRTYIC8zRRJ4OabE/IdWs72c/xWNrGvgdSg6OVkYUxNESwzAQiGkHsr4erJ+gt2Tj1xKNRsU1ULahYIuUOhtZFWP30Kjw72sCDoy00DAuhbiBkplL4TSVVSxjKFSXLjiywLI5UQkK3NbQyX0k+9Q30KTIx3QcKCUwCNZlb1SP1CH4KBWqUxzA06stAvnGc69ZRdQYnEVCKswFuKtUnZUMnuZ9pXjHi60TpyStKyFLLkhzUKpWKAjWqpyWXkwjDtOR6erllPvmzbQWOJwqmBGpcpv7rTz756zf8zw2fmNIDP7/Rc0ZgToEaWYvnXfnrjz9U4x/3SwtKVrUHreawcn9ydQx6+xswpIRDJU5IMewnqrnwAVUX9RX3YV8jwRc//Ha4QYaySRilqVrvmh8qNVvDs1TPRoI6sq+iRqKEJYtlmhBAEAklFdRTLmCk4UOjFncmx+VLfoE7Hnkacc+eSKoLMJTqqPkJSradK3hsDPhvDdTalI6MdNqo9pP4dB1ZpU6NZ6fONb+1Wwc1Dl3qiJsNOIZA1ckgm+tgJ3W86vADcOrLDwW1Ws7tSFX/oP7dqRYl0vGl374VdcND0zDQ1HS0COCYhRQWmDRgCQ06BeljonRImJam3E+y1HoX9CAld5OlMIWQmpCMwI0JKgGjdICBWitFKyb3M1OJCxIVMIhNQ6BGQXxF/cgtMy4lXCUplYPaOIeOLKic70bka7LgzIyphJGIW/AmWGoEah1aB4F/br1tHtRoxNl0QI2yxpoMTj7xxK9ff+P1F8/j08yMwJwCNRqSd13xm48/LQof38BL5VoiUCnbiBMfrldGrRUgCDMUHQtmUFeF6brtorvk4tn/+y0WGxl6ojFc+oGzURBAgQtoOifRDQwGEZrEx/Is1AGsHokQtnz0Oh4WVMnJAoi6RlMgjQQKFseYT2JuDjVDwO+eXIMf3f4rrM1MBWqhV8Wa0Tq6K9W20kZHY60NTu2YGB0/z35O4KlNBLV2viwv08+rIfIlv7WBH4GqCkZHa8qdoqwlBekp2xdFecKBE73Fr6PbSNBauQLnnnYsjjpgATyRoEwVFVRnoQrRad/Up5RC+oAPYEgAdz0e4cqf3Ao+sABP+wFip4hmRvLlBjytAIeb0FNyGVUZP4I4hO0aGNhrIfyspSgWpuKNSRW3Y0Q/IVCTFvyEqfu2YXgMaRqjUi5A1zLEflNZU/SyMjwHRslD0bEx8sQz6K1WMOLXFYhVq1UMrd2AoNZCoVJFZa/FCJIUzcFRdBWLCMM6RBJjv/32a1M5SASZpNJT9Ttx9NSiyMHPJTpTppMSEEmbfGumBJbbTulIo1CceOLxl9166y0fnJkpPRf3sn0+75wCNbLUzr/y1x97KitdPKyXS2OpQMHVkaSBArWm7yNMGIqWBStsoGJRJlOg29Wg10ewp2diD0vgTce8BB4BGIGaxrGmNoKsUEaoabj32SEsu/M3eHr9mHJNyEV1IXDgXotw7mlHg/kpyjpQJskipcjG0ciAx1YOYcnP78GzjQRJpQ/aoj2xphUqa40syI0xtTajP6feQoHqOKWjnJNetwhqFEHqZFLz7cdG6wrUKOBtGoaaqOSuErAlIsbwyHoMdBdhRg04/hiO2mcB3vTql2J/h+KKTVQ1QKcgPjnVZOlyE5mSKNeQMGBDC2hqwM/+sBo33X0XBg0TzuK9MRRLNCMJUy/C4hb0lCkSs2rkG4ZwXAsDew6gKVqQvB1PoySM8vLIFDOVVV1rJmgEJJFOOQ4JkQaKV2hRr804hG4VsHpwPXr3XITYb6FELyPbQihjNIImbJvK5DhklKkETl1VMenwuIXa6Bg8x1Bg+byg1nE/N+HHTstSo+RVEqcnnXj8v91yy9JdGtS2D1Z2LrDOOVB71w9/+fGnZeVjw3q5XM8A26Caxwi2W4JPxeepBs/U4MYt7F3ieNcp+6CUAN0mUJRAD4cqYNKyGKmMkWoa1gchEreKu1auxu0PPI4H1o4itbuUvHePrcNf9ywqpsQFp78eL11QwQI1LUNw0g9TGmvEoNIxFgIBA8Y04MkIuOHXj+Ph4QABpyPSrRi31mYK1IaHRtFoNGCZZKEZCJotdSSiMZAWSTMYQW/VRjq8AXx0PT589lvxkh4N3WR5RqkikFL/BVVKxDVkxLzXTAVohD+kQUmu3uM14F+uuRbDpo1BcNQ0R3Yt2pcNjRD1xQEnBj1VBEiGOAoV8CzYcwAt0ULWATXV7IYsHQ5B2VQYGKn5qDcCJWdOZOfm6CBE2IRrCGVpOtVeBBTYtzU0Rkew0HIwNrwBbrWIobEhNJs+9tljH6RNSthYkOUSNozWQIaVqRvQzZ0LakyK6Pjjjv73ZcuWfmjnQsHcOfqcA7XzfvirTzwjSheNmtVSQ5BaGCnVxrC9AkJipTNLNTvx0gAvWWDhA0cvQgkS5ARSSNhFiqg+BiZTCHLNCiU04eBpmeJfrrkJD41EYH37wOrfB8O1OmwRwxMhWqufwGItwaXnn4XFJqD7NeWCxhBotSJ4RhmcurGbQJ0Bj4TAV6+7BWu1fjR0qiZt3wpi9LfpqFu31PKKAoof5RGfjts62VJToFYfUzwsSklEYQjPcZSlhqwFnedcvWx0CP2Gho+cdTzKZMnVIiwsWtCiCIzIYGTeMQ3C0BXQUzWQWmIgIoK8Ddy7dhR1y8adK57E71cPYSTTEfMCYBQV3YOCXxSXow5dnm1j0Z59yv2kmBqVVuUdvCj1rKJvKgM6PNZCo9GCbVqoFlwkjRH4o+tgsxRuwQNzSlhXr2GoPoK991gIjIxhYV8PXnv8Abj9jkfwzDPPouSVsKC7H40wxiPr18MuVtBX7MHghiGYnoMkTXeapcYh4+OOPfrfli1b8uFNYWVXYRTMCtzNouk310CNn/O9Oz/xLKtcOGZVSy2axsR4lwlMx0UUZ+AaKdYmKGQBjt6vgguO7MEi2VAWhM05NEWxb2OMweETARQWHmr4+Oer/gdBaTHWo4BRWYA0LDRG1uOgRT3go6uRPfMwvnj+mTi4ZKAoQpSKFH+ijGECS7pIIqAVCoSOjfU2w1euvwWPxj2o65VxUKPJr9rs5eH4LbufFHeakCjYAqgNrt8A3/dRLhRVaVOWpCgXvbw3QTCGdPhpdBkCfa6Fl+6/H17/6hejSuVZzRR9BR08JopFO/OnUQZRQ6KENHMY1qkGkyw+IRHoNkIGRUC+e2UT371xGYzuvRBbBUTMRtZuMxiHMVzbxp6LBxCnZDnGecxOoXlusZIbTamJkdGWsshEGKKgM1giRNoYwcKqi0MOPQz7H6zj8utXYKQ1gj0XLcLK++7DGW86DQfuy/FP31mqgP9v3n0qRoaB73x/KUp77wW30o0nHnwMBx54ENYOjyHOsp0GakyK5Jijj/7mrbduwf2cxck/Gax22IFmBSMn7nSugZp2zvd+fvEqWb1wzO0u+YzIoFTQnsKgrFyaKVcoCwIUZIhTXzyA815Sxt4sQkqlO6aFsN5UwfQ4CtBMU2QFF4FRwBN+in/43rXQ9zgUTzaB9aGBYteACpkXZIBCOIyBaATvfs3heM0+XQo0dT3DULMGyQwUuQdb91SAndzPJ/5Y4/jpy6/CiHcgGgRqKpY27oLOFKitXb1aZQnL1DgmaKn6SarhHB0dxoAl8bdvejUWWhIuZ+iyAFMAVeJ9hSlkGKC7SESOce1BScDWLj8n99VErMZg7fAIuFPEYDOB29eHMQDX/vJx/OaJNQjsMpqai5A05LiBKIrhODb2WjQARC1okvo4tAtYKUmgejhQSkHD4HBNyUClfhNa6KPAYvQXTBxx0P447NAC7nwoxW2/+Q3skovEr+HgBYvwlhMOxB2/X48HH31IBfoX9C/E0Ufth6fXAdf95BcwSiX0V/rx9FPPgrmVnQZqlHjJ0iQ9/ug/+/fbbvvJ3876bH+BHGBOgRrJed9w+c8vfhaVj9a8nkqomcr9JFCjVnWU9SJQCxtjKIgYbzliP7ztUBt70BpZBk8jyw5oV9wgyGJEtB0Y1vxRO+3v/vHbyHr2R02rYgxFhDDQ1dUFf8MquP4g9kQdF516LF6zjwWTKsJZDJ84VFQc3kjgWKQhBgwRd+2Pc/iz374CQWl/BGw7QI0KpNN2Qfs2WGrDg4MKsIteQbHnSd0iDFrI4gSnvuxgnHdYBXsaOU2DHoaw2UJXwcvTDdS+j9CGWvExApt2VypF8Mgb1MSipjKFlm5Bh4daJBHrLmoceKYFfO3q29FwqxgzHLS4jVQz4CcEag72XrgA3G/AlKSpRsfPlTRU5wUloqljdKSOyA9gk/UY1FEQAV596EF46UFV+AHwz5f/GHq1C7qroVkbwQfOOR09JeAf//Uq9C0awOjoqLqnL/mTl+FVr9wTP38swq0/vxO9pR4MjzRhlnsQZnKnWGoK1OJIHH3M0f/5v7f/5K9eIJgz65e524DatsQXpJT8rMt/8clVrHpRw+3yYs2AwSntn0FyE1GSgGsW/LEReCLCW155CN5ysIYuKqGJhHI/VRvQVMBzOGIpkTKGtWGE0LbwuW9djbiyD+paVVlX62q+EoIssBS9WQPhI/fgWx89CwuIM0WZt4KOwaAF0y1CRqT2qiFmwDMB8IwBXHb9MoyyPkS8OG6pqZjaeO+C57ifE0FN9SigZyQn4OaxOOKp5d2qCCCagY+m4qERH60OPU0QNWvoL5dw8VmHY/8E6JUZDCUrlHveVFtKsj5UpylVi73xvgK8Q/JVR0uRoIVWs4aC4SgqCzcKYE4FT9UFmgWOz377J6h53RghLptmtkEtUsTlfRcMgIUBdNWQJY8M5qBGcj50DVzF04bXbUBPwYWdRYo0/abjj8BevcCN//M7PLNhFHBsDNaGsWigF+e95ZUYHQRuWn4LGqGPSleXstIboz7edu5xaAD41rd/ClO3UW9EKPYsVLW6+xKlg4jAFDDIiOgr1BgYup6HE9t6eyQ0SuVWqntr27pWMksaZZWFqrhQ2VZVtRCjj+pjH38I3/voXwPNQaBArGAqWFVFZEAcJK847ujv3nXrsr+Y9dm+lQNseX7tfm7pbgNq23rDz7nqno+vaFqXRIWqnVCMTIR5h3Y4EKoJCXGuMlgiRXc0hs+cdTj6GVAkMEuAggEMra+hv6sIy+BoZiFG4hiJU8JDwwGuvuNePDqSQu/dB/VMwqm4WPXQ77EPi/HO1x2J0w/pQw+NatKCZVAcXcPKVeuwaMHeCtBWN4GmAwz+0Tr63OVLEBb2RMhdVRkwmdaR3xqDhCVpcpbK6O6ZSOkgVThS7M1jcKTSS3QICrarakpOGmMMw40aao0aYr+BkiaxiOSSBtfgL/78VBxQAA4iWgup+lAGkcQXGemncaVbRiTjKCZLd/MLaaCFwRjKJRcIQ8S+D90qIjJcrBcORh0NX77mN1gjHYzoRcSmq4LyWRqiROTbUgkaddVqh9I6wo4TdXBHhjYofhtPYmhxBI9L7NHXg0MP3Bv77wHcetsKrFm7GqtWr8YbT38DDju4im9+ewmq3d0YbTSVtJHtFHHSKUdBt4Grf3wv6n6IffbeD8+u3oA00ZWlduBhByGiYv5mA73VKlICc+LOpUBSD1CxPVgFC8NpHRFL4DlEfmbQdBdjdYJKIv1K9FcqCGs11cMCYYAFRQdrVzyA733+UmDDaqBcAGvU4fYPoLVmNd3g1jHnnPn1n/371/8fSWcdDcgHKaQ5Aru/S8kCt18fkNEmapYWwOg7+px4h+iJyJ8KYETlrPN/Ewe6F5AUhKi1SySOYKxTsT/5Ju9+WLbx/OccqJ19xT0XP+pbn4kLVZPKZxSokaA28yBUcTXJ2yQwBFBK6nj14gJe1OWhOTqM/qILj2d4zWH7gmdCWXnk6oUEGFYZayRw+31P4fcrh7CmmeGZwREwU2C/gR6ccsgBOPpF3diT3tCKAuGrYm4qnTKMCuoJcMOtv4SzeD880fARd1VxxwMrUGcVRBqx7yeXOaks4FZAjZonUxs/Ai+yIkw6X3KdlcQOR8xJfodh9egIYmLfhy1kjRHsbXN0pTHe9frjcFAV2EMDPGJrdJ4EymRmeUKBZLgLBVLGndw6r1NsTwmETMTQqaVgs6FidqZTAErdGIKuXPa/v+rXWC091I0CUsOFIFHJxEeXo6OnUkYmqe603eyGrLSNirU5tAWNOobXr4OjcSzq6ULcaGB43Rrss3hPvO5VB2FxL3DlFXdANwyc+dZX4ZEnI/zohuvRM7AAXNWkcpx95lEIJXDjkhUYqzWhmRaiOIXnllQBviS+YX8RT6x4CE/ecgtQ8IAoAjwPaJH0O2CRRiXPkJQ4MiocDepAvQV4XVBoSeqaNIatJkzXVfUQBGz1oQ3YY6APa555CtViQXEkR4cHMdDTrXrIRsiaUZbev+/e+9z04EMPHa5zbtqeG+vgulsshH6zaQkuJc+4EFxkTHIhmczFhzuPjCr8oiI0lpvpUtNkW9nAMkwhWcaZZFxjQmNSULPCRGMssrJoVXcW3PaLH12zfFuNhplcb7Zwc+6B2lX3fPzRpvVZBWqkiZVtGdQsESAZW4keh9zFBgY8A2x0Ay7+m3ejjwrJlRquoQDHMD1KN2A0BYabwFA9xdBYHV3dFQx0cbnYATPJc2kGMPUEhkPikRlqSYrUKOLO+x7BdT/5FezFL8ITY6FSwW1IHVaxByQpvSVQI1WKYDOWWgfUCLwUzz8lUMutNQKJlOuIuIaVw4NIZKpc39aGZ7FAZ6iKEKe98uU46YACusIMJUSKmMvJ/xQSss2mpzIswyQOXXsGTZxJyrpiCIhXxjhIoJzWj6ijve5iEMATIfD1H/0aa+GiqRcgbFcx81kWo9s1FKjF7VaFubuZJz87NZt03PpYDa3aGDSRoMsrAnGEVm1EyYIv6O3GkS89ALff9r/Yb//9ceQrFuO663+LeoOAy0CcZEgkxyuOehUGh0fwfw88gFKlB8VSWfHXDJ1cZg7Hc+H0eCqT/fs77sCrXvoSBa5F20XcjFGAjmioAaFncPfsQQAfzbEhOJYLmdloNAN4rqvijs1mXY1hsVSASFK0Wg30dFdVBposYLpXzWauDKJzjaw72WjUxhzbHsqEtE1d08G5JYVwvEIBfquVl/aqdIlUnm6uX6wW9Rog7zhXWlcoR/hFf1arJElCQKb+ntuWyrlPGJNxIW3d/bPL/+WuNXfdcclMgtXO3tecA7Vzrrj3ohW+eWniVa1Y3zyokcVN0jPUj9N2JUQwDDuug4+uwxF79OK8U45Bnylghi1UHQssk4hjQgtNkXhp8qXEcFcdp/IKGvrJkgiMk6IHyfLEGAtb0J0ShjKJ//3dw/i/lSP4zZODQNeeSIu9qFH9u+W0tf+nYqllSgufFgI1ylySVUGvcAK1WIHaCOpBA91dJaSNMVRECDG0DofvvSfeddIh2BdAmfTZSJKI6h/asSOqLdXIhY3JAxpvnDBRxTDhpipkb0XE8KdC8zwzKjWuaB33bwAuX/4bDMFBSy+BOY6ih3AZo8czFaiFcS41RPvN5bfHQY2+27B+fS41RCGAKIRn6Cg6rlK9bdbHYBAnUOdK940bOh586BEsWLAAYw0qo5KqeqDWaCpBAo+SJZTVVW36dDTqPqrFXrW90+WgPrwGD//iTrz2ZS9Do1VXROWslSCtt1BbswELFi/Efi8/BGtG1mDVM49h0cAihC1g7ZpBvPSIl6k4ZpTEuPPOX2Fg8SL1cjno0ENy+cs0JYE2aLqOhOTffR8pZZddR/EjqTSrt7dXAR412iEqSqlUUmGBLfv/RLfJkyv0NOa2badMLv9st33No6xSqvBCpx9EJa0NPXrD5Zf99prvfnamgGhbYt8dOH5Oa4gZOok5B2rvuOLeCx/xzc8pUFNFzuOWmpKiYdRYOAc1iq+ZVCsV1eD6w1isp3jfacdifxOIR9Zi764K4qAJy7SQRAJJlsI0beWaJVEAx3DQHG3CNGzwogNuUyPjTNWKclLvQIZWEqoY07qM47dPrMeP7/wD6noXqnu9GGtGmwhJ7JDlahtqaX9um/uZKdlquom5+ymgfG7V6o+aNOtYX6thQ20UlUpR0SeqmkQ6ugFFpDj5sANxzuELUJ6g657r0I5T9bb0nNEEomAMUTfGiJ3PodROaNuhEPj1ilVYfveDaDp9GBIWQsMBs1xojLh1KbrIUqtWkEbxRpczb/TMc0tNUTsAahxD/DpS3jCp6XSaIYtC2IaJYon6qzZhu5YqBVPtAElGhVRBhESZakBHxuAVy9AMU/VcoMRJHCcwdAsFpwCeMegaw8K9+zC6diUe/eWdeMWhf6IkjvxmC7f+x7dJ9RMIUyx+2UvwkmOPwoqnV+Cx25bnAntUDaI7OPbMt8ErlzE0Wsevr7+BWokp2amXvv0diEhO3C0R+kJyQ4kcUHE+CSv0eDZkEmLVqlUKxKj6g14opOVGBOn8pbIVXOsgQ3u8cumB8UXtS/2qUkfjaSQm0RWPRc/e8t2vX331dz99AKPw3NxYdk1Qm4azfc4V93x0hW9+PvG67C2BmoqpUeyJp2hmAYKxdThyj26cd8zhOMgGeiiWFLZQcU0EzQBuoZjrsZHuF8kUJUSNCJWVhSYFXArITFsVeDeJNsIZiqTrT9UESRPDQQCz1I+HIoFHasB//vinUi/txepCg2ZrSml2OqBGnAWjLVlN3ejpwVb9GBSo1VELAnBdR9gaQ79noWJxtIbWohw38FenvA49pkSxaMO1oawGha1kOU2MtW3yvCtrlSwpqgTT80J+qiwYHkqxcv0Q7n9qNX731FpYA/tiVBhKkogmMyjDmKWoujq6CWgpE9jWjyOXT/VDVeTjHNTIbavXm0iiGLZGSr2pEhIwdE0JO4ZZgISoN1GiaCL03eDwqNJHo6UVhHAd4tpRkxV105W0EP1ONBfEKaJWHQOLulBb+zQe+8UdOOpPDobjGoiaPkp2QRXjtzaMqaqK0t59iP/YKtEfHoZtGXAcD0EQwHE9Bcgj9Zaqiy1Ve5FyDdxyMVJvIsik4klGqVR1yG6xoKhDtQ1r4Vm6ss6IHkTnlksgSQVsRDze2pL7puMBNnLjJy4dkcvcFibRTsqY50TnSjIWB79desmSb37la4yxraPnboR3OxTUttk0ncYAvuOK333kEd/4QuJVNwtqkifQ5DiowWKIa+tw1OJufPDoF4HVQizgCfYoFhG1mqpgmhKMBFihkoQOIUUAHYGaZGEjJukOhE4BEckbqVIrwKPAcr2Ovu4C1tdHEZfKGISOhwLgsqtvx3DoIrNK0ItuHuadqqXWrooiUDOoV6mS1CGLJy8IXzfWQJASp0wiCBtwNYH+qoeoMYrG6qfRlQWomLrKrir1V4uklfI2epQoUB3gJ1iQHTmfvHUdB9nBjucgDnwMbViXW0y6DelWwQpdaDIPtZQhZrqylpQ0eBqiYuvorpZU/4a8H2ouDUTcNMLlHNQ4RmvEgyMycKQmuK5pqmaT4lXNoIkwDmC7NgzDVCBA5WBEAyFpbprQPd19eOaZZ5TuWk9/n7ouAsokTpEEAQa6upDFLeyxRze8xMfdN/wIr/nTQ2BqUG5v4sfo9kqomh4ikWAkbSHOYhjU+IV04CzSevPR8kM4nqf6PZQrPWj6EUbHmqhUe9AIYoRxljeJERyca9BNGyOjQ6AGUrqpKXEEOtoS7qMAACAASURBVH+y1Ah/hBTqfozLiW9mUrB2i8TOi0gZAx0pqvxLsmhpIeeUYn4EbiqlIIFi2hp+8OYr/vu7137/4uez1KZhZ0xjNk9t0x0KalM7xQlbbcPInnvlvR9+uGX+fexV7Vxja7L72QE1pQbBUoQiwYKqhdZj9+MtRx6Ks4/cF32qoB2wNaAW5dppVBqk2BPUyAMBDDTBkhSuUUILOkZgoi6YElEsaUAfAzxq7hFnMFwNjwUNrIKGr169BA2zDz4q8KUNbpvbFlMrltHdO07pyBMFFFPLo8YkeEiEX+o7mSvH5qC2ZqSmzkkSsZhRcm4Ens3gkq5Yqw4rTWCQThnLXR4KDtLEp8lEmd+im1cUbOy/qQAuf2wUVSYNVdA7IepHliixRZrpG+oBxiIBt3shqJacGGBUysBJgDH2UXZ0dFWKSq9uS6BGlg/VbhZKBLYu0iRRFo2SBGIEDlzpsRVKZC1F6m9kfY2MjGBsbAwHHXCgsuAIKMjlJAuIfmh7AjylfOvXUC2a2HevPhitUVz7wQ/AKHtI6kMoVMoqntpYMwgk5EI6iHgGQryiYSBNAthFTcUsybISYQLd8ZC2fNWvQjMsJC2ytKhfn4RG0uNNX/3b7u5FWBsBFB3GB0i3jW4QITi9SMhCK5Xyzy0ulDJo/3HjTN5kSquYXHs9JRzacU7pWYka5bh52/CjD7xlenNzGybm9A6wXVtvBdR2rRPd1qs66/u//buVsvx53yxYLZHA1CgwnFM6KKY2CdQg0MxSVBwNTn0dCv4gjjloL7z5dS9BFcCqoRjFLhM333oPHn7kUey1Rz/ecMJr0F/UUWShcrlIbWx1y0fLKePWu+7DXfc9jLJbxt+efaqiSlAsSHeB36x+FjfcdTceqUskxQWItR5EgnTY8pzV9ltqFDcT7URBpzkzgVs7qN+W7lmzbjRvYsJyXhvFFCHzjvH0jU71mJTBbM+ODsm0M94bHxDV33Lyt51GKeTs5mHq3A2iK0pY3o4w45ZSsKVMJFkIrqEjiwK4JsOC/p42FWLzlhqB2vDwqHIbs3YTZtU+gHpyEqhtbBM47n5NbHKcpwXzk35OC0H1nYBnawibgzh43wHsYWv42hlvxotf+mIctN8eaNZH0dfVDZkIdDklrF67BoUFvRitjWBhpYuE85BoeQyVQJSsLcpoRkGA7q5eZGkK6n7YGbbxpso5DYcsUlJtGbd+t/UpH18v33dOWs7fNJPdz86aRKKmlxQtFKdbuKAf3/2Pb9VPeNUrvv33//DFv3/RwoVU6DInlt3LUtuGIT/7+3df+IwsEaiZWwM1iqnRBNww2kB/VwkV6SMbXYUBK8ORhx6AQw/aG1UP+PFP/g+Dg8PwG3UUNIkPX/AWdDGgi2WKxkA8qCY0PPLHTNrXv38VeIEeZoaD99gLJ7z2UEUXufvxtbjtd7/FE/UW4tICJHYfWlkBQhoqaUHZqLxNyfYlCqgFHfHU6IGmfZCCrioMVyKLFNEzsHYtgRopXlAjZxUpQ0bhk3YIRaMoGjXlbU+OvDphYqh54qBPFqDsgBrJo49bAHklANE9CEwJ9FUPz4QSNAy2QR2UCNQ0DPT3qBiZumwVR8tdUNWfoM1XqzVaKrZHllVC/TjJEp3QaFiShLrK7E2ezB0QU+q4G0Ft8nXlGcEQaWsUe/V56EeMH3z0Q7jkog/hgnPfioLFVLaULDotY2Bcg/DyO0XPjwIsAxiuN8hylKZpsqJtoFZvwiYhUp3oQJ3Qfe4qbgzaE6gRjUXLQxZTXSZe9ebumqLJqIoIotxI5b4HYYhmvYF3nnvu2Ev/9PB//sQ/fvGrfYw1p3oOu9p2cw/UfvDbjz8jyp/tgJpBlPAJltpG8q1qZktvaR1l24WrxxDxGLJkGG6BYWBhH7r7uvGT229HT3dJCUE2nn0a3/i796hsYW++V/iZQF1qCHQDn/vOlXAX7I1RP8aGdcM4+EUH4ID99sW99/8fnly3AXqpF9ztQy0yEcYWBNdgWQQwFLuaCqhROj/Pdqn/tyV8cpkPKgjXsW7tqFK7yEFOKu2yDEQvyN/aXOapgc5ko39tVOV4ztM6mS5Af1at7ZRxqOzACeq7eakWxbLU2UV5HaltUiObEI5FoJb3KOgsqkSqDWYKGMEwPDpCVWsK1FSgn1bgTLmeZK2RjFF+vm0KwyadMw0tDzqOX9/4RREoJ9R4hQjUfUUU64P4zkc+iH/7/Kdx/tlvUImhWn0Upm6pLClxW32NoeDa0PwEISWRvJKy1EjJqdnMu1AFQUuVnaWCCL62aqKsQF/FwPJ1lGVFLxNB47956ypH+wmp6c2gx0TLdHMWHxX0E12EEjL0Se43qR1T3PGII44I3vjm07/0lS996auMMVJnnxPLnAO1M39w1/97VlQ+45sFfXOW2kRKh55psNIqKEyiGQK6kSBhARrJGEIZQOr0HUPVs2ClAUaeehRfev+5SkCxh7J/Saq4URvCBLFt4Av//n1oPYuQWh5GmqEKjNM8DKIYxUIXXK8bjRZDEHGkmYUg8mGX6dmmibn9oKbiOG2lW8rk0sShXpz5ZKBgm44Na0bVv2k96gRPEyxlqQI3pZPb1m/rAJNyX6g9nDqfCbT1jciziUXU/n7cyqJi9LxLeg4mRDAVSOMEGnVGJz22OFTduKhF3kRQo/U7E7Ozv7E6JQpEXl6lSrlovPKu8WT5UcJATewOFWbieVK/VwooTmiaorBEBcrz8EpfbxWenmJhQUP29KP43l+9F//0hU/i/HPPQOiPoaeXIqx0PRqGxmoIuIDnFtFN/LyREF7RpmoorFjxOPY7cD8YBlMlVrrJEUaBUhemMVcZSgVu9CLKbSoV+4ypUUyesd60cmN7flf7In6uqg0ZrwAplUjWigCNKtlCxGGEYrmkXkQv/tNDwze88Y2XfeFzn/1ysVgkvvScWHYYqO2oCN1Z37/7kpWy9CnfLGgEahYfj6l1yqQ65Fsj5bAjYnZbKgmQIEYIUrtNkVFBnSkRJ01VauVQt6U0wBnHvw4LXQ39eYtIZRT5AlgzInHVzUtRXLgHVo014RN/W3cg6A0vNFTMMkxSqfApzkw6axZGqClMgcQop2apEahRcxM6DQIzAirivOVLbq2tXzsMThptkprO0ISiIv1ElfwogR+pj8ebJkx26p25WTOBVGk3PjXjQCyIeLuxGD2fsAQ2ZC8q2kEcKjoBgVpMjaJtC/39vWqyTXKbJshlqwQIkVVVJjb/IWUQlcWjSgpO/VXz+NQm5Y8bQULXKfs3HhxX0DEBtMktNrMQ/dQY9JnH8N9/85f41y9dgr9+79tB1ZZ+7KvEQ5bkRN6GkHBsG1XmIGtSr4UKblm2HF/60pfwX5f/F/Y/8EC0guZGIKNooWoO3bZk6dgTQc2BpeKuMwFqCjTbL6XOJ71UTUtXiRaua6pC4/+39x1wVlRn38/M3Lq90XtfYCkqn0qi+UQFlbrA7lKkCVi/mJA3nyWCriC9iBASWxIrERtCIJZEo68JSl4LimJF2sKCwPZ2+7z5PzPn7t1lb9l777KFO/yW22bOOXPmzH+e+n+MZhPFWaw0ZNhQ29Qp2evWrFm1XpIklN5oE9t5A7XzNVt5W/9nWYE7eXGVOUGuATljA6Amcj/hAU0A1TSIDz0SVSBqHSqVxUSyAZ61GrJaFHLUFJPsqibJWUVGFPuoqeIkawThIoatrKKGkuISyZqYQoaEZPqm8BTFd+xEZXYXmazJzACSoJqYFx+uSASQwhPoUtxUrdaQR4EK13hJjZNndPXRBVBTHAxu3ptWVeh0YTHJHjgDDGxTAfB5IKnp4KGBmt433+w6JNZT43yT7WsdBhqg4HCwmXDgLGcmaES5+APkwjMLUIP6aQJTicNBJgtK5HVg1fKczQtsHg5AdaOUIdLNPJDUEGCrxXAB1AySiSRvAWcN3JgiSc8lgtqqwbM4sbodglkEoNYtXiLzySP0xG0LaHP+XbRwdg6pko2siXF0+uwZMsgmSkrLoLMOO5kUEyWhHmyVjeISrbTz1d00bcZ0+uzzTylzUH9y6s8Vh8tBZVV6xXtv0r7WP8bIAcWkAXO0tvoOEXh+4cBQjAaO3dOK7RgoPt5CWVlDq8dPGLfuvjWrNqZJUll0xhCJ+BLJsbWjb3OgNu35j5Yf8yQB1MgvqCFOjaUsJ1mTDWR3O8nukMjtNJAix/GN4qp2kL2ynNqlJrAHVUEyswuBnk4O9uTUF4+H2rfrTCWnzhIYyDpntGcVpbC0mJK6d+MKVC5VJovJQlZSCLmhsEHZHNVkl21ksiK8QLvZwgU1BRXRoQorTnIqLvLIkMJ0w7mq0JnCIr5pFI8GagA0qJ+QHjSngIWlOO1mqEUyvdBe7UrxIlndGxBOAkhuLpbUNHYQqI5gQgFrBaLmET/ndtawZc9kNpLNaSOT2UztO3YiF1KZal2sXvucSNcCxYQTDxKXm5weFDTWaJCYeoKzB2ptUnxJdUkSkibGhcI5AkS0kxFeWrw3kBFBwXY7dTDaiQ5/Q8/fPp82r1xCP795JklGF5VVlVElYtCsCfTS9tcIZrPU5FTKGz2WKotLKKNjCr333j9o7ty59Pbbb1PX7t04WwEqc3mlFi/nlRP5PGvjyHCOUAd97WKNBZZgNzAeCrCjIUAYdSnAG4gx4LtBgwbVTJo4fl1+/v2bk5KSihrbdzT2jyx2tWEQDDYn0Rj3eW0jb+sHy467kxdXmxPlKreWkwg1zCUhtACnC7ULkIQnvoNq1DIGAb45PGYyAn48ZrKoCplg6HY7KMGqVaQqAlhlpJFqBF2Nh2ocTqoqq6Y+3XpR8bHjXPgYdiKHpNJZp4PSu3ShoydOcECoAzl9lZWUnBJHlkQDlbsqyOl0U4IhkRSIOn68d0bFt5hxKqmeWpJI1Mc0uLWb2gUHgCJUUP02UmU6XXiW7UHM8cWBtB7el9UgH1Dz3lj1HvVC4tE8qjqRo041zsnRuuFbk9I0YBOSEmxpXCcUsW8Oey2osaQGUIOkJpKy6qqIAnxw83lUFzsKEAwsQA1ghVxKxPLCWQJprRYcNYkNGxTWc0FNW5IAQHuVgynOuiQqREe+pedvnUdbli+mBfNzye5AmT2JalCImYzUuXMHkhKTmAb83b+8SWVFRdSpczptf+1lWrRoEb3zzjuUmTmQPb0V5VoFr2+/P+jzYKh9IIji00YvPUp4t0mwGxglApELi3lDMC9yT2GPtFhMNHDgkMq83Jyly5bl/06SJFBEt4lND+Kp85Bu1Sc2f/e+RV+XupbbDcnxZTYPJcYne21KbAtCHCRzMHpIld2kepArIGK7oE6BFBBqnXZboCYk6HLAa4anLjxiyB8EICBFRvFI5HKAJtxEDreLqkFVnZxIBquZSspK2SYE3jF2qUNFhKEedSsVAIJCFqeJ4LCoa1mqVZUQD2s0KUx/beUwAYMe8e8kRFIoqkkzOLMxWjtOZSlMM54jf9HlcnOOJdQ+tkuBz4HVN/yJxCj9kHrWKZ0iQq8Cr6mUosiLFl8nQKM251CAGlp0IngUhh2Am4w5NJDZqgXBchQ98s7qbdqiPEf/rTdHIgZY9/7qklnwxesrjRLJLhfFmySSUUCn6AQ9N2caPbr6frr5ljwmy6yoBKAhwLaKzhSfoYqys9S1azdKT+lMDruTUpMT6O13/kYTJ06k/fv308DMwWyQR2YF5vvMGV/7+7lqJnJbMRd48OE4jcEjngFIqz/qYZteamqaRsUhSbwfqmuhD2FrxGeeNT0DBPugXaicXHRHUfgV7UF6M5lkBrXcnClLHnpo6WYJQYRtZAsG9K3qNCHKTtz61v2FDtNiSuhgUqwZVF5azZKaQU/4BaDBqI1sA9yeMCNrMkjDG4OAB5KGkxcG8guxcEQdTdmp8u9Gaxwz+pVVVZNkMDAA2mqqKc5iZskQBnqP7CKXDFDTMhTgIbQ4jGTw2lRqpRXNU+ZhbjOTyUhxcRaulQkgwPpDnxyz5TFoCo2vIalWvCJbjZ0ZXZ12qM1OcsOIBYcAQjdANW531hqgfI7z116d7wUA+gn4xLDEfIlcRoA85gZ/BqOQHkXcQuNfOYuxsePW90fQsMHpoDgzYsWcFF90krbOzqXHVi+hBbfmMqhZjElUePIMKWYTU7Enxhk50NbhNFNRcQn17dmL3n7777WgNjCTbDatgDRATStF6H8DGIkMB0h4eM+eXVTscrn4ocilAK1Wbi89PZkqKmroxIkT1K9fXyovr+C0LwAV9sXxmFtsviAJMASooU3sazYrkDgrp+XlLV6+fNkWCflabWRrU6CGazLxz3/79WnVsqLEYzYr5jRy46aHJw7ZBFBHIKkpEoMKNoS/ivAD32sqJobBQ5J44eAV4jwWDp6oJlQ8R3gB2GItVmZZLQdxvgTxXss38Lg0LyO71eF5VDyal1C3e5ncCtMXaZtuX2PVUAsB0BasiUEtLt7CC5azmfBEdsN2ptFN+/OeIekeYRMuF9KfcNNoKqgWP+Zh1pHGhA5o1Qw0u4w25MBLCDekkB54lIgvQ7I/aLJlmZwc5V4bghCpF7AxxyPIOBioqS4zVVbVUHFZGVnjFaouK6KOHTuSm+I5Fz/Rag0IagDAYJuYD0hVWG9FRUUMPniAwdDfpUsXBjWsu4KCAl6HSH4X9ESwl2E+AaCoyYDPnK6m8al5gRVtiHbRdr/+fStnzZx5//LlyyCptTFQi47TIdi1Oy+/z975Qe4PFbZHy9zmdGNiGlf6hhqGWxBeM6igADQAG2wxqgPSzrlqgRDGsYDE0xKvWsJ0BZWXl3NBXqPLTiaD5vWzOZyaYyAugcygl3GpnDIjNtixNEBT+RXTDg+YV/DnNxroiJgmlghNBopPsDKw4SkrQI2lH4BiAEkJi5cdBLoqw95DkaSuS1KRXRgfcGtAYnLBFSiBeBJnhv8QmY9z5yx+Btrm2jRQc5HFjMCTWknt0TVLaL4uqakOE/344xkyWMzUrn0yyW47X3uHG7Y+ooyU1ICg9tVXXwU8PSHBYl1lZmYy0OMYLkBtNjPAjRgxgt8D0PCQgMRWWFhIOTk5VFZWpnm13W6NtcRmY2DDwxdURlBdAWbY8KDFsVjHDGr9elfOnnXjgytWrHhEkryxQM11OaLWb5uT1H797mdX7Pny8GYpOX14asdu0o8/nq2N3eF4LomlJaYdQ24iCgfoAaiY1foTwkneuq0CaiASv7GosZA6ZqRSdclZijebyOn2UFWNnWR4OuOSyOlSqbICcUwoVKwZsTn0kkkQtej7c2xgPkGi3Kl+0wPU8BSG+glJDeongxPK3SEGTQ9aaGhViNxH398EsPmCW3gryudhUC8+SsRJwdbIkfTsJtCof2D4Vz1a3VJtfptHSGBHhstFVhSYUZ1kLT5JL8yGTQ2glsOq/8ljxdSzd08qKaukdmkokEM0duw19PL2t6iquoYSLJDUYFObpNnU6qmfhw8fDji1kLggzUGiysrK4uv77bffskSlGfQtbOjHQwmAdvDgQQYpSHUAJoAh1gbADNca74V2gd8BcP5BrU/VjOnTV6xZswoZBY2iHorMaxneagt8VK1k1uZA7Zkfiru/seeTqaUOz1S7KvdUQJVAEsQ1SZJVznbxyJKMoj+QrmQJWXwIw8fd5cEueAUQKdhTlg0yCv9CXUPqi8fFaS6eOGuCnGi1UNGpE5RkjWe1DiX4FIOJnKpC5VUOqnGCKzBNSyhHPqNeJErjv9KlRqU2GNN7c3tFN6iH2lMVgIYFDpZW8WRmUGN1UI8X85qX4OjQQiW4KVniRGtOL0KVTjgtkDZDKiGNyI85LvD3Is5TT3T3Z9ayVdeQpGgpTVqwu+rtH+NAMG4o/QtfTqPNZ8INpMet+R7vC2oeclJckQZqv4NN7TaAmo0UNZFzf83/SS96aPkD1KNzO5aK5t+8iO2VGWlpASU1gE6gTRj+YWbo3LkzgxMemt27dyYXeNyqqunHH39kdTM1NYWOHDnK1x/gBSAUlEUAOdjx8AepDgCoSfkwXWh2vfrqZ//+fWumTJ68ZsOGdWskSQIZTZvYWiCoRa4LP/n58a7HTpe1Kzx1sofbpaZJKiUbFNWkkgeU8LKqIGFH1bNTFLeKOFs2nfHtpaiSxyC7FaMkq0ZFNkg1tupEg9HsklS3w+X02BKT44+pHtV89PDRcSYy/dRitFhY+pFAB6RQabWDVFMcdezRl34stZFDNhKor5klREhoUEVlj6YKewUeXWLxAbWkpAReuGaLUbenyayyaSEObm81pga9lBIxoaJkUMikGPgVqUWi/BteLUaLntakp1VqhPh1vZ0BP4vc04YtYw6bjZ8X7LXVWVjdLGW6OVPAYkL6lhb027h+I98flbeMTk1SA6hBUts2O1cDtVvh/bRR6VkIMDLFJSVS8dlCMoG5V1EoNbUbFZeWUVpKSkBQg30r0AbbrHAWAHQgtQGUMjIyaM+ePZSUnETdunZjiQzqZ69evWj58uX06KOP0qeffsoS2xtvvEEXX3wx9evXj06fPs3jE55uABqO9eMosI294YaNmzZtXC5JEsIA2sTWAkEtoDbVqEmHiKwfIL9HJLVrIHP4DJHcTheRfEuNHdc10a5EahmSDDSiVxQU8VxF5H7vDMW//ffXr1lxzwObyK324Hwfi5WTnqnSRtSzPw0dPZYuu3Ys1chW5vJ3CVZXzgPUIqicqHjObKXnAhr6w5MX0pnwFmJxMmMF852BZffckAjfSWJ2DEUjIRQ00ezNFWlHkWp+Aex5GAckD9E/h7cA2HUbEMahMEtkpINo1LLw7ozqW0ank6wmYx1Q27J6CS3UQY1ccXT2bDER8745uBAPs10YUuhscQl1aNcuIKh98w3KVvvfMAcAHeHBxHXB5x9++IFj386cPk1vv/MOgxTUUNjSZsyYQVOmTKFf//rX9PXXX1NeXi6NGnU13XvvvSzNY61g3WDu+/fvHyCkY7DtujFjNm/atPEhqQlYOppLRW2ZoBbeGj3vRz3y7AuXLbp50U6SDR0kqIUYAW7yhBQiUzz1vX4iXT31Rio3WKjKYCa7BOpuJv/hMA/2iSLv1NeSVydcSNzs/m/6Zr+AQUBNvygiVqOBawSAr/t1gJ2jeo1R00GqqaF4i5FcqoPiigrppXkzCaA2/+Ycdh4A1E6eOs0BuO07pFDZj4Wa5GxOp+TUNHYSvfXW32j8+PG0b98+NvYDgCCh4aGD7ziSHywjujoo3gO84EkFgKFNFF4BuCG27ZZbbuH9IZUNHTqUjhw5Ql27dqU333yT1q1bR08/8zS1y2jHUt6///1vuuv/30VXjbqKbr/9dlZV8Ydx4CHSo0cP7YGGP3jsrVYyGBTKzBxgv/666363atWKVUlJSTE+taiurlba2FNPbR1+y8Lb/6FIhlQJHk1SyQHhMDGZyJJIA8ZNpp/lzKZSUzxVGi1kk3WeMCZo1Co3qUz+zV4Ln4BT3xAHfXL8eNwjSbGJzrRHkrfYPBKaOG/mn2Njv5GcqoOsxRqoQf28SQc11YmYLgudLi6lLl0yyCqrNHLkSHr11beYfaVdempAUINzSUK2hV4VSsSQ4TMAB8G3ADN8hnSF34cMGcLey127drG6CUDCfpB0UTVr2bJlDF74DO8nslg+//xzuvLKK2nSpEn03HPPsRoqqlNhP4AlvKNoX2RlXHTR0Jprrh69ZeXKZauTk5OLo7Memr+VZn/QN/8UhD+Cbdu2D5s3Y+Z/GyU5GSqUkzzE5MtJqaRakyhz/BS6Im8eFZkTqUKxUI0BFEDMLqjKHgecEmRQUZ0dOYwa5Y+2NQBqfsWX5gWGgFxgIU9t85yDAYbUGg3UwH0GUNs2bwb9bs1iuumWHK5jWlaEEI5qSkxNoW0vPsvqJySgiRNnsse7S6cOAUFNgJkWNC15pSd8xgZQAtgI4IGB/xe/+AXnkb766qs0bNgw3gexatu3b6fbbr2VPvr4YwY3qK6Q1DCeJ554gpY++CDd+5vf8PGnTp2ibt266aqyP1AbVj1m9OiNS5fmr09NTQ0eUBfy9fTZMXITeaN7DQxqzTCgRp9BMx6wfdv2rBkzZvzTJKkpYKAAm0QNvJqJKaTGp1Dm+FwamTuHis1JVGGIpxoFtD0ImHWQQbVzJoHBE6cTBYoTCfUGr7XDIUVKXCrtVdJyW33kv7q/18qFEX8fxPsZmrey/vijOD4fAqX684GEe8lm1yQ1HdReuGkGPbp6Mc3TQc1RLVFpeTXZ3Hbq1b0bnTx2kEBn5HKZKCWtHcVbjQFBDaqeKHcHcPr+++8ZpGD7wvcAN3g3sR8CZhGCkZ6eTgsWLKCvv/qK1m/YQJdddhnbUEePHk3z58+nefPm0cmTJ6l79+4s0a1Zs4b+8OST9PM772RbG5wPXINBllm9FeonJD4Aq1A/B2QOqMqeOHHNvffevbF9+/ZNynx7Pu1rMUktAlB85ZW/DJ6el7vHIMvJZnCUqR6qgcMgMZnc1hQaOH4q/SRvARWZE6hCiSO7osVqoYiy0WPjauqKB+pnYGN/g0P0SnZaaEi0vYcCjIK3q1UnCIviEDmozeD1FPPFCfl2B8VZzeTyOMhSfJL+PG8mPbZmMc3VQU1yW6jG7ia7B2X4qshZUUqpqelkNCZTcWkFde3cnkFtwvjx9GkDNjXY0wAkALH6oCacJgjhALhB6mKqJbebg28feOABtsm98sorHJC7+L776IVt29hehrYGDBhA//jHP+j++++n6667jm677TYOtoXKik04ifyBWmZmZnluztRlq1atQEJ7s4R0NAXYxUAtAlDbseP1QdmTsz8wKkqyCXQ+qovsbpWkhCRyW5JZUvvp9PlUgopThjh2FMBBoHgcZPbYmb1CJQtTbQff/NmudFbV4A0E2SMcWPJp0k/wbX3SwnM+e9XtiE+g0Q0gqRgTKgAAIABJREFUpEN1uLyghpCO5wFqaxezTQ35oLInnk6cPEPmBAslJFgoyaRQZWU1S2pni8uoV48uASU1ptJGOp4f9RMSFexdCM2AGglpDZIWQBAhHPBg9u3blzZu3Miez7vuuoszBUSGAQDrgw8+YCnu7NkzHNcG6Q3qJwAVQOnPpjb8omGleTk59y9b9uBjkiTV8qo3eib9HRAtVa9x7YQIar6NNq6DqM1PC2xo9+7dA8dPmLyXDIYkC+xhHhc5YACOSyS3NY2yxuXST6fdRGXGZKpQrBzSIaPClQoWXRtXYHIbLByY67v5ms9q358Lal7u+zpHh3t9wgM1Lwtu2KAWqrrd8AKIxFHCM+XwMPuJgx0FGqg9vkZTPwWolVfZ6dTZU/SHPzxGttIi6tdvAM2cuZDiE1OCqp9CzRRFhQFG2IR6KJwFADWoizDip6Ul0b59X1CfPn0oKSmOTpz4kQEPtjcE4B47VsDSGsBQZB1AQkObffv2pNOntfdoU+SFNuwoGFYyY/r0e/Lz73+yBd5eYQ8pRFALu/02feCOHTsGZU/J+1AyGJJMnN/oYI40Q1wiOS1JdNnYqTQqZzZVGOKoRrKQG1Q/HicZPG5mW+XFrSjkRKQ/kxtqtQFqX4OrlVqeaG24PPOehWbIClrUI5SLV78ieCjH1N2n7vhDSi/wPV+gaqjnW38/vgBupnVy4bqUnqbfLZxLj61bSjfdPJ1DbwqPnSGzNZ6s8XHULiOFBvTpRf37D6BXXtpNh48epd69ewaU1JA65S+kA98D5EQICLyV8IBqDBz9vPF8sLP95Cc/4cBc2MOQD3rgwAGW6iCF4Ti8B8AhIBceTgAg1Fq8+lM/B2YOKJ4zZ+5dDzyw+E+Nv24t6whfNTYGahFcmzfffLPvDTeM+1yW5TgEyCI4EguptKyCPKiMDa9mQjKzdhBYWmF5YtELOUa6hGLUpbQGJZ0AVm7RDsbfADd9ULUvtPiyEGYnCiEd4Y4/0uM4wd6jGQTdHs7asBeepN9v2Uhz592oleIjhY33TGyAAtJOO9u8jAYrOVxOSkvNoL+/87Zf6iHYxGD4h/oJOxjsXFAJ8RmqpZDY8Fnkd2LSNWO+gW1kkLgAXHjFBnBDyIbwnMIzit9hhzt06BAfAzCDhxSqLGxsWoqdxn7M9UkNBho8eGDR7FmzIKn9MYQL3Wp2iQqohafwhHdUS5rZN954Y8CkCRM/MBgMadUoKcS2EzM/MYE5vHC5LqXmkRSbIFnkfAfEL9XenKDjBW3IOQU0/IKU3npY/kKtMnAw5Azwu8/VCFv91GYnrPFH4ThJAQuLTM5KrUJcRseOtGrVKsqZMpWBrKKsjCUfLsfn0Kq9w2aFtK+yigrKaNcpIKgJz6cI50AfGimBxAAHIBN0TFxxXk9/ExkfACdBQCDsc/wck7T6p9g00kd4ZDX7HMBSsH/gO9jgBCcbwExklgwZMrh41swZ9+Y/mB9TP1sSsDTnWLZv3z4wZ8rUfRaLxQx6aiw68JPhyY5F2b5DBzpbUhv+U0tFqS1GBrWQQEWcZUM3fwSSWmPAsyHQqjP54YJjM44f6qi9hiw6USOzwhpNDGpzZs1iiUqRFTp85DBZTBoJY/t27ensmTP8Hte5U+fuAUENEpLwcqJ9X+onLd3KoLEj6+lj+A7qKP6wP0DNNy0OU+6b9ibAUZBLivg3ABvsaZDi0A6kO2QwQAIUYDh0aFbR9GnTwHz7WHPeR9Hu26+k1hSu1mgPvrnb2759e9ad/+/nr5SVlQ2AH1MzxibzwoXYL+OpKIuScrVq2rlxtJEZy5uLZLHueYTjaGgo2DhIO95QlnD7q3scHkbYIMmkpaTS2dOn6fEnn6TZN97IYIBIfkTso9r67Nmz+RUG/LvvvpsLLaekIvfTv/rJUh4kd50tmVVan8+CCbg2SBcSl5PHwySaeu6ukK4wVsGUi1ccLzbsLwBLgCeOE7mgwoYn6LSGDc0qycnJyV+5cvlvm/teimb/UVE/ozmg1tTWjh07hmRnZ38sy7IJT3XY01iFycjgJ+KZorO8KDWxzLfohuYA4K+ZRTbSLexIsXAjzM6tKh6R+tl84+ekeqOR3C6QRZr5ej3yyCMMYLj5IfEAOM78eJpuuOEGNikgGHbTpk0MICZzPL3z9ts0QdQoqMenhiBZAU6aZzONbV3oBzmeooQdpDFIUrDL4j0CcoXnEqvDlxfPlw+Pyw2CGl23l4n1JijTMX7kjApiSLQjyA0GDx5Ymj0p+6F161ZvjNUoiPQejOrxzWebe+211y6ZNm3au2azOVEwywqqGZFQXFXTMKOLVhIP9pSoTkYzNBb8BAJfodCl1IivdAMNSIpWMwHg4HQ4qGu3bhzMmpuby0CSnJRMhw4fqlU/27dnMDIoCpWUllLnLj0CSmow3AOkBDhCyuvduwfV1Dg4SR1/ABnsA7BDQjyACewb6Af2MH746YzFgtgTOSNcr1ovGei7jwAuAJkW5tGXPbCQ2jQTiQaCALWJEyasXr9h3Xq5hTHfRqIptjFJLeJlfw4oBJrcF1544bIZM258v1evXqYjRw55Oavw9IUtRTMENyyJadRtYLBtBhyKdalLycTSEcIosAkW2j/96U80Z84c9iKigLIInIVKiGubnpZOJrOJTQzJSekBQQ3ABODBWgDYQIrHHz4jNAOSnMjfBPDAU4l+jh07xkArVEpR/UtQs0P1xHtRuwDgJRwJonALjsE6hGcU+wpV2KAYSFZkysoaVHrD9dev27z5kXWSJDUfr3r02Mb4OrZ6UIsE0SO9t5955pkrbr31ttc/+ujjxKysQV7+dyxGLCatTJlW2SfkLRLenUiODXmAfnaMSP303/k5pxTgHMM7fZnVPIADgAaS0YoVK5jLDN/DVgrQw/WEl1FIXQAQ2FA7dugaENQAmlqxHJnBSlAS+VaMAsjhe7SH/QVXXseOGVRWpgGuL/W673sulqzz4wnPKfoS6qag9oZphCnh6zgKBpeOGT1mw5Ytm9c2ls470uXSlMe3elBryskJ1vazzz579U03LfhLQUFBPIzJHL9k1IzCtUbc+uqV72ehuonX8G7LYOP0+b3JO2jEWFrUrgAcPIQQxPqHP/yBbWoABEhmAIiKqkoGLzgOkEh++eWXszqXkd4xIKiJAio4WTzssDYQX5aWlqbigSzqeiIGDZ5K1CcQLLXaejJ6E98FKy4kO7wXXlO0rZGJGpgSHK9C+kR/qBkK5wNAWYAp+hgyZHDJ6GuvfXjLls2Q1JhgJrwt+hpSeOPQjoqBWgSz98ILL1wza9YcgFpc+KAW3CYVwRBjh4Y4A/5ADaCA3+DpHDhwIIdY4HXHjh2sNqoeJSCogecMEpLIvwSIOXWnBDMXGwwMNtgAgNjQB6Stiopystu1eigAW1GDFp8BwIiXw9iE7QzHQX0VYSD4Hg4H7Ie+6oNaVtag4jGjx6zfsmXTw5GBWoiTfJ52i4FaBBO9ffv2q3Nzp+1qHKjV7RCM43WYbyMYTzQlsgtFpEMtGGz+QE3U4QRAHD9xghJ0vn9Ia6wuJqBGgf+QDqiVHAirKOxhFdQ/IpMAwIh2RGwavJ+QBjEeqKX4Hu8Fe4eIR8PxIiYNYxSOCAAYxmqz1ZDHowFyQ6AG0MzKGnT2huuvX7Np08ZNzW1Ta+yyDyQbRh3UWpYgKqaqaUYVOahpCcxNAGqNXSMX7P7BQA22NHgo4RRADiXAA5sIjJVkU0BQw/FCjRQ5ngKgoHICgEQmAWi9YdQHmAGMBCWRiGUTaVWwu2HdQMUEKALgsD82ka0gqknBPudPUhsyZPDp7EkTlq9du/b3sbqfF+wtUPfEX3755WumT59eT/3UCnPUD4z0N2W+Rt9g09o00Bys17b9u4j/8iep4ToCTAQQOWxa7ic+19htlJrWPqhNTQS9AqREIRpvaIYkcR4nYsl8g2ch4aEfvAL80J/wfHIeqsHAvwMoBQOIsJfhFZuQ5uqCGtKkZO4rK2tQYc7UqUtXr175RFu6ylGX1NrS5AQ7l1dffXVUXl4e1E8fRwGShrWob99ob79tsaQWbvBpsBHGfg82AwFATfV4PBKAQUhYq1evpqSERHYUzJw5k8oqytlRcG5Cu4Oqqir5uM8++0wv2KwF0EISA1BBogLnGWLTwMoB6m3wp4kHIr4H0CEVCxuAD8fDXuYrlUEFFaEfACoutgLvp6LwfoiLC2BTOzp92vT8FSuWPRNsnlrT7+cZ1NqWrLF79+4rJ02a9HpBQUFCraOgrqQWKAyNZ0N1M69aeNyxTbfULgSbGp+jpJEPOPx4PwFAAIvK8grq1r0bJSUmcYDs7t27yWAyksWcEDD3E/Yx/GEDWwdA67XXXqOLLrqIjfqwpwEkUcl97NixXJUKJfDgGACr7TXXXEO9e/dmAISkhzZEsjvaFI4MqLmQ0IRtjSmNnA5KS0UR5HMdBbqk9sPsWbOWPPjgA9uabiWd/5bPM6id/xP012M04PX111+/fMKECX8rKChIDBfUtLzNQKAmRtpQrmPzzmcDwNcKsVArbegP1OCRBHCgkj3UQCSzg4SAI/kVmZIS0wKCGuxjYKxF/BuA6i9/+QvlTJ1Kt91+O0HyE3mZ7777Lkt/77zzDg0ePJheeuklWrx4MQcB33PPPdShQwYdP36SgcvXDicojAQZJcaLfQBqALggjoLv5sy+8b78/PxXm3clhde7vxjVCxbUwpvGukft2LHjstzc3HePHj1qBajh6QcDsiieIVz2wftqeZJa8DG3jT1804xgVEdw6ubNm+nmm2/mIFhIRXgFOABABPWQUPVSUzICkkSK4iqQ+D766CMGrnHjxtGLL26jEycKCQn1sLmh3sCgQYPob397k44dO85g9+yzz9J9991Hd9xxB/3mN79hoEKWg/CYinzPQFcCTgUBfIIGXGQjDL9o6FdzZs29b8mSe3e2hqsZqiASA7UIrua7776bNWrUqD179+5NQpKzoIvBgkSAJcR+b0J7BP2ch0N9JKxQl05kowqnl3COCTZKXB+ACoJZcd0AAn/84x9p2rRpXq8k1Ec8rAAKsGuJBHV4RHv26KOD2jjat++zc4oZI/UK+yHt6ZIRl9DCBQspPz+f7WgXX3wxFZ46SX//+9/p5oUL6amnn+bMhVGjRgk1Un3kkUek9evW0eIlS2jJkiWsygLYoI4Kh0CgcwQQQn0VnGuchG/Sslz69e/zxU1z5y958MElu85vQntTXMnaWYiBWrBVH+D3r776qtPIkSO3bdmyZdjIkSOTEc2NJ31JaQmlpqTyjSLYSiPoJuqHNu2Sivpwm7RBPIjYk6l7GwFcv//972n69OkMGoJ9Bd9/+eWXnB+KfWEHQ95m1y49AkpqAElI7AA1ZCnAhgbQvOqqK+n06SKyOx10/fXXswMAxVWQD3rFFVdw39988w3NmjWLQQwcb3PnzuX3kBaxtgC0GH+gDSDmD9T69+uzf+7c2Q8uXbp0pyT5qZbdpLPfNI03GtSaM9eyaaYg/FZVVbX+7Gc/W1JQUDDj8OHDXJfs6NGjHM8kNl+20vB7ahFHthJ7WeOGKcIicPMj7gteyIcffphuueUWNiNA4oYnEhIS2C6grqISOgoNAwzj45ICghpsaiKpHX2NGTOGjh8/Th9++CE/8A4e+oGmTp3KNjQ8FKGGAvggiQHQQAf+8ssv04QJ4zm7AFIfxpqWlkplZeXeJHZ/KwTrz6/6OXzoF5OzJy9fvXrFa60t+DYgkEfvdrkwn/8ffvhhz5EjR76/atUq46JFizoKrqqaGiSza+kvsa3lzoAIYhXMszAZPPbYY7Rw4UI28MPbCFURr/BGIj8T36MQCgfkdu8dENQgeSE0AxtoiCC5oSDxpZdeyo6CUddczeEacBBAGoSkD0ls165d9Mtf/pKef/55Ln8HwBVOCwAVwFLY14JJav5AbdjwoV9OHD9+5fr1awFqodX9bObbPBShqtGSWstdns0zssLCwriXXnppxKJFi57Pz8/33HXXXT3wBIcRF4se6kv0tsZwVtTttXHyS+gjbqp2/Y4gyh0CUABYsK2JgiRQD+F1hAoINU8QOfoGSgs2jWCOAmQjIP4MYAhJDeAJoEOfAKW/vvE6E0NeffXVLHUhbAP7Yh/0B0DEOhK0R4KSG79jgz0w0Ab7mV+bWr/eByZnT1n9yCMbXpUkSSuy0Qa2GKhF6SLec889wzZs2LApMzMz/pe//GWnXr16Wa+88so03BSRbFG+hwMNBV2BUwt/IIGDSxbrw4jiRvw+xMGEuFuo0yLGg7GAuzqMcvb+uwLQICD21KlTrrNnz9rHjRsXv3r1Gho/fhwb1GG4R1I4VEIRZwZpSuRqpqW2CyipfffddwxS7733Hqu2kMYAoGgT0lZldRUDE/qBNCYKqmBc8KhD/YRaivdQgdE3gA0qLCfUByHkCwxqfb/KnjRp7V13/ddL3bp1a1GgFopE5u+qngtqzSxehrrSW+J+e/bsab9s2bLr33rrrctSUlLcpaWlHUwmE+7xOFVVLbIsm1VVhetJ3JwIPsOM40+8x6mJ73xfxfe+p462ff/Eb/XbFJ/F7wAsABdKXQnQsKuqWiNJUiXyu3XwgBjQk4jaIXY0gjkPF+cwFvyVgV1HHxPmz6K/950/DK9+rLNY3/Vfxb4eRVFqFEVxVFZWphkMhkRcm+eee84MRwGADJtgxt27dy9LTACZ/v37s82tQ/vOQSu0A3gASlBbAUr4LNg5EMCLDRKjqD2AfSGdoV9R5xNACNse9oGUJryZwWy2IqQEMWvnhHQMH/bNmNHXrr3vvntf7Ny5c8MUzRFc9FAOjQS8Qge1UEZyQe3TeJQvKCiwHj58OOHUqVOK2WyW7Xa7ZDKZZIfDIbndbllRFMnpdEp4rayslHTyQewDlcf7oJFlWdJpZPg7HCMkBPyG9waDgW9kvApXPT7jd7zquYFSdXU1+ubv3G63iv3NZrNHlmUP3iuK4jGbzW4kNuN3vQ1DTU1NpzvvvPN3W7ZsaWexWLqK2pRQzQTTRCTLQVBZi2Iggm5aD4P4ePv27Wfuvvvu/JqamgqXyyV17tzZXVZWZrTb7bLBYJDT09NlETbjdrs9OF+cJ/YV54s+BKOF2WyWcM7iz26387mWlpaaJElKuummm9548cUXLZMnT2bggT0NIAMpSjDIjhgxgoNoOW0pITVg7mewuYH3U4xN5HCK9DoRJwdg8y2BhzaxLkTKFMYmckoFCaSwwUG1DeAo+Pa6Mdet3rx549aYoyDYlYr93mZm4NSpU/F33HHHU+vXr8/p2bOnhBsZdh+AGtSmOgVBmG/Ev0VD4yM593dR+xKTJt4DnAoKCirnzJnz1+3bty/o2LGjRgHbhNvx48fT+/btu3/z5s3tc3NzDULNhKoH0MUrVD+EdEBSQ6WwlJTA1aS++uqr2pKmDYwdld91IPbmiHIxGL0KFMBdgJ54oAmKbqjDADaopfCWVoIoUs84gDQIkISK6t+m1ueb7EnZqzdtevjPTQ9qjRcOwr3UMZtauDN3gRx36tSp9vPnz38uPz9/zJAhQ9j2w+X/ZJlv8GDqT7BpAigKjjCRzC2StE+ePOmaOHHi2/v377/B204T3htFRUVJ6enpRzdu3GhauHBhHAABti+kN4l4toMHD7KNDBunLCmWgJIaYs0CbYpRq5quS8b8KuYUcwNgEkG2kNzwh2uAeDmEhEASQ8gIVFuEn2AT9OF4D6kvQJzaNzk5U5avX79+W2TUQ014UYItoAZ+j4FaGJN2IR1SUVHRfsGCBS8sXrz46n79+rEtR6iKmAdRrzLcOcEN6wtqgi4HNzZu1uzs7Df27t07Ntz2G3NcWVlZWnJy8sEtW7ZYb731VgvnfBqNBGM/7Gc9e/b0VlDHPEAttdW4gtb9DDQG0BcJDjSX08lGQfSJvgX7hqj+xKy5euqWUKkhLYvCxfhd5IWK9C6M07/6OeybydkTlq5evfrF85tR0Jir0vh9Y6DW+Dm7oI4oLy/PyMvLe23Dhg1XgFVCVAdvDGdcoAkTxUJw44mbVnCHAUguv/zyDz755JNxqampkbmRQ7hqJSUlKRkZGQefeOKJpPnz5xsFzz8yBxB4CxUPQPbpp596Qy26dA5cIs/XztngEORaaQwSGDaAlKCu0u2m3rqeYr5EupbwmAp1VfQnVFWo0IFsajlTJz+wcuXKl0KYnha9i6/DIQZqLfpSNf/gVFU1Z2Zm/mvXrl0jIKkBeARFdTRi8ATvvtEI0kMPexd9GScGDBjw8f79+ye2a9fuZFPPhg5qPzz66KPWhQsXWgEuQjWEeofaBACVSy65hHbu3MmOA49bjkj9REI7bJRQJ9E+NtT8RAwbvJWi9J2oKytqeopYSFFAW6iv9au0A9AC2NS+nXXjrAdWrnwoKqDWUpTQGKg19Z3i2/55uurRdJND/ezYseOBQ4cOZSCkADe5oLQWhvRIplCUeBMqrWCZxc0LaWPo0KEf7dy5c2FmZub+SPoJ5VhVVePNZvM3mzZtSpk3b14CAAVhHQi+jYuPo927dnuLmlx77bUMOMGqSbGjIMCGEnx4SIhCxtgVdjiEeGB+DQB7l5slN8y9oB4SLLfC8wvQY2p41EOQZW/VKOwXyFEwd86spQ899FCMTy2UBdK69zlP6NMKJqmgoKBft27dvnQ6nSauWuR0ksFo5LgzX9qecE9FSCBoW0iBQgoBqOXm5n78wAMP/HzEiBH/DrePUI8rLS1N7dy580e//e1v282aNSsJ48FYkIyODZKZ8P4KGu1OnbpoktqEbNr/xWc0MHMQ2ew1VFVZQw6njah+PVQOR/R4v3e5VfJ44Aww6jViZbLZqglRNbIMEkiJJAnvUcuA5TFyOlHOz0EOB2jGrfw9jhe/++5vNMKmBvJIByUlJfD+breT2x0+fOjX0/JylkUF1FrQLROT1EJd8Rfofq+//vr/ffnll59+/PHHEc/BswDJAqEEvqEYTTU9d99992dZWVl3zp07919N1Ydot6CgIG3AgAH/s3nz5vQ5c+akQAoSUqmQgnwlInyHrIBt27bR4sX300svbaOsrKFktZrpzJkiBg+AiC8JKMAEn8Wry+Vh0AIDb/1X7AcwE/uDJZmrj6mIm9bAUYAePovjRX/4bLc7yWAAzx+Yd1FSz0lVVRWwDaqXXnrpvuzs7DWLFy+OivrZ1Ncn1PajAmotCKRDPe/YfiHMgKqqhvz8/Ft79Ojxm5kzZ3YRkfDCSA31K6ghPIR+Au3yxBNPfH7mzJl1S5Ys2RphU0EPB5XUoEGD9j/++OPK/PnzU6G6iawCAWqi+In4zEwd8fGsLsIuBsM95gXvRdEWdCxsc/XTmsSDwl+6k28cYEMnEEodDJERgVfY4DCutLQ01yWXXPLJqFGjHt24cWOsRkHQ1RHbodXMQLAHUs+ePd/auXPn6EGDBklCRRQkiSIo1Odkw02H8jtfX3/9deHo0aP3Hj9+PKfxYQfBzq5utwBxWZaPPfXUU6kzZsywiBg6sZcvsAkQgiSHeUDMGLIPENMGkMOGvF84PXwBqw54qcQ2M1/A8+0DbUAyFMAmHia+n0UWggBOcbzvZ+FZxivYY6xWCx5G7uHDh79zww03PLl27dpXmnrBRtPOG2ysUZHUgnUS+711zsAXX3zRIScnZ9fHH330fywwWnNZNkS7y6yCwpDd1JvdbnckJiZ++913343p1avXqabs7/DhkpRevVI/27ZtW4/s7GyW0gBS2PxJTAARSGeiSjo+QzXHdwLc6o/ZF9gCSWIiK0D0LzybwY7xBTZIm74OBBEigvGNGTNm25VXXvncunXrXtdOsoHs2aac8CZqOwZqTTSx/pptTetm8uTJ/5WXl3fjf2qbXizICUUiNj6LQrmhTmE4YhwklUWLFv331KlT77/qqqv+GWpf4ewHGqnevXv/NScnp/vFF1/cSVEUQ0lJCVLDkBOrgh1W/8NnkAK4EhISVIPR6CovK3NBFS0tLVWTk5MN1dXV+N2I/VQV3gLvxg4WsXHembZ5iQnQFza8CknMZz9xKDfiA3AiuR8sJmgA7SK/WNUpj9T4+Hh7eXk5CAx+VBTl23Xr1qUsWLBgw4aHH/5AliQY6trEFgO1NnEZo38Se/fu7XDbbbc98f7774+Jj4+3OJ0uUlUtYh1/ULsAapBKmnLDTf35558f+8UvfrFz9+7d96elpWm5QE2wff/99+YpU6YsPHr0aLbH40k3m822ysrK9gAmWZFdsiTbZVl26Nxj1ZIkVbvdbsXtdpdXV1crKSkpPyYkJFRWV1d38ng8cmlpafekpKQiqLW6HASpSQAcv7pcLrC3sPdAkiSXJEkOWZaZOUWWZQY6PW1KQpuqqioej8fk8XgMaNfj8UDXBSEBz4hOXQRAVdEuxoe8ToPBYLdYLOXl5eWdZFmu6NKly/5Dhw5Vb9269ZkZM2YUNMF0NluTTQ5q51OXPmcWGxSLWpOs1GzrAsys+XfcccflkyZNuh4g5hto66vONPUIAWp2u92TlpZW+K9//esnl156aZPegACdI0eOJOG8HA6HwWQygfqIN6RJ+UhUzDl34MAB5g7KysryFgv48ssvTcnJyQo4ysT61yWnOtMFSezw4cOcRlBVVeUZPHgwQIxrJvqzHwLUkHZ68OBByWKxyDabDfsj40FIekGPP3DggOI73qa+hk3dfv07uslBralPKNZ+dGdAVVXjn//855Fr165d/Nlnn11ls9lMIn3Ht+QfVBrf6PXojqJua7Btbd26de+ePXv++h+V6ZH27dt7gaYp+4213TpnoFGgFpNxWudFDnXU4IErKSmxjB49+pV9+/aNUBQlCZHugTZhHzrXeK1Z0GCYZpUI/2QEktb+1W+3obAHqF4ANdiu4uLivv3kk09+mpWVVRzqOcX2u/BmoFHA/BDrAAAEFUlEQVSgduFNz4VzxlCZoJIkJye/8eyzz2aOHTu2p0jLCTQL9cGs/mdfaiLfUIRQgBL7gE4HOZCwL7333ns7Ro0aNZiIBlw4VyZ2pgFNWA1IWjFQ866ZUOTQUPbRGgx9z+ZftFA5Dxw4kJ6dnb3yV7/61fC8vLyLECmPnEehevobZUN8ar7ApiiwkWvevoZCEXzjrBrqA+2D08xqtTrS0tKUrVu33vHkk0923LNnz7Lmn7nYCFriDMRArSVelfM8pvfff79dTk7Opg0bNiizZs3KEzmdgucsVKlK7BcsCt63vWCSXGlpKcImQIGulpaW/tVsNt++e/fuXtOmTXvo6aefvnnevHk/nOfpinXXwmcgBmpRuEDN6uGtN/7GSogff/xx3KWXXrqFiEYPGDDgzA8//DDQ4XAgnMCtkw6Kghxo2rc4DHpmw5kes4XQKhRyQSgBPIPsjdPrBOA4DkfQQxpErBZCEXAM1wxAGIMeEwZPIkIbHHBUANCMRmOBzWZLhaOwS5cupXqdgor/1H1YihrSkV7Gxs5bY/ePdHyx40OfAS+oxS5S6JPWlvYEIP8ntzJeUZSUwsLCNACSxWJBXNMZgIjJZCr2eDzeaFHEPok/zIPNZvMWnvTdD79hv/j4eBtQr6qqCoGgMt7bbPwVR5iigIrFYgH4eSwWi8fpdLrj4uJQQMWNwio9evQogQOja9eujkOHDiX06dOn7J///Gd/s9lcjnaSk5PLhw0bFkL9gtgKb0vrNtC5xCS1C+VKBzhP2NT27duXctFFF9mPHDkix8fHu44dO2YfMWIEgkBjW2wGmmcGwnwOxUCteS5XrNfYDEQ2A2He8JF12jqOjoFa2NcptqrCnrrYgbEZaMIZiIFaE05uW2k6Bt9t5UpeGOcRA7UL4zrHzrLNzkBbfeSEf14xUGuziz12YrEZuDBnoMWBWkuK+bowl0TsrFvFDIQvyLSK04tkkC0O1CI5mdixrXAGYjdnK7xoLXvIMVBr2denxYzuQpKgYzjbYpZdWAOJgVpY09YSD4rdipFelZYA3C1hDJHOY3Mf3yJALXYhm3sZxPqPzUDbmYGogVoMmPwsipgA1XbultiZtIoZiBqotYqzjQ2y9c9A7CHR+q9hE5/BBQ5qsTukiddXrPkmnoG6GlJsPWO6L3BQa+IVF2u+2WagbdzebeMszvciOBfUWto8trTxnO8rFGJ/MZtmiBMV260VzkDjQCAmqXkvceMm7ryvjBY+vPM+H7EOYzMQwDfXdicnBgRt99rGzqyZZyC6N5e3tSg0G5PUorI0onAlojKO5mjkQj735pjvWJ/BZiAGasFmKPb7+ZuBZsfHZh/AuXPdAod0/hZEeD01O6jFrll4Fy52lDYDsfXTcuehuZxX/wsTbr4ZU/R+PQAAAABJRU5ErkJggg==;" parent="68" vertex="1">
          <mxGeometry width="90" height="47.47774480712166" as="geometry" />
        </mxCell>
        <mxCell id="76" value="" style="group" parent="1" vertex="1" connectable="0">
          <mxGeometry x="485" y="-81.82" width="90" height="50" as="geometry" />
        </mxCell>
        <mxCell id="77" value="" style="shape=image;verticalLabelPosition=bottom;labelBackgroundColor=default;verticalAlign=top;aspect=fixed;imageAspect=0;image=data:image/png,iVBORw0KGgoAAAANSUhEUgAAATUAAACjCAYAAADrV4nuAAAAAXNSR0IArs4c6QAAIABJREFUeF7sfQe8JlV5/nPO9Jmv3r6FXoQgQRQUW6QXEVGJAiIoqCnGWAOKfxVFjcaoiZHExETRqHQFArvLImhQLAhIRNrSWbbf+rXpc87f98z37b132V12b9lyucPv8u397tQzc555y/M+L8P8stNGgAGQs3j02d7/LJ76/K7nR2DKI0DP/fwyjRGYB45pDN78pvMjMAsjMA9qszCo87ucH4HnGwEpJWOMzaah/nynMGf/vhHU5i2OOXuPd40Lm6kHbKb2s2uMyvxZzMIIzFtqszCo87ucH4H5Edh5IzAPajtv7OePPD8C8yMwCyMwD2qzMKjzu9x0BOZ9xi09E/MjM83ZspkBnAe1aY7pdDefSwHjuXQt072vu/32uzHazoPabv/0zV/A/Ag8dwReyC+YeVCbnxE7fgR2YytgWwbrhQwo2zI+s73OPKjN9gjP739+BOZHYIeOwDyo7dDh3j0PNscNq1m7KTtz3F7I1uI8qM3aI7377PiFPAF2n7s0f6bbOgJTBrWd+Rba1oubX29+BOZH4IU3AlMGtd1rqHYeBN9zzz1GHMe653m80WhwGrdKpSKzLJOtVkuUSiWN/l0qlTL63bIsNjg4yDvrc85TIQRtr9G2URQJ+rQsi8dxrHmeJy3LSoeHh0Hr0b4YY6lt21mapnqhUBC6rrOxsTFG23TuG62Xpql0HCej80qSRO3fMIysWCyqYwRBoNH3pmlyx3FEHMfqe03TJj03nX3R/pvNpvobrU/nQMem/dD3hUJB0vnT9dP5dMai2WxyOgats+m+O7/bti3o361Wi3HOmRBCmqaZpVkmkzjW0jTVCoUCkiQRNCZBEHD6Ttf1rHPOQRAwOlfHcWRnPdoPfdelaWxdEPDO8eg72k8fEK8MQ432R3+jY4ZhqMaUxqazPl0bbUM/9B2tT9/5vq+Or+t6esQRR/jTmjc77zGe1mnv6I1fIKC2lWGdwQdl6WOPWcu+9a3F1/7wqpPXrVl9sGGaJcvUucxEJU2SYpoljpBMY1xVMyfgmswSqYEh1TQj1DREjOuJFBkTGZDJjFum3Yzi0JOZMBmD0AwjBQTSRJqQCWNMSw3TaAkpkMaxCSCzXbfOOY/TOHXAASmkKYQwRSYMCam3R4OKqVOv4A3HUewkSWIBLDMtI9A1PQLARSacMPRL9G/GNIDzVKklCcElJIMUma6bka7zCIyLNEutLMkMcEjbtH3LsoM0TZ0w9t00ySxN0zLDMHwGHkuZcgEYnPE4yzIzzVJbZplB8x+Mcwamcc5YlgkdDAQiMeFpJjJDEm5rPLJN05cSLEliL8uEwzQGLT9HRseFZNwwjVBKupZMEzKjXWecaZFh6LGmaYkUgmUi04WQViaEAyFpjLhUpeZClCuVlXEce1EQFel7Og9N4ykk9FQkdpokLgPtVpOc8wTgMpNSFyLjkFlS6up6gkamNlrv5Zw/+YbTTvvBhRde+IfXvOY1a3b0ZJ/x483g3JnJc5sHtc2M5lRiTN+8/PK9//r97/8rRMkxRqG0VxIGTne5LOojw1yTQmNSaGACkkkIgAkOZNCkxh0hQEYSzXHBJnxK9TvjAlJ9ykmfhFZqfSGVKhuDhARTn7lMG/3QSvTZefzy+52vR1bXxO9l+5eJyhGT/r7p+hN+74ziputv+v3E0X7ueW1yPu390zabTp9tOS9ASgZSwuiMy/j45KOwuXHJjzZxNCdvnQ+gGkdOd1OEBpMCLOMZpC4k3W3OudDBQdAY+dyx7Siuh1bFcWtjQahLbq46+z3v/bsffusbt87kZJ7fVz4C86A2A0/CN77xjX2+dtllf/fUY0+81al0l4NazeSmBREGsLlGZgLowQdSZBqQERRxsrc4GLPJAJniWdA+CdCUVzj7yy76Zp7Shc/ItQhwGYMEhDRhgIzgjGnINDIt6b5kYEjg0jPQjFB2i4gFw7AftOze/oeOPOrIS//3putvntL5z2+0xRHYCGozco83HmZm97Zj7t/Uzvmpn/3MPuXccy95ctWq93HdKHHdhqYbCFo++rt70ByttY0nZZ8p2yrjAuS/0GKbztQvT4HZLADaxKF43mF57godE2hrF7Yt60x9YHbclmEYgksOQxhgIFDTFajFegrJMiDxYUYSRbrX0FGodCHRDKyp18b8NH7mc5d+6oxPfepTT+y4M577R9qKpbb1p/l5n/W5P3bqCj9ywQWH/cd3vnPTQG/vwlhIbcPwKCqVHjSbLfT1DmBkaEitp2wqBorWgCJSZK3RkoRN9aaf2tIGtG1xxjZ1tmbkd7og5fo+15mbkf3v4vulxIrpgkmuLDX6FJxATSLRaFxiuBpgRAG6NRNhswlbc2FXyhiJE4wG/qBlm1fdfd/dFx5wwAEUx5xfZmAE5t3PaQwiZTZPec2rv+mZxpvrrWZXsdKNVpig1vLhFbsw1mhA12xkjENyCierkHseNqNPAgSZUCR/GmfR2VTF2NphtF33k1Ekajc4zzwc+TzjSPeTGflqmQlGuRPGAUoOU9JVS4GwAY9J9DAd8AOkMgOHgSYYQsg0RPLwD374w9POOeecZ2bgIZjfBd2SqQTF50cuH4Hf3HZb/zHHH39Ld7Vw4OBo03U8C8ywUGtEENDhdvcjVOF/yhwaOajRA09uowI1AfitfGdTtmz4C9dS2hUsRMfLTfCUQLD9Q1aaQTc0ArIAFWTwV61Cr+VARJQg1dGiDLbOwDX9kb/90AfO+OIXv/jQ/LyamRGYt9SmMY7Lll2/9znveOeVo6P1l5cqHg+iSAWCnUoPguEG/vTk07D/YUcg5gZSriFTP+0OUhRElgycEQuDKxeU5sb2fOZuH1k+lK6bGi52Ln+q2+8y23XGb4rjMKXrYBJJFqp7pgtd3UCy1CjEAD0BRwRWG1I/t373u6haNjLfJ54fmlmq4qpMZqtOO/UNb7/xxht/MY1HcX7TCSMwD2rTeBxuvvnmfc84+63LIz/Yj3DJKpURtXzwnj7AqWDfw16Bt7zzPQg1GxG3kHKWZz6ZBKdHWjJoegESRFWbGihRHIcm0vaA4faCZ74+MdPYDjjO9oP71K5n+scBS5GkPhSGZToYARrdR43eNRF0GcBLA6Trn8VlH/0wKCUUjtXg2jZaaQyIFCzNmq886uXv/dWvfnXVNB7F+U3nQW1mnoH/Wb58nzee/sZfQtMXbJzt9Fh7FcAq4JCT3oxjzzgHLd1BwE3EXIckrhqRQAnUGEcCC4IRv3QqoEZgRpSqHQFq0weBWQUfoYzWHQq6RNnQQJQOCV1oKguaJ4SEAjVDBuhiEWqPP4wrL70UaIyBxTFkJlQYQlEQw9bwKSccf/6yZctumpmncgt7mZOZvc1f1LylNo0n6cYbb9n/9Le++edg+gLFjSVAo5lVKAF2FS866XQc89bz0DA8tLiNhGsQ9MBDQJOxcjfJgqNEwjYFpp8TuKYZ1CkQyC9kS8/unHymp3HvZmJT4i9rIoUu6ZMSBW1LjYoaGIFaC10sQePxB3HdZy4BGjWwKFS8RbLYFajFwcgpJxzz7mXLlt0wE+c0v4958u20noEbb7zxRW950zk/5ZwvNChWLAWolgcFstTKOOT1f44/O/OdqBlFNLQOqKk4CnQZI+MSkZa7pFMENakyDgSks7JsBQp3D6LZc85yJsGdRl0TFE+j+q2c0kExU3JLCdRMGaCHhaiveAjXfeaTQH0MRhxBE1luzbEMWRqMnXjSse9dtmzZdbNyC3f5nc7kHRl/se/yl72rnuBVV/344PPOOm+5yYw9OMuooBwR2WteBaldxovf8Od47ZkXYNQsoaG5iLXc/WQigSEjZbVRGXkyLUya1sbbMbQz//Btx8F3yVXJ3dQEBxccBpWKgNxPShTkoGbJFnpYjPqKB3Ddp/+fAjUnjmGKBGSvZ0gQyaBx8utPeveSJUuu3ZEXuSPu5rYxK2b+TObdz2k8Sddcc82fnPe2dxOoLTaQIZUJIoqVORVEbjcOPfWtePXZF2DUqKBmuIg4JQQycJnAFJEqo4nbZVNTP40Jt3CXtZ5m/sGd+njN7JYEakzq0ITKDkBQsqBtqVnSRx8iNFfcj2s+/Umw+hi8OIQpKEmUIWUCoYgbJ7z+xPcsXbr0mpk9sxfu3nYvUNvF5sYVV1x3yLvPueBWk2sLdWTIRIxQZm1Q68Ihb3wbXnXmuzFiVVDTXURaG9REDEuEqnwqZUQDmKr7OROk3dl5+HdZfJ3hy1USBBQEEGZOryH6IYkW8BCOaKEXMZorfo8fXfIp8NoY3DCAmVE8VaiwQyAS/4RTTj5/JkFtW6fJtllSUx+w2d7/ls5s9wK1qY/vrGx5xRVXHHLuO97zU4vrfQYVq2fkTgiIQgmZ142D3vg2vOLM92DErGBMWWqU5UyhKVCLoEnKhFrjpM3nY7Crv5ObQxJdHcb7rgts2zTo24d+27f2xhPY1mm+TWe8cSUKH2RaoioP8oJ2iqlNttR6ZIjw0YdwwyWfBGqjcAIfZpooK52qTFppFpxw4skX3HLLLfOUjq0N/3bcwnlQ277neNLaV1111cFnv/1dd+qcd5kqppYiyDKgVAXcbhx4+pk46q1kqZVR072NoEbKDgrUVP7foimh3vadt/5zPyW4ZG1+23jxTn4yuzmoTWP8d/amgpHqSg5qnWoCIkKTtSZYAkcE6JERokcfwA2XfAIYG4YV+9DSGIwsPK7Bj5PoxJNOoeznD3f29cyV48+D2jTu5Peu+t6B7zzr/PsAuAXPgh8EMEl91S4hK/Tg8De9HYeeeIaKqRGtI+FEv6BQMiUKciZ6Kq1NyLeUFeuQXQHHsiEIMBMKLKeK40RBZgJBMluInb57L7svKNM9IFoHuZJUwK7uR65aoKqm6MW1kKWIHvk9rvno+4DaOpgOgwaJJFJquAhDPzrppJP+evny5Zfv3vdxls9+zlpq23FhszzEaveX33TTQee/7dyfIk0GNFtnWRiClUqQtgeYVex9wul47RnvQs0ooaV7iDkBkARjscp+0sK4o0Bt3FPqTPJx6Q6CM0mMfkmisyTsSrXw+d91qindrZfZAbUp+qmTR/J5njdVSSDI5RSI9USBmk5mttSRcg5TxFikQO0+XP2RvwTq62G4AGMMWUigZiCJg/CEE4573/Jbl1/eVqPaMtlwt77PUz/57Y3NzVtqUx9r/Mcd9x/6l+ec+30ErReDCw1RBJRLAGmkcRfOy16L09/7ITT1InzNVmVSyrUEETYT9ZZPKTw2kWc2SfAxBzIFflQknUtMbwQ1+tv0QW12QGUaw7rbbDoToCZFOnzccUdftGzZsu/sNhe+i5/onAS1pVJag48M7fX4qg1ed8E1M00UEg4741JEGouZZA0HWssQmj4cp12RwU2eqJI9pU5LcXhdSMElp2YeIUszww9Dy9TNDIyFpmbGmca0Rx9+9GUrHvzD+wO/vp9II2RpjELJQ6rbqKcc1X0OgtG7F5qah1Cj2s88uK+Y6EiUGq6uqgk2WSYAm2kaysXUdKY+6S1P++hYbhpJ2kxrmUlQm5opPSNW1bTGYGobzwyoJbUTTjjuoiVLlnxramcxv9Vzps9cG5KfPSXta+/4+Z89MjR0VrF/QTWOkgWCoxRrwo55xhNdJEyi6SZoSmZYdcF7E64bXGapRgkpkRHRP+/UkamYlpBJxuM403TN4JqmC9t0UmaYGBoZXtjdXS2GoQ+R+JAihm1bEJyjmQJGpQ9DUV4KNV4ORQq4EppMFVVToxjbRk9zAsC0gc11HRV7MU0ThqltBDYi+hKw8Wkrss+Seu42P1g7ijy8zSe0lRUng/b2gNo1H/lLyM24n3HkJyeffOJHli1bdtlMnOHM7GNqL6eZOfb097LjLbVZHq+vLnn4wJv/8OBFqwU/dWC/F3WLVBrk8hHJNWYxIp6BCwmbsuqkJ2+7qvaS6BVcCFXHxzNqiZIXR6dhlKclqekTI4vJhGZa0LiJRGRIOEdGumhJoNxKkkuj2s5YMmSagcz0VNF6oin4at8xxTtX9A6WxArcxpfJwEaWGVlrjuPAtm3oBvU1YKp6gX6mB2o7G9DoqncnUJs84bYH1LYUU4vCVnLSSSdcuHz58q9PfzrP74FGYGqgNsvANJ1b81ff/emrn5TWF0at4p8Jr8qQUWkSQOYZgRqxuFmWKlAj4IryZm/UDQ0aqZIKAjQJ6lFHD61hUCCeQ9csJRVE4o8KjjIGZjsYizJww4BO2xL3KIkgsoR6piHJSK3ByHXrmdYm2Y5fHVUXWEqGiEy1zQAbZdWShHp8giw213WVxTYR1PKmUFNZ6KIpoJf3Ttgpi4olTg/UdqbrOhOgliahf9JJJ1y8dOnSf9kp92AOHnRqoLYLD8QZ37zlbc8a7j+M2V176139SFq5eiCBWQIS5ovB0wxuSpYZoLkEWuTKkdVDdZkkt0xytVnuJhINg2swdAtxlgf2oziFH8YwvBIi5sB2PeicQWcZoiCATGJYpo44DqFpRg5mbbZ5Xh+YL/nxSExwU1DrDLBAHMewbAPUqNfzclDjZB1mea3pBFCbwvxuW2rTA7UtH3fjX7bwFpwBUNuZj+JMgJrG5ehxxx1z6U033fTPO/Na5tKx5xyovem/b3/XSrhfzvr26m1lJlKfLLLcGlAMcJ7BEAJOQpaZgNSJLKlYsFS0lH9KAjRig0GBB7mZLglAJjGE5GgFkXIHwxSw3SqYZsHgGoKgBUPnSMMQtmWgNjyEoue2QSt/bAiGlI59+5zIBc1BbeLSgT2hYmhh5KNcLqO7u1sBWZqm0DSuYmrPZ6nR+sokJ4HH5/xIBbyzudD40XEJiOknT3SML2T9bm2ZAlLP5uVM2ve2glry6O9x5QffAzQ2wPTy0AEpGRD5Nk3C8KSTTvjMsmXL/mGHnfgcP9CcA7XTrvjp+1bC/XxSXVxtkcaVz5UqaT6ziSiZUmYTdpbmBFadI1PfkzOmdEshkCkApM9UUKG6gFtw1cNIkt1CSOUKZpkEI/dWaEiERBKn0AzqYssUmMkkBCP2OOltUdxNASW5ospGU7YaV99vCmo5/NGiQC1sg1pPdbtBjUBlU1Dr/J5/dqzEbWg0sk1lXJP3kyS5i6s6vE/47Lidk0BuFw5rbA4HZgLURBa3Tjzx+C8sXbr0i3Mca3bY5c2pxitE0nvjVT/70ErmfCYsDJRCYUEPdUWQVCVJqoiYMo8CdpqDRmqYSEhmO5d4VG4qWW4pNfZmAqapI8tS5QLqmkSzXldZSM92oGUZsmYAEEUtk8i4SakCIpWBMwnPIkuxAY2+VXwzAkoSiiQgzTXtn7NMAri2pdYBNbLUZNq21DTlMm+Ppba5pyrnwRGwkvU4812oeLuKQsUjFXF4Mujt/IqIcSTdXqtwJkCNQdSPP/6YLy9ZsuQLO2zWz/EDzSlL7RoptSuvveODT0nzsw27u5BkDqzEgJnlOcJcGSHPQRKoUYg+1g3EpLPIVNcAJfJHn8olZWSR2UhiHyxLQEXrQX0YlsZAopA8i2GEESzDhrCKkGYRCbMVsDX9FsoFBzIKlNQQARstdEzVxZsSDgpItg5smsZADXPL5eK4+5nFyoJT7qfqu7nlQD+5fOq4bRLvpp9UtDPzyzhQUKKFLNxODFCdc8cNVlyWTc999zDX8pKobaso2Jr7yVnWOOaYo/9x2bJln5v5+zB7e9xelv/snclm7IIdebDZPtbPpNT/9ce/fP/Tmf6FUc11Y+HAEzb0jOf2QbtGj87DyL0ypFpe0pIRBYMDKmyvXFFKGEgUHRNZ2ETSrMFIfVQsBoc4ZuRWpgF4HMGksiinG8MRQ2KXkWkOGn6A7u4q4mZ9AqgRkGoK1FJmKIoHFaqPZwAn0jlyl3Qc1CimNtH9pApC6ki1dVAjjluHqJuXWY0TdymuZ1n2rN4WVRJEFm37hw5GQEvnRXHBJKVysZ2UfZ3mlc+EpQaZto4//tivLF269DPTPJ188ym8E6awyYyc6mztZE5ZavdIaXzl+l++/6lU+/x6abqZsFFinlInpYVq9CLl9QkFdModJEUFnpeZU8g+ZboqGFeTTyTwdA1a3AJr1VBAjBNffhi6LA2GCGESHy2OkDAdtczCz+5dAd+qwpcmglSg2tONuDm2CajpSMlSU8chdQ66BRNvQ3uCt93QSTE1lSiY4H5uA6htCmgTLSYpGGSnREt1Lel0L5m5T8f2kIkEaSKU68yZrtx3y3SgG0CSUqLihQtqWRplxx9/7JeWL1/+ydma5C+0/e76oLYdr5EHpDS/fP1v3/9khktXJ/BSOChzF5qg4DxZZQK+wSB4pkCNeGmM0aSSKqtJQJPnIjmYkCpLWuCAGfvg9UGUZYSL3vMG9OuAC4A6djYBUDviDQK47Iq7EFjdGAyBVgp4xYJyWznRSEBsX4qp5WAWc9paUzmC8YoCevwmW2s5qE10P7cP1FqtVrsQPncBO6CmLDbBkKbtZjHb0pF8CokC1y0onbmU3H3qzaCbsG0T9L1p0VhTV4cdDWpTj6NNBIjNW2oUUtAmFbRvzf2MIz876aQTvrp8+fKP7a7gs6u5ors+qG3Hnaaaz6tvuOeDTyXap1dF0iPgKGsFpTBLwXmqKgg1DsEF9A7ZliYUFZe3i8UpUwmZQWtXF/SXSmB+A/GGNdCbo/jKRe9CkQAtFtB1YIPvI7EL8P8IdF/+r+XIqouxoZUhSJmidxQ4NRrOIHiKWOMIuYWEkYYadYEk95OysBMC9BOj1ZTUmJj97LifG2NqIj/vrcTUhoaGJoNaKifFt4rFUnuE2yTYSdyxiY9HTlLO+4uOgxBZusqqlXmbvtzyzBfqb+qHARKy1AS5yoClG/AcF0XPg2UZ0OklQ3HOdna4vWWu9a92RRLZOc+vQ9OlezT5RUBWeL6uSgipY4+HKye+OMhaV15a+2UiVFZ2S5SarT98qpxO8Q/JAyBdtVylgwtd3Wsri7GQp8hW/B4//NBkSodINehMA4HaiSce/7Vbb731ou141OdX3coIzClQI0vt81fcedHjkfGxptNTYF4RIgzU5RONglQyUmaqjKFFrH8qg9IcWIaBpLEeFTtBNPIsosYQPvKBd4CIIN/+z+ugZxI9xQJQH8Fn338O0Iow4JAmPVXBOxgVEi3O8Lef/jrKLzoUZrkLo+uH8YoX/ymOO7wXV1/9SwyKCC2vhLWwEGtVGKKiZh6TDTCy4jYp7iBAoJszDmpFdCtKR5ZnP4lf1w7+dybpplYE/b5u3YaNX6v1qU9oZzsqgm2NoFBwYVkOSJA1S+mYFlLBEAaxalaV157q4IYGjUlkLMnPg7pnkXy5oBilDoMSMvQjaZ3c3ZcWQ6IJxGmkQMnTTcgghmfYWNDXD9WCRF0rJVJS9QJQCR2KczKOQqkbQZwgCunkJAzOYRPXLUsh05wDR+vRC4tAzVL5GKb0zOh72hcF9I0sB+WIWj8p8CG1Wo5USGiGoSpHyHolsnOakYjjRAEBBZMdqN44njmQt0HNyEHNSnPpITp/ArUFRPl+7H78gECtOc5TExlRf+i/zD/h+GO/cfPNN3+CsemxoOeRLh+BOQVqlCj4zpW/vvDRwPrEmN1VkI4HQcJVKuvJkVH+khnqgXazSL3tU+bC4BlkYzW6TR9ONIj3vON0RdcoORqeWDmIe++6DyufehqLu6r4yPlvhSslvKQJ1zFIawMhLNT+OKUuvexyPNUKYJereO3LjsDJRx4AswZYDvDNG27DCj/CercbjawEIylDgwnNSpQI5PiS3xKa6HR3NE7Zzw5PrZLz1JSl1gGn3H7ZlOrWsWQ2gtoEMMtBLY8pWjZ1FpcgLzRRrihVUBiEH0jiTIEaAauuc2jkWVFVRhoiTWIkZOG6lrKijJR+dGgpWZ801hIpgZpNoJYiykJFc3E1EwhjFDQHC/r7kajO7+06WJWmSXOOIDV65jp0pwg/yhBFpJ4iYDENFpF5swSEwg65t4yrWCmhlp3m1lOk5UKNCuokvcRyCzPUyWrPfyerrukH0E1rY/lZksTKkqU+rp0Mc76X54IafatCG1wg0RNlMxOoUSMWSj4pS00mSB+/H9+fAGr0MkCag5rM4uCkE4//xpIlSy7eGqjtMi7edoSDdhbIzg1Qaw803fj3XHfvRx9s8E8NG+VSZjngqrPPOKgJGOohJ1AjZVKHaimjUWBsFbxsFBe/7xzswYFI1UVKGNBx3wNP4MknV+LAPffCKw/dFx79pTmGatnD+tog9GIFKXdx/9oN+MOadQgSgVcf/hJ0G8AAA3QGPBFJfHv5bXg85lg5LODxfuhWCYFJ8Zfn3v6OF5dnP7cMamQpbHZpf79u3frJlhpNpI6lJjniBOC6Ca5TbWqb1iLJKBLqx/M80ESPSImEelZKAVPX4dgEyAxNESjnzUgNaKkGg/pftn1SyiAzk6zhDFEWED7CIl5gHMM1LAz09SsiM40zUV7IYh0HtbxeNpQ6giRDGKRqvyanV0HeRFikWW5ZcYZIU858LlRAoKYjl3qi8c8EzDaoBe1EkQI10qMzLSUUQBUiBGLESVRCAVpuJZNVvI2gttFS2x5QSyM/e/3rT/7akiVLPsZyJvT8Ms0RmBugNmEQ3nvd7z7yQINdMqQVS4lpQ6fXcRvUCNDIWiMlDjcNYckAtgxRgA83HsEbX3s4XrvvApgIlOqGqZnQuYcoZYjCFBVPhyUBhywWP1T7lnqCVibREhq4XQRBSCgkBjhDEIRYbNsIkxShqeMxCVx+268wFJp4+rFh9C4+EMMCiBVBdfKyZVCTSLNoo6U2CdQmvkW3CdQMSOHB8cpgGkcjrKMRNlXMkTYXMkZfXx8k+aVxompaeZoqlRPVU4FnCC1yFQGNrLTMBKcEjNDbho0E1ykxkyIki5lL5cZGSaSK9Af6ByCzvNaWpJjI9aRPWpQIADTUwhR+TJUcqSrHtTREZ2pQAAAgAElEQVQOQ1lqsTovqjgiVzfSc3B3O6BGrQfbeE+PAIEYcRRDIz81K8vdUnppUHUIgTfV1aqkUQ5qknPOSFBg1kCNZL9jPzvllJP+admyZRdOcy7Pb952PeccqP3Fj3730ftr+PSwXiqRrFDHUlOkVwI1Zihrg0DNFi3VcLax5gmc/6YTcfT+FaA1hm6eYMDxkAQ+PKeiMpa00PNNIRldxW8EZGsMzNUQJzGChEN6RTSUShH1gcxQ5gb0OAA3LQyBYTUYnsyAf7/qNkhRQis1EDulNqhNtri23VLrPMu5VaL4KWrJb+3a9evyXyn2ozhtHFIQaTdv+qLzioqnxSJDrTUCwWMUyjbIS0ziptKII1UTAjO6dpu4bYysJY5UYxhmERKlt2RCCh1MWECmQaOAOblnFP9iKRJSL9EENFtHmIbQHRP9/f1gJCygKi7yqosc1DpKcyYGGz78SMCPc7AxFagR6iWQWQLPK7ZBLXfBCdQoWUGWGoEdLQReFGtTiQtq+sSgLDcKQwR+E57noFgsKostr/3NuX/Ep9tRltrSpUvnEwUzBMvPC2rb6kLvKj7/Bdfe89EHx3DJqF0twitCpiEpP05g8lvtmFoIUwZgIkSRRxjQE5x3yquwjwsspjkajKFkm2qCJlEKw/aQRJniWEWNQMWiaN8Z9e/UODS3lBM3OGnaArXaCPrKFZL0ACwb66TAIOP4wa8ewKNDPkbrDKF0QC4yVRdMlOBR2NSZkBMrCnqeG1Mbd1gmZi+3Ampt97MDaiKywWAoaoVkASwng2ULZEkTgT8CEjEhEooNDRaoEzkHizKkUYpACCQ9Ffga1VqQu2gik9T/kswkXYEJgR9ln5MkUJYadzT4FF9zDPT39ynApJcMuZ9Uk0v/VsF3IinDxIZagFYi4EfUAJjB0Bg02g91OSeg1Q3lvlOn+w6o0dDR75kqnqd9dkANCtRobMlyI4szjX0UC64SDOiAGsXUFLF5UvH988bU1JTc3phaloTJG0495Ws33XTTx2doTs/ubrYVEGb3LLa69+cFtZ14blM69HlX3vWxh+vs4obXV9bKVcRBrV1I3ilPshQ/zc0CZRVkmgZXA5I1T2CxmeCLf3Ey2FiEPYsmPCmQBLmKhUVJB0rh68BY3VdseNchsUiJNIqgmw5aSUqchY1CQiRqRAP8yLohGAM9uPaXD+Anj6xEVOpHanShFmSwdGpwPLFPQbusaSOodQraKfu5KagRTYIC8zRRJ4OabE/IdWs72c/xWNrGvgdSg6OVkYUxNESwzAQiGkHsr4erJ+gt2Tj1xKNRsU1ULahYIuUOhtZFWP30Kjw72sCDoy00DAuhbiBkplL4TSVVSxjKFSXLjiywLI5UQkK3NbQyX0k+9Q30KTIx3QcKCUwCNZlb1SP1CH4KBWqUxzA06stAvnGc69ZRdQYnEVCKswFuKtUnZUMnuZ9pXjHi60TpyStKyFLLkhzUKpWKAjWqpyWXkwjDtOR6erllPvmzbQWOJwqmBGpcpv7rTz756zf8zw2fmNIDP7/Rc0ZgToEaWYvnXfnrjz9U4x/3SwtKVrUHreawcn9ydQx6+xswpIRDJU5IMewnqrnwAVUX9RX3YV8jwRc//Ha4QYaySRilqVrvmh8qNVvDs1TPRoI6sq+iRqKEJYtlmhBAEAklFdRTLmCk4UOjFncmx+VLfoE7Hnkacc+eSKoLMJTqqPkJSradK3hsDPhvDdTalI6MdNqo9pP4dB1ZpU6NZ6fONb+1Wwc1Dl3qiJsNOIZA1ckgm+tgJ3W86vADcOrLDwW1Ws7tSFX/oP7dqRYl0vGl374VdcND0zDQ1HS0COCYhRQWmDRgCQ06BeljonRImJam3E+y1HoX9CAld5OlMIWQmpCMwI0JKgGjdICBWitFKyb3M1OJCxIVMIhNQ6BGQXxF/cgtMy4lXCUplYPaOIeOLKic70bka7LgzIyphJGIW/AmWGoEah1aB4F/br1tHtRoxNl0QI2yxpoMTj7xxK9ff+P1F8/j08yMwJwCNRqSd13xm48/LQof38BL5VoiUCnbiBMfrldGrRUgCDMUHQtmUFeF6brtorvk4tn/+y0WGxl6ojFc+oGzURBAgQtoOifRDQwGEZrEx/Is1AGsHokQtnz0Oh4WVMnJAoi6RlMgjQQKFseYT2JuDjVDwO+eXIMf3f4rrM1MBWqhV8Wa0Tq6K9W20kZHY60NTu2YGB0/z35O4KlNBLV2viwv08+rIfIlv7WBH4GqCkZHa8qdoqwlBekp2xdFecKBE73Fr6PbSNBauQLnnnYsjjpgATyRoEwVFVRnoQrRad/Up5RC+oAPYEgAdz0e4cqf3Ao+sABP+wFip4hmRvLlBjytAIeb0FNyGVUZP4I4hO0aGNhrIfyspSgWpuKNSRW3Y0Q/IVCTFvyEqfu2YXgMaRqjUi5A1zLEflNZU/SyMjwHRslD0bEx8sQz6K1WMOLXFYhVq1UMrd2AoNZCoVJFZa/FCJIUzcFRdBWLCMM6RBJjv/32a1M5SASZpNJT9Ttx9NSiyMHPJTpTppMSEEmbfGumBJbbTulIo1CceOLxl9166y0fnJkpPRf3sn0+75wCNbLUzr/y1x97KitdPKyXS2OpQMHVkaSBArWm7yNMGIqWBStsoGJRJlOg29Wg10ewp2diD0vgTce8BB4BGIGaxrGmNoKsUEaoabj32SEsu/M3eHr9mHJNyEV1IXDgXotw7mlHg/kpyjpQJskipcjG0ciAx1YOYcnP78GzjQRJpQ/aoj2xphUqa40syI0xtTajP6feQoHqOKWjnJNetwhqFEHqZFLz7cdG6wrUKOBtGoaaqOSuErAlIsbwyHoMdBdhRg04/hiO2mcB3vTql2J/h+KKTVQ1QKcgPjnVZOlyE5mSKNeQMGBDC2hqwM/+sBo33X0XBg0TzuK9MRRLNCMJUy/C4hb0lCkSs2rkG4ZwXAsDew6gKVqQvB1PoySM8vLIFDOVVV1rJmgEJJFOOQ4JkQaKV2hRr804hG4VsHpwPXr3XITYb6FELyPbQihjNIImbJvK5DhklKkETl1VMenwuIXa6Bg8x1Bg+byg1nE/N+HHTstSo+RVEqcnnXj8v91yy9JdGtS2D1Z2LrDOOVB71w9/+fGnZeVjw3q5XM8A26Caxwi2W4JPxeepBs/U4MYt7F3ieNcp+6CUAN0mUJRAD4cqYNKyGKmMkWoa1gchEreKu1auxu0PPI4H1o4itbuUvHePrcNf9ywqpsQFp78eL11QwQI1LUNw0g9TGmvEoNIxFgIBA8Y04MkIuOHXj+Ph4QABpyPSrRi31mYK1IaHRtFoNGCZZKEZCJotdSSiMZAWSTMYQW/VRjq8AXx0PT589lvxkh4N3WR5RqkikFL/BVVKxDVkxLzXTAVohD+kQUmu3uM14F+uuRbDpo1BcNQ0R3Yt2pcNjRD1xQEnBj1VBEiGOAoV8CzYcwAt0ULWATXV7IYsHQ5B2VQYGKn5qDcCJWdOZOfm6CBE2IRrCGVpOtVeBBTYtzU0Rkew0HIwNrwBbrWIobEhNJs+9tljH6RNSthYkOUSNozWQIaVqRvQzZ0LakyK6Pjjjv73ZcuWfmjnQsHcOfqcA7XzfvirTzwjSheNmtVSQ5BaGCnVxrC9AkJipTNLNTvx0gAvWWDhA0cvQgkS5ARSSNhFiqg+BiZTCHLNCiU04eBpmeJfrrkJD41EYH37wOrfB8O1OmwRwxMhWqufwGItwaXnn4XFJqD7NeWCxhBotSJ4RhmcurGbQJ0Bj4TAV6+7BWu1fjR0qiZt3wpi9LfpqFu31PKKAoof5RGfjts62VJToFYfUzwsSklEYQjPcZSlhqwFnedcvWx0CP2Gho+cdTzKZMnVIiwsWtCiCIzIYGTeMQ3C0BXQUzWQWmIgIoK8Ddy7dhR1y8adK57E71cPYSTTEfMCYBQV3YOCXxSXow5dnm1j0Z59yv2kmBqVVuUdvCj1rKJvKgM6PNZCo9GCbVqoFlwkjRH4o+tgsxRuwQNzSlhXr2GoPoK991gIjIxhYV8PXnv8Abj9jkfwzDPPouSVsKC7H40wxiPr18MuVtBX7MHghiGYnoMkTXeapcYh4+OOPfrfli1b8uFNYWVXYRTMCtzNouk310CNn/O9Oz/xLKtcOGZVSy2axsR4lwlMx0UUZ+AaKdYmKGQBjt6vgguO7MEi2VAWhM05NEWxb2OMweETARQWHmr4+Oer/gdBaTHWo4BRWYA0LDRG1uOgRT3go6uRPfMwvnj+mTi4ZKAoQpSKFH+ijGECS7pIIqAVCoSOjfU2w1euvwWPxj2o65VxUKPJr9rs5eH4LbufFHeakCjYAqgNrt8A3/dRLhRVaVOWpCgXvbw3QTCGdPhpdBkCfa6Fl+6/H17/6hejSuVZzRR9BR08JopFO/OnUQZRQ6KENHMY1qkGkyw+IRHoNkIGRUC+e2UT371xGYzuvRBbBUTMRtZuMxiHMVzbxp6LBxCnZDnGecxOoXlusZIbTamJkdGWsshEGKKgM1giRNoYwcKqi0MOPQz7H6zj8utXYKQ1gj0XLcLK++7DGW86DQfuy/FP31mqgP9v3n0qRoaB73x/KUp77wW30o0nHnwMBx54ENYOjyHOsp0GakyK5Jijj/7mrbduwf2cxck/Gax22IFmBSMn7nSugZp2zvd+fvEqWb1wzO0u+YzIoFTQnsKgrFyaKVcoCwIUZIhTXzyA815Sxt4sQkqlO6aFsN5UwfQ4CtBMU2QFF4FRwBN+in/43rXQ9zgUTzaB9aGBYteACpkXZIBCOIyBaATvfs3heM0+XQo0dT3DULMGyQwUuQdb91SAndzPJ/5Y4/jpy6/CiHcgGgRqKpY27oLOFKitXb1aZQnL1DgmaKn6SarhHB0dxoAl8bdvejUWWhIuZ+iyAFMAVeJ9hSlkGKC7SESOce1BScDWLj8n99VErMZg7fAIuFPEYDOB29eHMQDX/vJx/OaJNQjsMpqai5A05LiBKIrhODb2WjQARC1okvo4tAtYKUmgejhQSkHD4HBNyUClfhNa6KPAYvQXTBxx0P447NAC7nwoxW2/+Q3skovEr+HgBYvwlhMOxB2/X48HH31IBfoX9C/E0Ufth6fXAdf95BcwSiX0V/rx9FPPgrmVnQZqlHjJ0iQ9/ug/+/fbbvvJ3876bH+BHGBOgRrJed9w+c8vfhaVj9a8nkqomcr9JFCjVnWU9SJQCxtjKIgYbzliP7ztUBt70BpZBk8jyw5oV9wgyGJEtB0Y1vxRO+3v/vHbyHr2R02rYgxFhDDQ1dUFf8MquP4g9kQdF516LF6zjwWTKsJZDJ84VFQc3kjgWKQhBgwRd+2Pc/iz374CQWl/BGw7QI0KpNN2Qfs2WGrDg4MKsIteQbHnSd0iDFrI4gSnvuxgnHdYBXsaOU2DHoaw2UJXwcvTDdS+j9CGWvExApt2VypF8Mgb1MSipjKFlm5Bh4daJBHrLmoceKYFfO3q29FwqxgzHLS4jVQz4CcEag72XrgA3G/AlKSpRsfPlTRU5wUloqljdKSOyA9gk/UY1FEQAV596EF46UFV+AHwz5f/GHq1C7qroVkbwQfOOR09JeAf//Uq9C0awOjoqLqnL/mTl+FVr9wTP38swq0/vxO9pR4MjzRhlnsQZnKnWGoK1OJIHH3M0f/5v7f/5K9eIJgz65e524DatsQXpJT8rMt/8clVrHpRw+3yYs2AwSntn0FyE1GSgGsW/LEReCLCW155CN5ysIYuKqGJhHI/VRvQVMBzOGIpkTKGtWGE0LbwuW9djbiyD+paVVlX62q+EoIssBS9WQPhI/fgWx89CwuIM0WZt4KOwaAF0y1CRqT2qiFmwDMB8IwBXHb9MoyyPkS8OG6pqZjaeO+C57ifE0FN9SigZyQn4OaxOOKp5d2qCCCagY+m4qERH60OPU0QNWvoL5dw8VmHY/8E6JUZDCUrlHveVFtKsj5UpylVi73xvgK8Q/JVR0uRoIVWs4aC4SgqCzcKYE4FT9UFmgWOz377J6h53RghLptmtkEtUsTlfRcMgIUBdNWQJY8M5qBGcj50DVzF04bXbUBPwYWdRYo0/abjj8BevcCN//M7PLNhFHBsDNaGsWigF+e95ZUYHQRuWn4LGqGPSleXstIboz7edu5xaAD41rd/ClO3UW9EKPYsVLW6+xKlg4jAFDDIiOgr1BgYup6HE9t6eyQ0SuVWqntr27pWMksaZZWFqrhQ2VZVtRCjj+pjH38I3/voXwPNQaBArGAqWFVFZEAcJK847ujv3nXrsr+Y9dm+lQNseX7tfm7pbgNq23rDz7nqno+vaFqXRIWqnVCMTIR5h3Y4EKoJCXGuMlgiRXc0hs+cdTj6GVAkMEuAggEMra+hv6sIy+BoZiFG4hiJU8JDwwGuvuNePDqSQu/dB/VMwqm4WPXQ77EPi/HO1x2J0w/pQw+NatKCZVAcXcPKVeuwaMHeCtBWN4GmAwz+0Tr63OVLEBb2RMhdVRkwmdaR3xqDhCVpcpbK6O6ZSOkgVThS7M1jcKTSS3QICrarakpOGmMMw40aao0aYr+BkiaxiOSSBtfgL/78VBxQAA4iWgup+lAGkcQXGemncaVbRiTjKCZLd/MLaaCFwRjKJRcIQ8S+D90qIjJcrBcORh0NX77mN1gjHYzoRcSmq4LyWRqiROTbUgkaddVqh9I6wo4TdXBHhjYofhtPYmhxBI9L7NHXg0MP3Bv77wHcetsKrFm7GqtWr8YbT38DDju4im9+ewmq3d0YbTSVtJHtFHHSKUdBt4Grf3wv6n6IffbeD8+u3oA00ZWlduBhByGiYv5mA73VKlICc+LOpUBSD1CxPVgFC8NpHRFL4DlEfmbQdBdjdYJKIv1K9FcqCGs11cMCYYAFRQdrVzyA733+UmDDaqBcAGvU4fYPoLVmNd3g1jHnnPn1n/371/8fSWcdDcgHKaQ5Aru/S8kCt18fkNEmapYWwOg7+px4h+iJyJ8KYETlrPN/Ewe6F5AUhKi1SySOYKxTsT/5Ju9+WLbx/OccqJ19xT0XP+pbn4kLVZPKZxSokaA28yBUcTXJ2yQwBFBK6nj14gJe1OWhOTqM/qILj2d4zWH7gmdCWXnk6oUEGFYZayRw+31P4fcrh7CmmeGZwREwU2C/gR6ccsgBOPpF3diT3tCKAuGrYm4qnTKMCuoJcMOtv4SzeD880fARd1VxxwMrUGcVRBqx7yeXOaks4FZAjZonUxs/Ai+yIkw6X3KdlcQOR8xJfodh9egIYmLfhy1kjRHsbXN0pTHe9frjcFAV2EMDPGJrdJ4EymRmeUKBZLgLBVLGndw6r1NsTwmETMTQqaVgs6FidqZTAErdGIKuXPa/v+rXWC091I0CUsOFIFHJxEeXo6OnUkYmqe603eyGrLSNirU5tAWNOobXr4OjcSzq6ULcaGB43Rrss3hPvO5VB2FxL3DlFXdANwyc+dZX4ZEnI/zohuvRM7AAXNWkcpx95lEIJXDjkhUYqzWhmRaiOIXnllQBviS+YX8RT6x4CE/ecgtQ8IAoAjwPaJH0O2CRRiXPkJQ4MiocDepAvQV4XVBoSeqaNIatJkzXVfUQBGz1oQ3YY6APa555CtViQXEkR4cHMdDTrXrIRsiaUZbev+/e+9z04EMPHa5zbtqeG+vgulsshH6zaQkuJc+4EFxkTHIhmczFhzuPjCr8oiI0lpvpUtNkW9nAMkwhWcaZZFxjQmNSULPCRGMssrJoVXcW3PaLH12zfFuNhplcb7Zwc+6B2lX3fPzRpvVZBWqkiZVtGdQsESAZW4keh9zFBgY8A2x0Ay7+m3ejjwrJlRquoQDHMD1KN2A0BYabwFA9xdBYHV3dFQx0cbnYATPJc2kGMPUEhkPikRlqSYrUKOLO+x7BdT/5FezFL8ITY6FSwW1IHVaxByQpvSVQI1WKYDOWWgfUCLwUzz8lUMutNQKJlOuIuIaVw4NIZKpc39aGZ7FAZ6iKEKe98uU46YACusIMJUSKmMvJ/xQSss2mpzIswyQOXXsGTZxJyrpiCIhXxjhIoJzWj6ijve5iEMATIfD1H/0aa+GiqRcgbFcx81kWo9s1FKjF7VaFubuZJz87NZt03PpYDa3aGDSRoMsrAnGEVm1EyYIv6O3GkS89ALff9r/Yb//9ceQrFuO663+LeoOAy0CcZEgkxyuOehUGh0fwfw88gFKlB8VSWfHXDJ1cZg7Hc+H0eCqT/fs77sCrXvoSBa5F20XcjFGAjmioAaFncPfsQQAfzbEhOJYLmdloNAN4rqvijs1mXY1hsVSASFK0Wg30dFdVBposYLpXzWauDKJzjaw72WjUxhzbHsqEtE1d08G5JYVwvEIBfquVl/aqdIlUnm6uX6wW9Rog7zhXWlcoR/hFf1arJElCQKb+ntuWyrlPGJNxIW3d/bPL/+WuNXfdcclMgtXO3tecA7Vzrrj3ohW+eWniVa1Y3zyokcVN0jPUj9N2JUQwDDuug4+uwxF79OK8U45Bnylghi1UHQssk4hjQgtNkXhp8qXEcFcdp/IKGvrJkgiMk6IHyfLEGAtb0J0ShjKJ//3dw/i/lSP4zZODQNeeSIu9qFH9u+W0tf+nYqllSgufFgI1ylySVUGvcAK1WIHaCOpBA91dJaSNMVRECDG0DofvvSfeddIh2BdAmfTZSJKI6h/asSOqLdXIhY3JAxpvnDBRxTDhpipkb0XE8KdC8zwzKjWuaB33bwAuX/4bDMFBSy+BOY6ih3AZo8czFaiFcS41RPvN5bfHQY2+27B+fS41RCGAKIRn6Cg6rlK9bdbHYBAnUOdK940bOh586BEsWLAAYw0qo5KqeqDWaCpBAo+SJZTVVW36dDTqPqrFXrW90+WgPrwGD//iTrz2ZS9Do1VXROWslSCtt1BbswELFi/Efi8/BGtG1mDVM49h0cAihC1g7ZpBvPSIl6k4ZpTEuPPOX2Fg8SL1cjno0ENy+cs0JYE2aLqOhOTffR8pZZddR/EjqTSrt7dXAR412iEqSqlUUmGBLfv/RLfJkyv0NOa2badMLv9st33No6xSqvBCpx9EJa0NPXrD5Zf99prvfnamgGhbYt8dOH5Oa4gZOok5B2rvuOLeCx/xzc8pUFNFzuOWmpKiYdRYOAc1iq+ZVCsV1eD6w1isp3jfacdifxOIR9Zi764K4qAJy7SQRAJJlsI0beWaJVEAx3DQHG3CNGzwogNuUyPjTNWKclLvQIZWEqoY07qM47dPrMeP7/wD6noXqnu9GGtGmwhJ7JDlahtqaX9um/uZKdlquom5+ymgfG7V6o+aNOtYX6thQ20UlUpR0SeqmkQ6ugFFpDj5sANxzuELUJ6g657r0I5T9bb0nNEEomAMUTfGiJ3PodROaNuhEPj1ilVYfveDaDp9GBIWQsMBs1xojLh1KbrIUqtWkEbxRpczb/TMc0tNUTsAahxD/DpS3jCp6XSaIYtC2IaJYon6qzZhu5YqBVPtAElGhVRBhESZakBHxuAVy9AMU/VcoMRJHCcwdAsFpwCeMegaw8K9+zC6diUe/eWdeMWhf6IkjvxmC7f+x7dJ9RMIUyx+2UvwkmOPwoqnV+Cx25bnAntUDaI7OPbMt8ErlzE0Wsevr7+BWokp2amXvv0diEhO3C0R+kJyQ4kcUHE+CSv0eDZkEmLVqlUKxKj6g14opOVGBOn8pbIVXOsgQ3u8cumB8UXtS/2qUkfjaSQm0RWPRc/e8t2vX331dz99AKPw3NxYdk1Qm4azfc4V93x0hW9+PvG67C2BmoqpUeyJp2hmAYKxdThyj26cd8zhOMgGeiiWFLZQcU0EzQBuoZjrsZHuF8kUJUSNCJWVhSYFXArITFsVeDeJNsIZiqTrT9UESRPDQQCz1I+HIoFHasB//vinUi/txepCg2ZrSml2OqBGnAWjLVlN3ejpwVb9GBSo1VELAnBdR9gaQ79noWJxtIbWohw38FenvA49pkSxaMO1oawGha1kOU2MtW3yvCtrlSwpqgTT80J+qiwYHkqxcv0Q7n9qNX731FpYA/tiVBhKkogmMyjDmKWoujq6CWgpE9jWjyOXT/VDVeTjHNTIbavXm0iiGLZGSr2pEhIwdE0JO4ZZgISoN1GiaCL03eDwqNJHo6UVhHAd4tpRkxV105W0EP1ONBfEKaJWHQOLulBb+zQe+8UdOOpPDobjGoiaPkp2QRXjtzaMqaqK0t59iP/YKtEfHoZtGXAcD0EQwHE9Bcgj9Zaqiy1Ve5FyDdxyMVJvIsik4klGqVR1yG6xoKhDtQ1r4Vm6ss6IHkTnlksgSQVsRDze2pL7puMBNnLjJy4dkcvcFibRTsqY50TnSjIWB79desmSb37la4yxraPnboR3OxTUttk0ncYAvuOK333kEd/4QuJVNwtqkifQ5DiowWKIa+tw1OJufPDoF4HVQizgCfYoFhG1mqpgmhKMBFihkoQOIUUAHYGaZGEjJukOhE4BEckbqVIrwKPAcr2Ovu4C1tdHEZfKGISOhwLgsqtvx3DoIrNK0ItuHuadqqXWrooiUDOoV6mS1CGLJy8IXzfWQJASp0wiCBtwNYH+qoeoMYrG6qfRlQWomLrKrir1V4uklfI2epQoUB3gJ1iQHTmfvHUdB9nBjucgDnwMbViXW0y6DelWwQpdaDIPtZQhZrqylpQ0eBqiYuvorpZU/4a8H2ouDUTcNMLlHNQ4RmvEgyMycKQmuK5pqmaT4lXNoIkwDmC7NgzDVCBA5WBEAyFpbprQPd19eOaZZ5TuWk9/n7ouAsokTpEEAQa6upDFLeyxRze8xMfdN/wIr/nTQ2BqUG5v4sfo9kqomh4ikWAkbSHOYhjU+IV04CzSevPR8kM4nqf6PZQrPWj6EUbHmqhUe9AIYoRxljeJERyca9BNGyOjQ6AGUrqpKXEEOtoS7qMAACAASURBVH+y1Ah/hBTqfozLiW9mUrB2i8TOi0gZAx0pqvxLsmhpIeeUYn4EbiqlIIFi2hp+8OYr/vu7137/4uez1KZhZ0xjNk9t0x0KalM7xQlbbcPInnvlvR9+uGX+fexV7Vxja7L72QE1pQbBUoQiwYKqhdZj9+MtRx6Ks4/cF32qoB2wNaAW5dppVBqk2BPUyAMBDDTBkhSuUUILOkZgoi6YElEsaUAfAzxq7hFnMFwNjwUNrIKGr169BA2zDz4q8KUNbpvbFlMrltHdO07pyBMFFFPLo8YkeEiEX+o7mSvH5qC2ZqSmzkkSsZhRcm4Ens3gkq5Yqw4rTWCQThnLXR4KDtLEp8lEmd+im1cUbOy/qQAuf2wUVSYNVdA7IepHliixRZrpG+oBxiIBt3shqJacGGBUysBJgDH2UXZ0dFWKSq9uS6BGlg/VbhZKBLYu0iRRFo2SBGIEDlzpsRVKZC1F6m9kfY2MjGBsbAwHHXCgsuAIKMjlJAuIfmh7AjylfOvXUC2a2HevPhitUVz7wQ/AKHtI6kMoVMoqntpYMwgk5EI6iHgGQryiYSBNAthFTcUsybISYQLd8ZC2fNWvQjMsJC2ytKhfn4RG0uNNX/3b7u5FWBsBFB3GB0i3jW4QITi9SMhCK5Xyzy0ulDJo/3HjTN5kSquYXHs9JRzacU7pWYka5bh52/CjD7xlenNzGybm9A6wXVtvBdR2rRPd1qs66/u//buVsvx53yxYLZHA1CgwnFM6KKY2CdQg0MxSVBwNTn0dCv4gjjloL7z5dS9BFcCqoRjFLhM333oPHn7kUey1Rz/ecMJr0F/UUWShcrlIbWx1y0fLKePWu+7DXfc9jLJbxt+efaqiSlAsSHeB36x+FjfcdTceqUskxQWItR5EgnTY8pzV9ltqFDcT7URBpzkzgVs7qN+W7lmzbjRvYsJyXhvFFCHzjvH0jU71mJTBbM+ODsm0M94bHxDV33Lyt51GKeTs5mHq3A2iK0pY3o4w45ZSsKVMJFkIrqEjiwK4JsOC/p42FWLzlhqB2vDwqHIbs3YTZtU+gHpyEqhtbBM47n5NbHKcpwXzk35OC0H1nYBnawibgzh43wHsYWv42hlvxotf+mIctN8eaNZH0dfVDZkIdDklrF67BoUFvRitjWBhpYuE85BoeQyVQJSsLcpoRkGA7q5eZGkK6n7YGbbxpso5DYcsUlJtGbd+t/UpH18v33dOWs7fNJPdz86aRKKmlxQtFKdbuKAf3/2Pb9VPeNUrvv33//DFv3/RwoVU6DInlt3LUtuGIT/7+3df+IwsEaiZWwM1iqnRBNww2kB/VwkV6SMbXYUBK8ORhx6AQw/aG1UP+PFP/g+Dg8PwG3UUNIkPX/AWdDGgi2WKxkA8qCY0PPLHTNrXv38VeIEeZoaD99gLJ7z2UEUXufvxtbjtd7/FE/UW4tICJHYfWlkBQhoqaUHZqLxNyfYlCqgFHfHU6IGmfZCCrioMVyKLFNEzsHYtgRopXlAjZxUpQ0bhk3YIRaMoGjXlbU+OvDphYqh54qBPFqDsgBrJo49bAHklANE9CEwJ9FUPz4QSNAy2QR2UCNQ0DPT3qBiZumwVR8tdUNWfoM1XqzVaKrZHllVC/TjJEp3QaFiShLrK7E2ezB0QU+q4G0Ft8nXlGcEQaWsUe/V56EeMH3z0Q7jkog/hgnPfioLFVLaULDotY2Bcg/DyO0XPjwIsAxiuN8hylKZpsqJtoFZvwiYhUp3oQJ3Qfe4qbgzaE6gRjUXLQxZTXSZe9ebumqLJqIoIotxI5b4HYYhmvYF3nnvu2Ev/9PB//sQ/fvGrfYw1p3oOu9p2cw/UfvDbjz8jyp/tgJpBlPAJltpG8q1qZktvaR1l24WrxxDxGLJkGG6BYWBhH7r7uvGT229HT3dJCUE2nn0a3/i796hsYW++V/iZQF1qCHQDn/vOlXAX7I1RP8aGdcM4+EUH4ID99sW99/8fnly3AXqpF9ztQy0yEcYWBNdgWQQwFLuaCqhROj/Pdqn/tyV8cpkPKgjXsW7tqFK7yEFOKu2yDEQvyN/aXOapgc5ko39tVOV4ztM6mS5Af1at7ZRxqOzACeq7eakWxbLU2UV5HaltUiObEI5FoJb3KOgsqkSqDWYKGMEwPDpCVWsK1FSgn1bgTLmeZK2RjFF+vm0KwyadMw0tDzqOX9/4RREoJ9R4hQjUfUUU64P4zkc+iH/7/Kdx/tlvUImhWn0Upm6pLClxW32NoeDa0PwEISWRvJKy1EjJqdnMu1AFQUuVnaWCCL62aqKsQF/FwPJ1lGVFLxNB47956ypH+wmp6c2gx0TLdHMWHxX0E12EEjL0Se43qR1T3PGII44I3vjm07/0lS996auMMVJnnxPLnAO1M39w1/97VlQ+45sFfXOW2kRKh55psNIqKEyiGQK6kSBhARrJGEIZQOr0HUPVs2ClAUaeehRfev+5SkCxh7J/Saq4URvCBLFt4Av//n1oPYuQWh5GmqEKjNM8DKIYxUIXXK8bjRZDEHGkmYUg8mGX6dmmibn9oKbiOG2lW8rk0sShXpz5ZKBgm44Na0bVv2k96gRPEyxlqQI3pZPb1m/rAJNyX6g9nDqfCbT1jciziUXU/n7cyqJi9LxLeg4mRDAVSOMEGnVGJz22OFTduKhF3kRQo/U7E7Ozv7E6JQpEXl6lSrlovPKu8WT5UcJATewOFWbieVK/VwooTmiaorBEBcrz8EpfbxWenmJhQUP29KP43l+9F//0hU/i/HPPQOiPoaeXIqx0PRqGxmoIuIDnFtFN/LyREF7RpmoorFjxOPY7cD8YBlMlVrrJEUaBUhemMVcZSgVu9CLKbSoV+4ypUUyesd60cmN7flf7In6uqg0ZrwAplUjWigCNKtlCxGGEYrmkXkQv/tNDwze88Y2XfeFzn/1ysVgkvvScWHYYqO2oCN1Z37/7kpWy9CnfLGgEahYfj6l1yqQ65Fsj5bAjYnZbKgmQIEYIUrtNkVFBnSkRJ01VauVQt6U0wBnHvw4LXQ39eYtIZRT5AlgzInHVzUtRXLgHVo014RN/W3cg6A0vNFTMMkxSqfApzkw6axZGqClMgcQop2apEahRcxM6DQIzAirivOVLbq2tXzsMThptkprO0ISiIv1ElfwogR+pj8ebJkx26p25WTOBVGk3PjXjQCyIeLuxGD2fsAQ2ZC8q2kEcKjoBgVpMjaJtC/39vWqyTXKbJshlqwQIkVVVJjb/IWUQlcWjSgpO/VXz+NQm5Y8bQULXKfs3HhxX0DEBtMktNrMQ/dQY9JnH8N9/85f41y9dgr9+79tB1ZZ+7KvEQ5bkRN6GkHBsG1XmIGtSr4UKblm2HF/60pfwX5f/F/Y/8EC0guZGIKNooWoO3bZk6dgTQc2BpeKuMwFqCjTbL6XOJ71UTUtXiRaua6pC4/+39x1wVlRn38/M3Lq90XtfYCkqn0qi+UQFlbrA7lKkCVi/mJA3nyWCriC9iBASWxIrERtCIJZEo68JSl4LimJF2sKCwPZ2+7z5PzPn7t1lb9l777KFO/yW22bOOXPmzH+e+n+MZhPFWaw0ZNhQ29Qp2evWrFm1XpIklN5oE9t5A7XzNVt5W/9nWYE7eXGVOUGuATljA6Amcj/hAU0A1TSIDz0SVSBqHSqVxUSyAZ61GrJaFHLUFJPsqibJWUVGFPuoqeIkawThIoatrKKGkuISyZqYQoaEZPqm8BTFd+xEZXYXmazJzACSoJqYFx+uSASQwhPoUtxUrdaQR4EK13hJjZNndPXRBVBTHAxu3ptWVeh0YTHJHjgDDGxTAfB5IKnp4KGBmt433+w6JNZT43yT7WsdBhqg4HCwmXDgLGcmaES5+APkwjMLUIP6aQJTicNBJgtK5HVg1fKczQtsHg5AdaOUIdLNPJDUEGCrxXAB1AySiSRvAWcN3JgiSc8lgtqqwbM4sbodglkEoNYtXiLzySP0xG0LaHP+XbRwdg6pko2siXF0+uwZMsgmSkrLoLMOO5kUEyWhHmyVjeISrbTz1d00bcZ0+uzzTylzUH9y6s8Vh8tBZVV6xXtv0r7WP8bIAcWkAXO0tvoOEXh+4cBQjAaO3dOK7RgoPt5CWVlDq8dPGLfuvjWrNqZJUll0xhCJ+BLJsbWjb3OgNu35j5Yf8yQB1MgvqCFOjaUsJ1mTDWR3O8nukMjtNJAix/GN4qp2kL2ynNqlJrAHVUEyswuBnk4O9uTUF4+H2rfrTCWnzhIYyDpntGcVpbC0mJK6d+MKVC5VJovJQlZSCLmhsEHZHNVkl21ksiK8QLvZwgU1BRXRoQorTnIqLvLIkMJ0w7mq0JnCIr5pFI8GagA0qJ+QHjSngIWlOO1mqEUyvdBe7UrxIlndGxBOAkhuLpbUNHYQqI5gQgFrBaLmET/ndtawZc9kNpLNaSOT2UztO3YiF1KZal2sXvucSNcCxYQTDxKXm5weFDTWaJCYeoKzB2ptUnxJdUkSkibGhcI5AkS0kxFeWrw3kBFBwXY7dTDaiQ5/Q8/fPp82r1xCP795JklGF5VVlVElYtCsCfTS9tcIZrPU5FTKGz2WKotLKKNjCr333j9o7ty59Pbbb1PX7t04WwEqc3mlFi/nlRP5PGvjyHCOUAd97WKNBZZgNzAeCrCjIUAYdSnAG4gx4LtBgwbVTJo4fl1+/v2bk5KSihrbdzT2jyx2tWEQDDYn0Rj3eW0jb+sHy467kxdXmxPlKreWkwg1zCUhtACnC7ULkIQnvoNq1DIGAb45PGYyAn48ZrKoCplg6HY7KMGqVaQqAlhlpJFqBF2Nh2ocTqoqq6Y+3XpR8bHjXPgYdiKHpNJZp4PSu3ShoydOcECoAzl9lZWUnBJHlkQDlbsqyOl0U4IhkRSIOn68d0bFt5hxKqmeWpJI1Mc0uLWb2gUHgCJUUP02UmU6XXiW7UHM8cWBtB7el9UgH1Dz3lj1HvVC4tE8qjqRo041zsnRuuFbk9I0YBOSEmxpXCcUsW8Oey2osaQGUIOkJpKy6qqIAnxw83lUFzsKEAwsQA1ghVxKxPLCWQJprRYcNYkNGxTWc0FNW5IAQHuVgynOuiQqREe+pedvnUdbli+mBfNzye5AmT2JalCImYzUuXMHkhKTmAb83b+8SWVFRdSpczptf+1lWrRoEb3zzjuUmTmQPb0V5VoFr2+/P+jzYKh9IIji00YvPUp4t0mwGxglApELi3lDMC9yT2GPtFhMNHDgkMq83Jyly5bl/06SJFBEt4lND+Kp85Bu1Sc2f/e+RV+XupbbDcnxZTYPJcYne21KbAtCHCRzMHpIld2kepArIGK7oE6BFBBqnXZboCYk6HLAa4anLjxiyB8EICBFRvFI5HKAJtxEDreLqkFVnZxIBquZSspK2SYE3jF2qUNFhKEedSsVAIJCFqeJ4LCoa1mqVZUQD2s0KUx/beUwAYMe8e8kRFIoqkkzOLMxWjtOZSlMM54jf9HlcnOOJdQ+tkuBz4HVN/yJxCj9kHrWKZ0iQq8Cr6mUosiLFl8nQKM251CAGlp0IngUhh2Am4w5NJDZqgXBchQ98s7qbdqiPEf/rTdHIgZY9/7qklnwxesrjRLJLhfFmySSUUCn6AQ9N2caPbr6frr5ljwmy6yoBKAhwLaKzhSfoYqys9S1azdKT+lMDruTUpMT6O13/kYTJ06k/fv308DMwWyQR2YF5vvMGV/7+7lqJnJbMRd48OE4jcEjngFIqz/qYZteamqaRsUhSbwfqmuhD2FrxGeeNT0DBPugXaicXHRHUfgV7UF6M5lkBrXcnClLHnpo6WYJQYRtZAsG9K3qNCHKTtz61v2FDtNiSuhgUqwZVF5azZKaQU/4BaDBqI1sA9yeMCNrMkjDG4OAB5KGkxcG8guxcEQdTdmp8u9Gaxwz+pVVVZNkMDAA2mqqKc5iZskQBnqP7CKXDFDTMhTgIbQ4jGTw2lRqpRXNU+ZhbjOTyUhxcRaulQkgwPpDnxyz5TFoCo2vIalWvCJbjZ0ZXZ12qM1OcsOIBYcAQjdANW531hqgfI7z116d7wUA+gn4xLDEfIlcRoA85gZ/BqOQHkXcQuNfOYuxsePW90fQsMHpoDgzYsWcFF90krbOzqXHVi+hBbfmMqhZjElUePIMKWYTU7Enxhk50NbhNFNRcQn17dmL3n7777WgNjCTbDatgDRATStF6H8DGIkMB0h4eM+eXVTscrn4ocilAK1Wbi89PZkqKmroxIkT1K9fXyovr+C0LwAV9sXxmFtsviAJMASooU3sazYrkDgrp+XlLV6+fNkWCflabWRrU6CGazLxz3/79WnVsqLEYzYr5jRy46aHJw7ZBFBHIKkpEoMKNoS/ivAD32sqJobBQ5J44eAV4jwWDp6oJlQ8R3gB2GItVmZZLQdxvgTxXss38Lg0LyO71eF5VDyal1C3e5ncCtMXaZtuX2PVUAsB0BasiUEtLt7CC5azmfBEdsN2ptFN+/OeIekeYRMuF9KfcNNoKqgWP+Zh1pHGhA5o1Qw0u4w25MBLCDekkB54lIgvQ7I/aLJlmZwc5V4bghCpF7AxxyPIOBioqS4zVVbVUHFZGVnjFaouK6KOHTuSm+I5Fz/Rag0IagDAYJuYD0hVWG9FRUUMPniAwdDfpUsXBjWsu4KCAl6HSH4X9ESwl2E+AaCoyYDPnK6m8al5gRVtiHbRdr/+fStnzZx5//LlyyCptTFQi47TIdi1Oy+/z975Qe4PFbZHy9zmdGNiGlf6hhqGWxBeM6igADQAG2wxqgPSzrlqgRDGsYDE0xKvWsJ0BZWXl3NBXqPLTiaD5vWzOZyaYyAugcygl3GpnDIjNtixNEBT+RXTDg+YV/DnNxroiJgmlghNBopPsDKw4SkrQI2lH4BiAEkJi5cdBLoqw95DkaSuS1KRXRgfcGtAYnLBFSiBeBJnhv8QmY9z5yx+Btrm2jRQc5HFjMCTWknt0TVLaL4uqakOE/344xkyWMzUrn0yyW47X3uHG7Y+ooyU1ICg9tVXXwU8PSHBYl1lZmYy0OMYLkBtNjPAjRgxgt8D0PCQgMRWWFhIOTk5VFZWpnm13W6NtcRmY2DDwxdURlBdAWbY8KDFsVjHDGr9elfOnnXjgytWrHhEkryxQM11OaLWb5uT1H797mdX7Pny8GYpOX14asdu0o8/nq2N3eF4LomlJaYdQ24iCgfoAaiY1foTwkneuq0CaiASv7GosZA6ZqRSdclZijebyOn2UFWNnWR4OuOSyOlSqbICcUwoVKwZsTn0kkkQtej7c2xgPkGi3Kl+0wPU8BSG+glJDeongxPK3SEGTQ9aaGhViNxH398EsPmCW3gryudhUC8+SsRJwdbIkfTsJtCof2D4Vz1a3VJtfptHSGBHhstFVhSYUZ1kLT5JL8yGTQ2glsOq/8ljxdSzd08qKaukdmkokEM0duw19PL2t6iquoYSLJDUYFObpNnU6qmfhw8fDji1kLggzUGiysrK4uv77bffskSlGfQtbOjHQwmAdvDgQQYpSHUAJoAh1gbADNca74V2gd8BcP5BrU/VjOnTV6xZswoZBY2iHorMaxneagt8VK1k1uZA7Zkfiru/seeTqaUOz1S7KvdUQJVAEsQ1SZJVznbxyJKMoj+QrmQJWXwIw8fd5cEueAUQKdhTlg0yCv9CXUPqi8fFaS6eOGuCnGi1UNGpE5RkjWe1DiX4FIOJnKpC5VUOqnGCKzBNSyhHPqNeJErjv9KlRqU2GNN7c3tFN6iH2lMVgIYFDpZW8WRmUGN1UI8X85qX4OjQQiW4KVniRGtOL0KVTjgtkDZDKiGNyI85LvD3Is5TT3T3Z9ayVdeQpGgpTVqwu+rtH+NAMG4o/QtfTqPNZ8INpMet+R7vC2oeclJckQZqv4NN7TaAmo0UNZFzf83/SS96aPkD1KNzO5aK5t+8iO2VGWlpASU1gE6gTRj+YWbo3LkzgxMemt27dyYXeNyqqunHH39kdTM1NYWOHDnK1x/gBSAUlEUAOdjx8AepDgCoSfkwXWh2vfrqZ//+fWumTJ68ZsOGdWskSQIZTZvYWiCoRa4LP/n58a7HTpe1Kzx1sofbpaZJKiUbFNWkkgeU8LKqIGFH1bNTFLeKOFs2nfHtpaiSxyC7FaMkq0ZFNkg1tupEg9HsklS3w+X02BKT44+pHtV89PDRcSYy/dRitFhY+pFAB6RQabWDVFMcdezRl34stZFDNhKor5klREhoUEVlj6YKewUeXWLxAbWkpAReuGaLUbenyayyaSEObm81pga9lBIxoaJkUMikGPgVqUWi/BteLUaLntakp1VqhPh1vZ0BP4vc04YtYw6bjZ8X7LXVWVjdLGW6OVPAYkL6lhb027h+I98flbeMTk1SA6hBUts2O1cDtVvh/bRR6VkIMDLFJSVS8dlCMoG5V1EoNbUbFZeWUVpKSkBQg30r0AbbrHAWAHQgtQGUMjIyaM+ePZSUnETdunZjiQzqZ69evWj58uX06KOP0qeffsoS2xtvvEEXX3wx9evXj06fPs3jE55uABqO9eMosI294YaNmzZtXC5JEsIA2sTWAkEtoDbVqEmHiKwfIL9HJLVrIHP4DJHcTheRfEuNHdc10a5EahmSDDSiVxQU8VxF5H7vDMW//ffXr1lxzwObyK324Hwfi5WTnqnSRtSzPw0dPZYuu3Ys1chW5vJ3CVZXzgPUIqicqHjObKXnAhr6w5MX0pnwFmJxMmMF852BZffckAjfSWJ2DEUjIRQ00ezNFWlHkWp+Aex5GAckD9E/h7cA2HUbEMahMEtkpINo1LLw7ozqW0ank6wmYx1Q27J6CS3UQY1ccXT2bDER8745uBAPs10YUuhscQl1aNcuIKh98w3KVvvfMAcAHeHBxHXB5x9++IFj386cPk1vv/MOgxTUUNjSZsyYQVOmTKFf//rX9PXXX1NeXi6NGnU13XvvvSzNY61g3WDu+/fvHyCkY7DtujFjNm/atPEhqQlYOppLRW2ZoBbeGj3vRz3y7AuXLbp50U6SDR0kqIUYAW7yhBQiUzz1vX4iXT31Rio3WKjKYCa7BOpuJv/hMA/2iSLv1NeSVydcSNzs/m/6Zr+AQUBNvygiVqOBawSAr/t1gJ2jeo1R00GqqaF4i5FcqoPiigrppXkzCaA2/+Ycdh4A1E6eOs0BuO07pFDZj4Wa5GxOp+TUNHYSvfXW32j8+PG0b98+NvYDgCCh4aGD7ziSHywjujoo3gO84EkFgKFNFF4BuCG27ZZbbuH9IZUNHTqUjhw5Ql27dqU333yT1q1bR08/8zS1y2jHUt6///1vuuv/30VXjbqKbr/9dlZV8Ydx4CHSo0cP7YGGP3jsrVYyGBTKzBxgv/666363atWKVUlJSTE+taiurlba2FNPbR1+y8Lb/6FIhlQJHk1SyQHhMDGZyJJIA8ZNpp/lzKZSUzxVGi1kk3WeMCZo1Co3qUz+zV4Ln4BT3xAHfXL8eNwjSbGJzrRHkrfYPBKaOG/mn2Njv5GcqoOsxRqoQf28SQc11YmYLgudLi6lLl0yyCqrNHLkSHr11beYfaVdempAUINzSUK2hV4VSsSQ4TMAB8G3ADN8hnSF34cMGcLey127drG6CUDCfpB0UTVr2bJlDF74DO8nslg+//xzuvLKK2nSpEn03HPPsRoqqlNhP4AlvKNoX2RlXHTR0Jprrh69ZeXKZauTk5OLo7Memr+VZn/QN/8UhD+Cbdu2D5s3Y+Z/GyU5GSqUkzzE5MtJqaRakyhz/BS6Im8eFZkTqUKxUI0BFEDMLqjKHgecEmRQUZ0dOYwa5Y+2NQBqfsWX5gWGgFxgIU9t85yDAYbUGg3UwH0GUNs2bwb9bs1iuumWHK5jWlaEEI5qSkxNoW0vPsvqJySgiRNnsse7S6cOAUFNgJkWNC15pSd8xgZQAtgI4IGB/xe/+AXnkb766qs0bNgw3gexatu3b6fbbr2VPvr4YwY3qK6Q1DCeJ554gpY++CDd+5vf8PGnTp2ibt266aqyP1AbVj1m9OiNS5fmr09NTQ0eUBfy9fTZMXITeaN7DQxqzTCgRp9BMx6wfdv2rBkzZvzTJKkpYKAAm0QNvJqJKaTGp1Dm+FwamTuHis1JVGGIpxoFtD0ImHWQQbVzJoHBE6cTBYoTCfUGr7XDIUVKXCrtVdJyW33kv7q/18qFEX8fxPsZmrey/vijOD4fAqX684GEe8lm1yQ1HdReuGkGPbp6Mc3TQc1RLVFpeTXZ3Hbq1b0bnTx2kEBn5HKZKCWtHcVbjQFBDaqeKHcHcPr+++8ZpGD7wvcAN3g3sR8CZhGCkZ6eTgsWLKCvv/qK1m/YQJdddhnbUEePHk3z58+nefPm0cmTJ6l79+4s0a1Zs4b+8OST9PM772RbG5wPXINBllm9FeonJD4Aq1A/B2QOqMqeOHHNvffevbF9+/ZNynx7Pu1rMUktAlB85ZW/DJ6el7vHIMvJZnCUqR6qgcMgMZnc1hQaOH4q/SRvARWZE6hCiSO7osVqoYiy0WPjauqKB+pnYGN/g0P0SnZaaEi0vYcCjIK3q1UnCIviEDmozeD1FPPFCfl2B8VZzeTyOMhSfJL+PG8mPbZmMc3VQU1yW6jG7ia7B2X4qshZUUqpqelkNCZTcWkFde3cnkFtwvjx9GkDNjXY0wAkALH6oCacJgjhALhB6mKqJbebg28feOABtsm98sorHJC7+L776IVt29hehrYGDBhA//jHP+j++++n6667jm677TYOtoXKik04ifyBWmZmZnluztRlq1atQEJ7s4R0NAXYxUAtAlDbseP1QdmTsz8wKkqyCXQ+qovsbpWkhCRyW5JZUvvp9PlUgopThjh2FMBBoHgcZPbYmb1CJQtTbQff/NmudFbV4A0E2SMcWPJp0k/wbX3SwnM+e9XtiE+g0Q0gqRgTKgAAIABJREFUpEN1uLyghpCO5wFqaxezTQ35oLInnk6cPEPmBAslJFgoyaRQZWU1S2pni8uoV48uASU1ptJGOp4f9RMSFexdCM2AGglpDZIWQBAhHPBg9u3blzZu3Miez7vuuoszBUSGAQDrgw8+YCnu7NkzHNcG6Q3qJwAVQOnPpjb8omGleTk59y9b9uBjkiTV8qo3eib9HRAtVa9x7YQIar6NNq6DqM1PC2xo9+7dA8dPmLyXDIYkC+xhHhc5YACOSyS3NY2yxuXST6fdRGXGZKpQrBzSIaPClQoWXRtXYHIbLByY67v5ms9q358Lal7u+zpHh3t9wgM1Lwtu2KAWqrrd8AKIxFHCM+XwMPuJgx0FGqg9vkZTPwWolVfZ6dTZU/SHPzxGttIi6tdvAM2cuZDiE1OCqp9CzRRFhQFG2IR6KJwFADWoizDip6Ul0b59X1CfPn0oKSmOTpz4kQEPtjcE4B47VsDSGsBQZB1AQkObffv2pNOntfdoU+SFNuwoGFYyY/r0e/Lz73+yBd5eYQ8pRFALu/02feCOHTsGZU/J+1AyGJJMnN/oYI40Q1wiOS1JdNnYqTQqZzZVGOKoRrKQG1Q/HicZPG5mW+XFrSjkRKQ/kxtqtQFqX4OrlVqeaG24PPOehWbIClrUI5SLV78ieCjH1N2n7vhDSi/wPV+gaqjnW38/vgBupnVy4bqUnqbfLZxLj61bSjfdPJ1DbwqPnSGzNZ6s8XHULiOFBvTpRf37D6BXXtpNh48epd69ewaU1JA65S+kA98D5EQICLyV8IBqDBz9vPF8sLP95Cc/4cBc2MOQD3rgwAGW6iCF4Ti8B8AhIBceTgAg1Fq8+lM/B2YOKJ4zZ+5dDzyw+E+Nv24t6whfNTYGahFcmzfffLPvDTeM+1yW5TgEyCI4EguptKyCPKiMDa9mQjKzdhBYWmF5YtELOUa6hGLUpbQGJZ0AVm7RDsbfADd9ULUvtPiyEGYnCiEd4Y4/0uM4wd6jGQTdHs7asBeepN9v2Uhz592oleIjhY33TGyAAtJOO9u8jAYrOVxOSkvNoL+/87Zf6iHYxGD4h/oJOxjsXFAJ8RmqpZDY8Fnkd2LSNWO+gW1kkLgAXHjFBnBDyIbwnMIzit9hhzt06BAfAzCDhxSqLGxsWoqdxn7M9UkNBho8eGDR7FmzIKn9MYQL3Wp2iQqohafwhHdUS5rZN954Y8CkCRM/MBgMadUoKcS2EzM/MYE5vHC5LqXmkRSbIFnkfAfEL9XenKDjBW3IOQU0/IKU3npY/kKtMnAw5Azwu8/VCFv91GYnrPFH4ThJAQuLTM5KrUJcRseOtGrVKsqZMpWBrKKsjCUfLsfn0Kq9w2aFtK+yigrKaNcpIKgJz6cI50AfGimBxAAHIBN0TFxxXk9/ExkfACdBQCDsc/wck7T6p9g00kd4ZDX7HMBSsH/gO9jgBCcbwExklgwZMrh41swZ9+Y/mB9TP1sSsDTnWLZv3z4wZ8rUfRaLxQx6aiw68JPhyY5F2b5DBzpbUhv+U0tFqS1GBrWQQEWcZUM3fwSSWmPAsyHQqjP54YJjM44f6qi9hiw6USOzwhpNDGpzZs1iiUqRFTp85DBZTBoJY/t27ensmTP8Hte5U+fuAUENEpLwcqJ9X+onLd3KoLEj6+lj+A7qKP6wP0DNNy0OU+6b9ibAUZBLivg3ABvsaZDi0A6kO2QwQAIUYDh0aFbR9GnTwHz7WHPeR9Hu26+k1hSu1mgPvrnb2759e9ad/+/nr5SVlQ2AH1MzxibzwoXYL+OpKIuScrVq2rlxtJEZy5uLZLHueYTjaGgo2DhIO95QlnD7q3scHkbYIMmkpaTS2dOn6fEnn6TZN97IYIBIfkTso9r67Nmz+RUG/LvvvpsLLaekIvfTv/rJUh4kd50tmVVan8+CCbg2SBcSl5PHwySaeu6ukK4wVsGUi1ccLzbsLwBLgCeOE7mgwoYn6LSGDc0qycnJyV+5cvlvm/teimb/UVE/ozmg1tTWjh07hmRnZ38sy7IJT3XY01iFycjgJ+KZorO8KDWxzLfohuYA4K+ZRTbSLexIsXAjzM6tKh6R+tl84+ekeqOR3C6QRZr5ej3yyCMMYLj5IfEAOM78eJpuuOEGNikgGHbTpk0MICZzPL3z9ts0QdQoqMenhiBZAU6aZzONbV3oBzmeooQdpDFIUrDL4j0CcoXnEqvDlxfPlw+Pyw2CGl23l4n1JijTMX7kjApiSLQjyA0GDx5Ymj0p+6F161ZvjNUoiPQejOrxzWebe+211y6ZNm3au2azOVEwywqqGZFQXFXTMKOLVhIP9pSoTkYzNBb8BAJfodCl1IivdAMNSIpWMwHg4HQ4qGu3bhzMmpuby0CSnJRMhw4fqlU/27dnMDIoCpWUllLnLj0CSmow3AOkBDhCyuvduwfV1Dg4SR1/ABnsA7BDQjyACewb6Af2MH746YzFgtgTOSNcr1ovGei7jwAuAJkW5tGXPbCQ2jQTiQaCALWJEyasXr9h3Xq5hTHfRqIptjFJLeJlfw4oBJrcF1544bIZM258v1evXqYjRw55Oavw9IUtRTMENyyJadRtYLBtBhyKdalLycTSEcIosAkW2j/96U80Z84c9iKigLIInIVKiGubnpZOJrOJTQzJSekBQQ3ABODBWgDYQIrHHz4jNAOSnMjfBPDAU4l+jh07xkArVEpR/UtQs0P1xHtRuwDgJRwJonALjsE6hGcU+wpV2KAYSFZkysoaVHrD9dev27z5kXWSJDUfr3r02Mb4OrZ6UIsE0SO9t5955pkrbr31ttc/+ujjxKysQV7+dyxGLCatTJlW2SfkLRLenUiODXmAfnaMSP303/k5pxTgHMM7fZnVPIADgAaS0YoVK5jLDN/DVgrQw/WEl1FIXQAQ2FA7dugaENQAmlqxHJnBSlAS+VaMAsjhe7SH/QVXXseOGVRWpgGuL/W673sulqzz4wnPKfoS6qag9oZphCnh6zgKBpeOGT1mw5Ytm9c2ls470uXSlMe3elBryskJ1vazzz579U03LfhLQUFBPIzJHL9k1IzCtUbc+uqV72ehuonX8G7LYOP0+b3JO2jEWFrUrgAcPIQQxPqHP/yBbWoABEhmAIiKqkoGLzgOkEh++eWXszqXkd4xIKiJAio4WTzssDYQX5aWlqbigSzqeiIGDZ5K1CcQLLXaejJ6E98FKy4kO7wXXlO0rZGJGpgSHK9C+kR/qBkK5wNAWYAp+hgyZHDJ6GuvfXjLls2Q1JhgJrwt+hpSeOPQjoqBWgSz98ILL1wza9YcgFpc+KAW3CYVwRBjh4Y4A/5ADaCA3+DpHDhwIIdY4HXHjh2sNqoeJSCogecMEpLIvwSIOXWnBDMXGwwMNtgAgNjQB6Stiopystu1eigAW1GDFp8BwIiXw9iE7QzHQX0VYSD4Hg4H7Ie+6oNaVtag4jGjx6zfsmXTw5GBWoiTfJ52i4FaBBO9ffv2q3Nzp+1qHKjV7RCM43WYbyMYTzQlsgtFpEMtGGz+QE3U4QRAHD9xghJ0vn9Ia6wuJqBGgf+QDqiVHAirKOxhFdQ/IpMAwIh2RGwavJ+QBjEeqKX4Hu8Fe4eIR8PxIiYNYxSOCAAYxmqz1ZDHowFyQ6AG0MzKGnT2huuvX7Np08ZNzW1Ta+yyDyQbRh3UWpYgKqaqaUYVOahpCcxNAGqNXSMX7P7BQA22NHgo4RRADiXAA5sIjJVkU0BQw/FCjRQ5ngKgoHICgEQmAWi9YdQHmAGMBCWRiGUTaVWwu2HdQMUEKALgsD82ka0gqknBPudPUhsyZPDp7EkTlq9du/b3sbqfF+wtUPfEX3755WumT59eT/3UCnPUD4z0N2W+Rt9g09o00Bys17b9u4j/8iep4ToCTAQQOWxa7ic+19htlJrWPqhNTQS9AqREIRpvaIYkcR4nYsl8g2ch4aEfvAL80J/wfHIeqsHAvwMoBQOIsJfhFZuQ5uqCGtKkZO4rK2tQYc7UqUtXr175RFu6ylGX1NrS5AQ7l1dffXVUXl4e1E8fRwGShrWob99ob79tsaQWbvBpsBHGfg82AwFATfV4PBKAQUhYq1evpqSERHYUzJw5k8oqytlRcG5Cu4Oqqir5uM8++0wv2KwF0EISA1BBogLnGWLTwMoB6m3wp4kHIr4H0CEVCxuAD8fDXuYrlUEFFaEfACoutgLvp6LwfoiLC2BTOzp92vT8FSuWPRNsnlrT7+cZ1NqWrLF79+4rJ02a9HpBQUFCraOgrqQWKAyNZ0N1M69aeNyxTbfULgSbGp+jpJEPOPx4PwFAAIvK8grq1r0bJSUmcYDs7t27yWAyksWcEDD3E/Yx/GEDWwdA67XXXqOLLrqIjfqwpwEkUcl97NixXJUKJfDgGACr7TXXXEO9e/dmAISkhzZEsjvaFI4MqLmQ0IRtjSmNnA5KS0UR5HMdBbqk9sPsWbOWPPjgA9uabiWd/5bPM6id/xP012M04PX111+/fMKECX8rKChIDBfUtLzNQKAmRtpQrmPzzmcDwNcKsVArbegP1OCRBHCgkj3UQCSzg4SAI/kVmZIS0wKCGuxjYKxF/BuA6i9/+QvlTJ1Kt91+O0HyE3mZ7777Lkt/77zzDg0ePJheeuklWrx4MQcB33PPPdShQwYdP36SgcvXDicojAQZJcaLfQBqALggjoLv5sy+8b78/PxXm3clhde7vxjVCxbUwpvGukft2LHjstzc3HePHj1qBajh6QcDsiieIVz2wftqeZJa8DG3jT1804xgVEdw6ubNm+nmm2/mIFhIRXgFOABABPWQUPVSUzICkkSK4iqQ+D766CMGrnHjxtGLL26jEycKCQn1sLmh3sCgQYPob397k44dO85g9+yzz9J9991Hd9xxB/3mN79hoEKWg/CYinzPQFcCTgUBfIIGXGQjDL9o6FdzZs29b8mSe3e2hqsZqiASA7UIrua7776bNWrUqD179+5NQpKzoIvBgkSAJcR+b0J7BP2ch0N9JKxQl05kowqnl3COCTZKXB+ACoJZcd0AAn/84x9p2rRpXq8k1Ec8rAAKsGuJBHV4RHv26KOD2jjat++zc4oZI/UK+yHt6ZIRl9DCBQspPz+f7WgXX3wxFZ46SX//+9/p5oUL6amnn+bMhVGjRgk1Un3kkUek9evW0eIlS2jJkiWsygLYoI4Kh0CgcwQQQn0VnGuchG/Sslz69e/zxU1z5y958MElu85vQntTXMnaWYiBWrBVH+D3r776qtPIkSO3bdmyZdjIkSOTEc2NJ31JaQmlpqTyjSLYSiPoJuqHNu2Sivpwm7RBPIjYk6l7GwFcv//972n69OkMGoJ9Bd9/+eWXnB+KfWEHQ95m1y49AkpqAElI7AA1ZCnAhgbQvOqqK+n06SKyOx10/fXXswMAxVWQD3rFFVdw39988w3NmjWLQQwcb3PnzuX3kBaxtgC0GH+gDSDmD9T69+uzf+7c2Q8uXbp0pyT5qZbdpLPfNI03GtSaM9eyaaYg/FZVVbX+7Gc/W1JQUDDj8OHDXJfs6NGjHM8kNl+20vB7ahFHthJ7WeOGKcIicPMj7gteyIcffphuueUWNiNA4oYnEhIS2C6grqISOgoNAwzj45ICghpsaiKpHX2NGTOGjh8/Th9++CE/8A4e+oGmTp3KNjQ8FKGGAvggiQHQQAf+8ssv04QJ4zm7AFIfxpqWlkplZeXeJHZ/KwTrz6/6OXzoF5OzJy9fvXrFa60t+DYgkEfvdrkwn/8ffvhhz5EjR76/atUq46JFizoKrqqaGiSza+kvsa3lzoAIYhXMszAZPPbYY7Rw4UI28MPbCFURr/BGIj8T36MQCgfkdu8dENQgeSE0AxtoiCC5oSDxpZdeyo6CUddczeEacBBAGoSkD0ls165d9Mtf/pKef/55Ln8HwBVOCwAVwFLY14JJav5AbdjwoV9OHD9+5fr1awFqodX9bObbPBShqtGSWstdns0zssLCwriXXnppxKJFi57Pz8/33HXXXT3wBIcRF4se6kv0tsZwVtTttXHyS+gjbqp2/Y4gyh0CUABYsK2JgiRQD+F1hAoINU8QOfoGSgs2jWCOAmQjIP4MYAhJDeAJoEOfAKW/vvE6E0NeffXVLHUhbAP7Yh/0B0DEOhK0R4KSG79jgz0w0Ab7mV+bWr/eByZnT1n9yCMbXpUkSSuy0Qa2GKhF6SLec889wzZs2LApMzMz/pe//GWnXr16Wa+88so03BSRbFG+hwMNBV2BUwt/IIGDSxbrw4jiRvw+xMGEuFuo0yLGg7GAuzqMcvb+uwLQICD21KlTrrNnz9rHjRsXv3r1Gho/fhwb1GG4R1I4VEIRZwZpSuRqpqW2CyipfffddwxS7733Hqu2kMYAoGgT0lZldRUDE/qBNCYKqmBc8KhD/YRaivdQgdE3gA0qLCfUByHkCwxqfb/KnjRp7V13/ddL3bp1a1GgFopE5u+qngtqzSxehrrSW+J+e/bsab9s2bLr33rrrctSUlLcpaWlHUwmE+7xOFVVLbIsm1VVhetJ3JwIPsOM40+8x6mJ73xfxfe+p462ff/Eb/XbFJ/F7wAsABdKXQnQsKuqWiNJUiXyu3XwgBjQk4jaIXY0gjkPF+cwFvyVgV1HHxPmz6K/950/DK9+rLNY3/Vfxb4eRVFqFEVxVFZWphkMhkRcm+eee84MRwGADJtgxt27dy9LTACZ/v37s82tQ/vOQSu0A3gASlBbAUr4LNg5EMCLDRKjqD2AfSGdoV9R5xNACNse9oGUJryZwWy2IqQEMWvnhHQMH/bNmNHXrr3vvntf7Ny5c8MUzRFc9FAOjQS8Qge1UEZyQe3TeJQvKCiwHj58OOHUqVOK2WyW7Xa7ZDKZZIfDIbndbllRFMnpdEp4rayslHTyQewDlcf7oJFlWdJpZPg7HCMkBPyG9waDgW9kvApXPT7jd7zquYFSdXU1+ubv3G63iv3NZrNHlmUP3iuK4jGbzW4kNuN3vQ1DTU1NpzvvvPN3W7ZsaWexWLqK2pRQzQTTRCTLQVBZi2Iggm5aD4P4ePv27Wfuvvvu/JqamgqXyyV17tzZXVZWZrTb7bLBYJDT09NlETbjdrs9OF+cJ/YV54s+BKOF2WyWcM7iz26387mWlpaaJElKuummm9548cUXLZMnT2bggT0NIAMpSjDIjhgxgoNoOW0pITVg7mewuYH3U4xN5HCK9DoRJwdg8y2BhzaxLkTKFMYmckoFCaSwwUG1DeAo+Pa6Mdet3rx549aYoyDYlYr93mZm4NSpU/F33HHHU+vXr8/p2bOnhBsZdh+AGtSmOgVBmG/Ev0VD4yM593dR+xKTJt4DnAoKCirnzJnz1+3bty/o2LGjRgHbhNvx48fT+/btu3/z5s3tc3NzDULNhKoH0MUrVD+EdEBSQ6WwlJTA1aS++uqr2pKmDYwdld91IPbmiHIxGL0KFMBdgJ54oAmKbqjDADaopfCWVoIoUs84gDQIkISK6t+m1ueb7EnZqzdtevjPTQ9qjRcOwr3UMZtauDN3gRx36tSp9vPnz38uPz9/zJAhQ9j2w+X/ZJlv8GDqT7BpAigKjjCRzC2StE+ePOmaOHHi2/v377/B204T3htFRUVJ6enpRzdu3GhauHBhHAABti+kN4l4toMHD7KNDBunLCmWgJIaYs0CbYpRq5quS8b8KuYUcwNgEkG2kNzwh2uAeDmEhEASQ8gIVFuEn2AT9OF4D6kvQJzaNzk5U5avX79+W2TUQ014UYItoAZ+j4FaGJN2IR1SUVHRfsGCBS8sXrz46n79+rEtR6iKmAdRrzLcOcEN6wtqgi4HNzZu1uzs7Df27t07Ntz2G3NcWVlZWnJy8sEtW7ZYb731VgvnfBqNBGM/7Gc9e/b0VlDHPEAttdW4gtb9DDQG0BcJDjSX08lGQfSJvgX7hqj+xKy5euqWUKkhLYvCxfhd5IWK9C6M07/6OeybydkTlq5evfrF85tR0Jir0vh9Y6DW+Dm7oI4oLy/PyMvLe23Dhg1XgFVCVAdvDGdcoAkTxUJw44mbVnCHAUguv/zyDz755JNxqampkbmRQ7hqJSUlKRkZGQefeOKJpPnz5xsFzz8yBxB4CxUPQPbpp596Qy26dA5cIs/XztngEORaaQwSGDaAlKCu0u2m3rqeYr5EupbwmAp1VfQnVFWo0IFsajlTJz+wcuXKl0KYnha9i6/DIQZqLfpSNf/gVFU1Z2Zm/mvXrl0jIKkBeARFdTRi8ATvvtEI0kMPexd9GScGDBjw8f79+ye2a9fuZFPPhg5qPzz66KPWhQsXWgEuQjWEeofaBACVSy65hHbu3MmOA49bjkj9REI7bJRQJ9E+NtT8RAwbvJWi9J2oKytqeopYSFFAW6iv9au0A9AC2NS+nXXjrAdWrnwoKqDWUpTQGKg19Z3i2/55uurRdJND/ezYseOBQ4cOZSCkADe5oLQWhvRIplCUeBMqrWCZxc0LaWPo0KEf7dy5c2FmZub+SPoJ5VhVVePNZvM3mzZtSpk3b14CAAVhHQi+jYuPo927dnuLmlx77bUMOMGqSbGjIMCGEnx4SIhCxtgVdjiEeGB+DQB7l5slN8y9oB4SLLfC8wvQY2p41EOQZW/VKOwXyFEwd86spQ899FCMTy2UBdK69zlP6NMKJqmgoKBft27dvnQ6nSauWuR0ksFo5LgzX9qecE9FSCBoW0iBQgoBqOXm5n78wAMP/HzEiBH/DrePUI8rLS1N7dy580e//e1v282aNSsJ48FYkIyODZKZ8P4KGu1OnbpoktqEbNr/xWc0MHMQ2ew1VFVZQw6njah+PVQOR/R4v3e5VfJ44Aww6jViZbLZqglRNbIMEkiJJAnvUcuA5TFyOlHOz0EOB2jGrfw9jhe/++5vNMKmBvJIByUlJfD+breT2x0+fOjX0/JylkUF1FrQLROT1EJd8Rfofq+//vr/ffnll59+/PHHEc/BswDJAqEEvqEYTTU9d99992dZWVl3zp07919N1Ydot6CgIG3AgAH/s3nz5vQ5c+akQAoSUqmQgnwlInyHrIBt27bR4sX300svbaOsrKFktZrpzJkiBg+AiC8JKMAEn8Wry+Vh0AIDb/1X7AcwE/uDJZmrj6mIm9bAUYAePovjRX/4bLc7yWAAzx+Yd1FSz0lVVRWwDaqXXnrpvuzs7DWLFy+OivrZ1Ncn1PajAmotCKRDPe/YfiHMgKqqhvz8/Ft79Ojxm5kzZ3YRkfDCSA31K6ghPIR+Au3yxBNPfH7mzJl1S5Ys2RphU0EPB5XUoEGD9j/++OPK/PnzU6G6iawCAWqi+In4zEwd8fGsLsIuBsM95gXvRdEWdCxsc/XTmsSDwl+6k28cYEMnEEodDJERgVfY4DCutLQ01yWXXPLJqFGjHt24cWOsRkHQ1RHbodXMQLAHUs+ePd/auXPn6EGDBklCRRQkiSIo1Odkw02H8jtfX3/9deHo0aP3Hj9+PKfxYQfBzq5utwBxWZaPPfXUU6kzZsywiBg6sZcvsAkQgiSHeUDMGLIPENMGkMOGvF84PXwBqw54qcQ2M1/A8+0DbUAyFMAmHia+n0UWggBOcbzvZ+FZxivYY6xWCx5G7uHDh79zww03PLl27dpXmnrBRtPOG2ysUZHUgnUS+711zsAXX3zRIScnZ9fHH330fywwWnNZNkS7y6yCwpDd1JvdbnckJiZ++913343p1avXqabs7/DhkpRevVI/27ZtW4/s7GyW0gBS2PxJTAARSGeiSjo+QzXHdwLc6o/ZF9gCSWIiK0D0LzybwY7xBTZIm74OBBEigvGNGTNm25VXXvncunXrXtdOsoHs2aac8CZqOwZqTTSx/pptTetm8uTJ/5WXl3fjf2qbXizICUUiNj6LQrmhTmE4YhwklUWLFv331KlT77/qqqv+GWpf4ewHGqnevXv/NScnp/vFF1/cSVEUQ0lJCVLDkBOrgh1W/8NnkAK4EhISVIPR6CovK3NBFS0tLVWTk5MN1dXV+N2I/VQV3gLvxg4WsXHembZ5iQnQFza8CknMZz9xKDfiA3AiuR8sJmgA7SK/WNUpj9T4+Hh7eXk5CAx+VBTl23Xr1qUsWLBgw4aHH/5AliQY6trEFgO1NnEZo38Se/fu7XDbbbc98f7774+Jj4+3OJ0uUlUtYh1/ULsAapBKmnLDTf35558f+8UvfrFz9+7d96elpWm5QE2wff/99+YpU6YsPHr0aLbH40k3m822ysrK9gAmWZFdsiTbZVl26Nxj1ZIkVbvdbsXtdpdXV1crKSkpPyYkJFRWV1d38ng8cmlpafekpKQiqLW6HASpSQAcv7pcLrC3sPdAkiSXJEkOWZaZOUWWZQY6PW1KQpuqqioej8fk8XgMaNfj8UDXBSEBz4hOXQRAVdEuxoe8ToPBYLdYLOXl5eWdZFmu6NKly/5Dhw5Vb9269ZkZM2YUNMF0NluTTQ5q51OXPmcWGxSLWpOs1GzrAsys+XfcccflkyZNuh4g5hto66vONPUIAWp2u92TlpZW+K9//esnl156aZPegACdI0eOJOG8HA6HwWQygfqIN6RJ+UhUzDl34MAB5g7KysryFgv48ssvTcnJyQo4ysT61yWnOtMFSezw4cOcRlBVVeUZPHgwQIxrJvqzHwLUkHZ68OBByWKxyDabDfsj40FIekGPP3DggOI73qa+hk3dfv07uslBralPKNZ+dGdAVVXjn//855Fr165d/Nlnn11ls9lMIn3Ht+QfVBrf6PXojqJua7Btbd26de+ePXv++h+V6ZH27dt7gaYp+4213TpnoFGgFpNxWudFDnXU4IErKSmxjB49+pV9+/aNUBQlCZHugTZhHzrXeK1Z0GCYZpUI/2QEktb+1W+3obAHqF4ANdiu4uLivv3kk09+mpWVVRzqOcX2u/BmoFHA/BDrAAAEFUlEQVSgduFNz4VzxlCZoJIkJye/8eyzz2aOHTu2p0jLCTQL9cGs/mdfaiLfUIRQgBL7gE4HOZCwL7333ns7Ro0aNZiIBlw4VyZ2pgFNWA1IWjFQ866ZUOTQUPbRGgx9z+ZftFA5Dxw4kJ6dnb3yV7/61fC8vLyLECmPnEehevobZUN8ar7ApiiwkWvevoZCEXzjrBrqA+2D08xqtTrS0tKUrVu33vHkk0923LNnz7Lmn7nYCFriDMRArSVelfM8pvfff79dTk7Opg0bNiizZs3KEzmdgucsVKlK7BcsCt63vWCSXGlpKcImQIGulpaW/tVsNt++e/fuXtOmTXvo6aefvnnevHk/nOfpinXXwmcgBmpRuEDN6uGtN/7GSogff/xx3KWXXrqFiEYPGDDgzA8//DDQ4XAgnMCtkw6Kghxo2rc4DHpmw5kes4XQKhRyQSgBPIPsjdPrBOA4DkfQQxpErBZCEXAM1wxAGIMeEwZPIkIbHHBUANCMRmOBzWZLhaOwS5cupXqdgor/1H1YihrSkV7Gxs5bY/ePdHyx40OfAS+oxS5S6JPWlvYEIP8ntzJeUZSUwsLCNACSxWJBXNMZgIjJZCr2eDzeaFHEPok/zIPNZvMWnvTdD79hv/j4eBtQr6qqCoGgMt7bbPwVR5iigIrFYgH4eSwWi8fpdLrj4uJQQMWNwio9evQogQOja9eujkOHDiX06dOn7J///Gd/s9lcjnaSk5PLhw0bFkL9gtgKb0vrNtC5xCS1C+VKBzhP2NT27duXctFFF9mPHDkix8fHu44dO2YfMWIEgkBjW2wGmmcGwnwOxUCteS5XrNfYDEQ2A2He8JF12jqOjoFa2NcptqrCnrrYgbEZaMIZiIFaE05uW2k6Bt9t5UpeGOcRA7UL4zrHzrLNzkBbfeSEf14xUGuziz12YrEZuDBnoMWBWkuK+bowl0TsrFvFDIQvyLSK04tkkC0O1CI5mdixrXAGYjdnK7xoLXvIMVBr2denxYzuQpKgYzjbYpZdWAOJgVpY09YSD4rdipFelZYA3C1hDJHOY3Mf3yJALXYhm3sZxPqPzUDbmYGogVoMmPwsipgA1XbultiZtIoZiBqotYqzjQ2y9c9A7CHR+q9hE5/BBQ5qsTukiddXrPkmnoG6GlJsPWO6L3BQa+IVF2u+2WagbdzebeMszvciOBfUWto8trTxnO8rFGJ/MZtmiBMV260VzkDjQCAmqXkvceMm7ryvjBY+vPM+H7EOYzMQwDfXdicnBgRt99rGzqyZZyC6N5e3tSg0G5PUorI0onAlojKO5mjkQj735pjvWJ/BZiAGasFmKPb7+ZuBZsfHZh/AuXPdAod0/hZEeD01O6jFrll4Fy52lDYDsfXTcuehuZxX/wsTbr4ZU/R+PQAAAABJRU5ErkJggg==;" parent="76" vertex="1">
          <mxGeometry width="90" height="47.47774480712166" as="geometry" />
        </mxCell>
        <mxCell id="79" value="" style="shape=image;verticalLabelPosition=bottom;labelBackgroundColor=default;verticalAlign=top;aspect=fixed;imageAspect=0;image=data:image/png,iVBORw0KGgoAAAANSUhEUgAAATUAAACjCAYAAADrV4nuAAAAAXNSR0IArs4c6QAAIABJREFUeF7sfQe8JlV5/nPO9Jmv3r6FXoQgQRQUW6QXEVGJAiIoqCnGWAOKfxVFjcaoiZHExETRqHQFArvLImhQLAhIRNrSWbbf+rXpc87f98z37b132V12b9lyucPv8u397tQzc555y/M+L8P8stNGgAGQs3j02d7/LJ76/K7nR2DKI0DP/fwyjRGYB45pDN78pvMjMAsjMA9qszCo87ucH4HnGwEpJWOMzaah/nynMGf/vhHU5i2OOXuPd40Lm6kHbKb2s2uMyvxZzMIIzFtqszCo87ucH4H5Edh5IzAPajtv7OePPD8C8yMwCyMwD2qzMKjzu9x0BOZ9xi09E/MjM83ZspkBnAe1aY7pdDefSwHjuXQt072vu/32uzHazoPabv/0zV/A/Ag8dwReyC+YeVCbnxE7fgR2YytgWwbrhQwo2zI+s73OPKjN9gjP739+BOZHYIeOwDyo7dDh3j0PNscNq1m7KTtz3F7I1uI8qM3aI7377PiFPAF2n7s0f6bbOgJTBrWd+Rba1oubX29+BOZH4IU3AlMGtd1rqHYeBN9zzz1GHMe653m80WhwGrdKpSKzLJOtVkuUSiWN/l0qlTL63bIsNjg4yDvrc85TIQRtr9G2URQJ+rQsi8dxrHmeJy3LSoeHh0Hr0b4YY6lt21mapnqhUBC6rrOxsTFG23TuG62Xpql0HCej80qSRO3fMIysWCyqYwRBoNH3pmlyx3FEHMfqe03TJj03nX3R/pvNpvobrU/nQMem/dD3hUJB0vnT9dP5dMai2WxyOgats+m+O7/bti3o361Wi3HOmRBCmqaZpVkmkzjW0jTVCoUCkiQRNCZBEHD6Ttf1rHPOQRAwOlfHcWRnPdoPfdelaWxdEPDO8eg72k8fEK8MQ432R3+jY4ZhqMaUxqazPl0bbUM/9B2tT9/5vq+Or+t6esQRR/jTmjc77zGe1mnv6I1fIKC2lWGdwQdl6WOPWcu+9a3F1/7wqpPXrVl9sGGaJcvUucxEJU2SYpoljpBMY1xVMyfgmswSqYEh1TQj1DREjOuJFBkTGZDJjFum3Yzi0JOZMBmD0AwjBQTSRJqQCWNMSw3TaAkpkMaxCSCzXbfOOY/TOHXAASmkKYQwRSYMCam3R4OKqVOv4A3HUewkSWIBLDMtI9A1PQLARSacMPRL9G/GNIDzVKklCcElJIMUma6bka7zCIyLNEutLMkMcEjbtH3LsoM0TZ0w9t00ySxN0zLDMHwGHkuZcgEYnPE4yzIzzVJbZplB8x+Mcwamcc5YlgkdDAQiMeFpJjJDEm5rPLJN05cSLEliL8uEwzQGLT9HRseFZNwwjVBKupZMEzKjXWecaZFh6LGmaYkUgmUi04WQViaEAyFpjLhUpeZClCuVlXEce1EQFel7Og9N4ykk9FQkdpokLgPtVpOc8wTgMpNSFyLjkFlS6up6gkamNlrv5Zw/+YbTTvvBhRde+IfXvOY1a3b0ZJ/x483g3JnJc5sHtc2M5lRiTN+8/PK9//r97/8rRMkxRqG0VxIGTne5LOojw1yTQmNSaGACkkkIgAkOZNCkxh0hQEYSzXHBJnxK9TvjAlJ9ykmfhFZqfSGVKhuDhARTn7lMG/3QSvTZefzy+52vR1bXxO9l+5eJyhGT/r7p+hN+74ziputv+v3E0X7ueW1yPu390zabTp9tOS9ASgZSwuiMy/j45KOwuXHJjzZxNCdvnQ+gGkdOd1OEBpMCLOMZpC4k3W3OudDBQdAY+dyx7Siuh1bFcWtjQahLbq46+z3v/bsffusbt87kZJ7fVz4C86A2A0/CN77xjX2+dtllf/fUY0+81al0l4NazeSmBREGsLlGZgLowQdSZBqQERRxsrc4GLPJAJniWdA+CdCUVzj7yy76Zp7Shc/ItQhwGYMEhDRhgIzgjGnINDIt6b5kYEjg0jPQjFB2i4gFw7AftOze/oeOPOrIS//3putvntL5z2+0xRHYCGozco83HmZm97Zj7t/Uzvmpn/3MPuXccy95ctWq93HdKHHdhqYbCFo++rt70ByttY0nZZ8p2yrjAuS/0GKbztQvT4HZLADaxKF43mF57godE2hrF7Yt60x9YHbclmEYgksOQxhgIFDTFajFegrJMiDxYUYSRbrX0FGodCHRDKyp18b8NH7mc5d+6oxPfepTT+y4M577R9qKpbb1p/l5n/W5P3bqCj9ywQWH/cd3vnPTQG/vwlhIbcPwKCqVHjSbLfT1DmBkaEitp2wqBorWgCJSZK3RkoRN9aaf2tIGtG1xxjZ1tmbkd7og5fo+15mbkf3v4vulxIrpgkmuLDX6FJxATSLRaFxiuBpgRAG6NRNhswlbc2FXyhiJE4wG/qBlm1fdfd/dFx5wwAEUx5xfZmAE5t3PaQwiZTZPec2rv+mZxpvrrWZXsdKNVpig1vLhFbsw1mhA12xkjENyCierkHseNqNPAgSZUCR/GmfR2VTF2NphtF33k1Ekajc4zzwc+TzjSPeTGflqmQlGuRPGAUoOU9JVS4GwAY9J9DAd8AOkMgOHgSYYQsg0RPLwD374w9POOeecZ2bgIZjfBd2SqQTF50cuH4Hf3HZb/zHHH39Ld7Vw4OBo03U8C8ywUGtEENDhdvcjVOF/yhwaOajRA09uowI1AfitfGdTtmz4C9dS2hUsRMfLTfCUQLD9Q1aaQTc0ArIAFWTwV61Cr+VARJQg1dGiDLbOwDX9kb/90AfO+OIXv/jQ/LyamRGYt9SmMY7Lll2/9znveOeVo6P1l5cqHg+iSAWCnUoPguEG/vTk07D/YUcg5gZSriFTP+0OUhRElgycEQuDKxeU5sb2fOZuH1k+lK6bGi52Ln+q2+8y23XGb4rjMKXrYBJJFqp7pgtd3UCy1CjEAD0BRwRWG1I/t373u6haNjLfJ54fmlmq4qpMZqtOO/UNb7/xxht/MY1HcX7TCSMwD2rTeBxuvvnmfc84+63LIz/Yj3DJKpURtXzwnj7AqWDfw16Bt7zzPQg1GxG3kHKWZz6ZBKdHWjJoegESRFWbGihRHIcm0vaA4faCZ74+MdPYDjjO9oP71K5n+scBS5GkPhSGZToYARrdR43eNRF0GcBLA6Trn8VlH/0wKCUUjtXg2jZaaQyIFCzNmq886uXv/dWvfnXVNB7F+U3nQW1mnoH/Wb58nzee/sZfQtMXbJzt9Fh7FcAq4JCT3oxjzzgHLd1BwE3EXIckrhqRQAnUGEcCC4IRv3QqoEZgRpSqHQFq0weBWQUfoYzWHQq6RNnQQJQOCV1oKguaJ4SEAjVDBuhiEWqPP4wrL70UaIyBxTFkJlQYQlEQw9bwKSccf/6yZctumpmncgt7mZOZvc1f1LylNo0n6cYbb9n/9Le++edg+gLFjSVAo5lVKAF2FS866XQc89bz0DA8tLiNhGsQ9MBDQJOxcjfJgqNEwjYFpp8TuKYZ1CkQyC9kS8/unHymp3HvZmJT4i9rIoUu6ZMSBW1LjYoaGIFaC10sQePxB3HdZy4BGjWwKFS8RbLYFajFwcgpJxzz7mXLlt0wE+c0v4958u20noEbb7zxRW950zk/5ZwvNChWLAWolgcFstTKOOT1f44/O/OdqBlFNLQOqKk4CnQZI+MSkZa7pFMENakyDgSks7JsBQp3D6LZc85yJsGdRl0TFE+j+q2c0kExU3JLCdRMGaCHhaiveAjXfeaTQH0MRhxBE1luzbEMWRqMnXjSse9dtmzZdbNyC3f5nc7kHRl/se/yl72rnuBVV/344PPOOm+5yYw9OMuooBwR2WteBaldxovf8Od47ZkXYNQsoaG5iLXc/WQigSEjZbVRGXkyLUya1sbbMbQz//Btx8F3yVXJ3dQEBxccBpWKgNxPShTkoGbJFnpYjPqKB3Ddp/+fAjUnjmGKBGSvZ0gQyaBx8utPeveSJUuu3ZEXuSPu5rYxK2b+TObdz2k8Sddcc82fnPe2dxOoLTaQIZUJIoqVORVEbjcOPfWtePXZF2DUqKBmuIg4JQQycJnAFJEqo4nbZVNTP40Jt3CXtZ5m/sGd+njN7JYEakzq0ITKDkBQsqBtqVnSRx8iNFfcj2s+/Umw+hi8OIQpKEmUIWUCoYgbJ7z+xPcsXbr0mpk9sxfu3nYvUNvF5sYVV1x3yLvPueBWk2sLdWTIRIxQZm1Q68Ihb3wbXnXmuzFiVVDTXURaG9REDEuEqnwqZUQDmKr7OROk3dl5+HdZfJ3hy1USBBQEEGZOryH6IYkW8BCOaKEXMZorfo8fXfIp8NoY3DCAmVE8VaiwQyAS/4RTTj5/JkFtW6fJtllSUx+w2d7/ls5s9wK1qY/vrGx5xRVXHHLuO97zU4vrfQYVq2fkTgiIQgmZ142D3vg2vOLM92DErGBMWWqU5UyhKVCLoEnKhFrjpM3nY7Crv5ObQxJdHcb7rgts2zTo24d+27f2xhPY1mm+TWe8cSUKH2RaoioP8oJ2iqlNttR6ZIjw0YdwwyWfBGqjcAIfZpooK52qTFppFpxw4skX3HLLLfOUjq0N/3bcwnlQ277neNLaV1111cFnv/1dd+qcd5kqppYiyDKgVAXcbhx4+pk46q1kqZVR072NoEbKDgrUVP7foimh3vadt/5zPyW4ZG1+23jxTn4yuzmoTWP8d/amgpHqSg5qnWoCIkKTtSZYAkcE6JERokcfwA2XfAIYG4YV+9DSGIwsPK7Bj5PoxJNOoeznD3f29cyV48+D2jTu5Peu+t6B7zzr/PsAuAXPgh8EMEl91S4hK/Tg8De9HYeeeIaKqRGtI+FEv6BQMiUKciZ6Kq1NyLeUFeuQXQHHsiEIMBMKLKeK40RBZgJBMluInb57L7svKNM9IFoHuZJUwK7uR65aoKqm6MW1kKWIHvk9rvno+4DaOpgOgwaJJFJquAhDPzrppJP+evny5Zfv3vdxls9+zlpq23FhszzEaveX33TTQee/7dyfIk0GNFtnWRiClUqQtgeYVex9wul47RnvQs0ooaV7iDkBkARjscp+0sK4o0Bt3FPqTPJx6Q6CM0mMfkmisyTsSrXw+d91qindrZfZAbUp+qmTR/J5njdVSSDI5RSI9USBmk5mttSRcg5TxFikQO0+XP2RvwTq62G4AGMMWUigZiCJg/CEE4573/Jbl1/eVqPaMtlwt77PUz/57Y3NzVtqUx9r/Mcd9x/6l+ec+30ErReDCw1RBJRLAGmkcRfOy16L09/7ITT1InzNVmVSyrUEETYT9ZZPKTw2kWc2SfAxBzIFflQknUtMbwQ1+tv0QW12QGUaw7rbbDoToCZFOnzccUdftGzZsu/sNhe+i5/onAS1pVJag48M7fX4qg1ed8E1M00UEg4741JEGouZZA0HWssQmj4cp12RwU2eqJI9pU5LcXhdSMElp2YeIUszww9Dy9TNDIyFpmbGmca0Rx9+9GUrHvzD+wO/vp9II2RpjELJQ6rbqKcc1X0OgtG7F5qah1Cj2s88uK+Y6EiUGq6uqgk2WSYAm2kaysXUdKY+6S1P++hYbhpJ2kxrmUlQm5opPSNW1bTGYGobzwyoJbUTTjjuoiVLlnxramcxv9Vzps9cG5KfPSXta+/4+Z89MjR0VrF/QTWOkgWCoxRrwo55xhNdJEyi6SZoSmZYdcF7E64bXGapRgkpkRHRP+/UkamYlpBJxuM403TN4JqmC9t0UmaYGBoZXtjdXS2GoQ+R+JAihm1bEJyjmQJGpQ9DUV4KNV4ORQq4EppMFVVToxjbRk9zAsC0gc11HRV7MU0ThqltBDYi+hKw8Wkrss+Seu42P1g7ijy8zSe0lRUng/b2gNo1H/lLyM24n3HkJyeffOJHli1bdtlMnOHM7GNqL6eZOfb097LjLbVZHq+vLnn4wJv/8OBFqwU/dWC/F3WLVBrk8hHJNWYxIp6BCwmbsuqkJ2+7qvaS6BVcCFXHxzNqiZIXR6dhlKclqekTI4vJhGZa0LiJRGRIOEdGumhJoNxKkkuj2s5YMmSagcz0VNF6oin4at8xxTtX9A6WxArcxpfJwEaWGVlrjuPAtm3oBvU1YKp6gX6mB2o7G9DoqncnUJs84bYH1LYUU4vCVnLSSSdcuHz58q9PfzrP74FGYGqgNsvANJ1b81ff/emrn5TWF0at4p8Jr8qQUWkSQOYZgRqxuFmWKlAj4IryZm/UDQ0aqZIKAjQJ6lFHD61hUCCeQ9csJRVE4o8KjjIGZjsYizJww4BO2xL3KIkgsoR6piHJSK3ByHXrmdYm2Y5fHVUXWEqGiEy1zQAbZdWShHp8giw213WVxTYR1PKmUFNZ6KIpoJf3Ttgpi4olTg/UdqbrOhOgliahf9JJJ1y8dOnSf9kp92AOHnRqoLYLD8QZ37zlbc8a7j+M2V176139SFq5eiCBWQIS5ovB0wxuSpYZoLkEWuTKkdVDdZkkt0xytVnuJhINg2swdAtxlgf2oziFH8YwvBIi5sB2PeicQWcZoiCATGJYpo44DqFpRg5mbbZ5Xh+YL/nxSExwU1DrDLBAHMewbAPUqNfzclDjZB1mea3pBFCbwvxuW2rTA7UtH3fjX7bwFpwBUNuZj+JMgJrG5ehxxx1z6U033fTPO/Na5tKx5xyovem/b3/XSrhfzvr26m1lJlKfLLLcGlAMcJ7BEAJOQpaZgNSJLKlYsFS0lH9KAjRig0GBB7mZLglAJjGE5GgFkXIHwxSw3SqYZsHgGoKgBUPnSMMQtmWgNjyEoue2QSt/bAiGlI59+5zIBc1BbeLSgT2hYmhh5KNcLqO7u1sBWZqm0DSuYmrPZ6nR+sokJ4HH5/xIBbyzudD40XEJiOknT3SML2T9bm2ZAlLP5uVM2ve2glry6O9x5QffAzQ2wPTy0AEpGRD5Nk3C8KSTTvjMsmXL/mGHnfgcP9CcA7XTrvjp+1bC/XxSXVxtkcaVz5UqaT6ziSiZUmYTdpbmBFadI1PfkzOmdEshkCkApM9UUKG6gFtw1cNIkt1CSOUKZpkEI/dWaEiERBKn0AzqYssUmMkkBCP2OOltUdxNASW5ospGU7YaV99vCmo5/NGiQC1sg1pPdbtBjUBlU1Dr/J5/dqzEbWg0sk1lXJP3kyS5i6s6vE/47Lidk0BuFw5rbA4HZgLURBa3Tjzx+C8sXbr0i3Mca3bY5c2pxitE0nvjVT/70ErmfCYsDJRCYUEPdUWQVCVJqoiYMo8CdpqDRmqYSEhmO5d4VG4qWW4pNfZmAqapI8tS5QLqmkSzXldZSM92oGUZsmYAEEUtk8i4SakCIpWBMwnPIkuxAY2+VXwzAkoSiiQgzTXtn7NMAri2pdYBNbLUZNq21DTlMm+Ppba5pyrnwRGwkvU4812oeLuKQsUjFXF4Mujt/IqIcSTdXqtwJkCNQdSPP/6YLy9ZsuQLO2zWz/EDzSlL7RoptSuvveODT0nzsw27u5BkDqzEgJnlOcJcGSHPQRKoUYg+1g3EpLPIVNcAJfJHn8olZWSR2UhiHyxLQEXrQX0YlsZAopA8i2GEESzDhrCKkGYRCbMVsDX9FsoFBzIKlNQQARstdEzVxZsSDgpItg5smsZADXPL5eK4+5nFyoJT7qfqu7nlQD+5fOq4bRLvpp9UtDPzyzhQUKKFLNxODFCdc8cNVlyWTc999zDX8pKobaso2Jr7yVnWOOaYo/9x2bJln5v5+zB7e9xelv/snclm7IIdebDZPtbPpNT/9ce/fP/Tmf6FUc11Y+HAEzb0jOf2QbtGj87DyL0ypFpe0pIRBYMDKmyvXFFKGEgUHRNZ2ETSrMFIfVQsBoc4ZuRWpgF4HMGksiinG8MRQ2KXkWkOGn6A7u4q4mZ9AqgRkGoK1FJmKIoHFaqPZwAn0jlyl3Qc1CimNtH9pApC6ki1dVAjjluHqJuXWY0TdymuZ1n2rN4WVRJEFm37hw5GQEvnRXHBJKVysZ2UfZ3mlc+EpQaZto4//tivLF269DPTPJ188ym8E6awyYyc6mztZE5ZavdIaXzl+l++/6lU+/x6abqZsFFinlInpYVq9CLl9QkFdModJEUFnpeZU8g+ZboqGFeTTyTwdA1a3AJr1VBAjBNffhi6LA2GCGESHy2OkDAdtczCz+5dAd+qwpcmglSg2tONuDm2CajpSMlSU8chdQ66BRNvQ3uCt93QSTE1lSiY4H5uA6htCmgTLSYpGGSnREt1Lel0L5m5T8f2kIkEaSKU68yZrtx3y3SgG0CSUqLihQtqWRplxx9/7JeWL1/+ydma5C+0/e76oLYdr5EHpDS/fP1v3/9khktXJ/BSOChzF5qg4DxZZQK+wSB4pkCNeGmM0aSSKqtJQJPnIjmYkCpLWuCAGfvg9UGUZYSL3vMG9OuAC4A6djYBUDviDQK47Iq7EFjdGAyBVgp4xYJyWznRSEBsX4qp5WAWc9paUzmC8YoCevwmW2s5qE10P7cP1FqtVrsQPncBO6CmLDbBkKbtZjHb0pF8CokC1y0onbmU3H3qzaCbsG0T9L1p0VhTV4cdDWpTj6NNBIjNW2oUUtAmFbRvzf2MIz876aQTvrp8+fKP7a7gs6u5ors+qG3Hnaaaz6tvuOeDTyXap1dF0iPgKGsFpTBLwXmqKgg1DsEF9A7ZliYUFZe3i8UpUwmZQWtXF/SXSmB+A/GGNdCbo/jKRe9CkQAtFtB1YIPvI7EL8P8IdF/+r+XIqouxoZUhSJmidxQ4NRrOIHiKWOMIuYWEkYYadYEk95OysBMC9BOj1ZTUmJj97LifG2NqIj/vrcTUhoaGJoNaKifFt4rFUnuE2yTYSdyxiY9HTlLO+4uOgxBZusqqlXmbvtzyzBfqb+qHARKy1AS5yoClG/AcF0XPg2UZ0OklQ3HOdna4vWWu9a92RRLZOc+vQ9OlezT5RUBWeL6uSgipY4+HKye+OMhaV15a+2UiVFZ2S5SarT98qpxO8Q/JAyBdtVylgwtd3Wsri7GQp8hW/B4//NBkSodINehMA4HaiSce/7Vbb731ou141OdX3coIzClQI0vt81fcedHjkfGxptNTYF4RIgzU5RONglQyUmaqjKFFrH8qg9IcWIaBpLEeFTtBNPIsosYQPvKBd4CIIN/+z+ugZxI9xQJQH8Fn338O0Iow4JAmPVXBOxgVEi3O8Lef/jrKLzoUZrkLo+uH8YoX/ymOO7wXV1/9SwyKCC2vhLWwEGtVGKKiZh6TDTCy4jYp7iBAoJszDmpFdCtKR5ZnP4lf1w7+dybpplYE/b5u3YaNX6v1qU9oZzsqgm2NoFBwYVkOSJA1S+mYFlLBEAaxalaV157q4IYGjUlkLMnPg7pnkXy5oBilDoMSMvQjaZ3c3ZcWQ6IJxGmkQMnTTcgghmfYWNDXD9WCRF0rJVJS9QJQCR2KczKOQqkbQZwgCunkJAzOYRPXLUsh05wDR+vRC4tAzVL5GKb0zOh72hcF9I0sB+WIWj8p8CG1Wo5USGiGoSpHyHolsnOakYjjRAEBBZMdqN44njmQt0HNyEHNSnPpITp/ArUFRPl+7H78gECtOc5TExlRf+i/zD/h+GO/cfPNN3+CsemxoOeRLh+BOQVqlCj4zpW/vvDRwPrEmN1VkI4HQcJVKuvJkVH+khnqgXazSL3tU+bC4BlkYzW6TR9ONIj3vON0RdcoORqeWDmIe++6DyufehqLu6r4yPlvhSslvKQJ1zFIawMhLNT+OKUuvexyPNUKYJereO3LjsDJRx4AswZYDvDNG27DCj/CercbjawEIylDgwnNSpQI5PiS3xKa6HR3NE7Zzw5PrZLz1JSl1gGn3H7ZlOrWsWQ2gtoEMMtBLY8pWjZ1FpcgLzRRrihVUBiEH0jiTIEaAauuc2jkWVFVRhoiTWIkZOG6lrKijJR+dGgpWZ801hIpgZpNoJYiykJFc3E1EwhjFDQHC/r7kajO7+06WJWmSXOOIDV65jp0pwg/yhBFpJ4iYDENFpF5swSEwg65t4yrWCmhlp3m1lOk5UKNCuokvcRyCzPUyWrPfyerrukH0E1rY/lZksTKkqU+rp0Mc76X54IafatCG1wg0RNlMxOoUSMWSj4pS00mSB+/H9+fAGr0MkCag5rM4uCkE4//xpIlSy7eGqjtMi7edoSDdhbIzg1Qaw803fj3XHfvRx9s8E8NG+VSZjngqrPPOKgJGOohJ1AjZVKHaimjUWBsFbxsFBe/7xzswYFI1UVKGNBx3wNP4MknV+LAPffCKw/dFx79pTmGatnD+tog9GIFKXdx/9oN+MOadQgSgVcf/hJ0G8AAA3QGPBFJfHv5bXg85lg5LODxfuhWCYFJ8Zfn3v6OF5dnP7cMamQpbHZpf79u3frJlhpNpI6lJjniBOC6Ca5TbWqb1iLJKBLqx/M80ESPSImEelZKAVPX4dgEyAxNESjnzUgNaKkGg/pftn1SyiAzk6zhDFEWED7CIl5gHMM1LAz09SsiM40zUV7IYh0HtbxeNpQ6giRDGKRqvyanV0HeRFikWW5ZcYZIU858LlRAoKYjl3qi8c8EzDaoBe1EkQI10qMzLSUUQBUiBGLESVRCAVpuJZNVvI2gttFS2x5QSyM/e/3rT/7akiVLPsZyJvT8Ms0RmBugNmEQ3nvd7z7yQINdMqQVS4lpQ6fXcRvUCNDIWiMlDjcNYckAtgxRgA83HsEbX3s4XrvvApgIlOqGqZnQuYcoZYjCFBVPhyUBhywWP1T7lnqCVibREhq4XQRBSCgkBjhDEIRYbNsIkxShqeMxCVx+268wFJp4+rFh9C4+EMMCiBVBdfKyZVCTSLNoo6U2CdQmvkW3CdQMSOHB8cpgGkcjrKMRNlXMkTYXMkZfXx8k+aVxompaeZoqlRPVU4FnCC1yFQGNrLTMBKcEjNDbho0E1ykxkyIki5lL5cZGSaSK9Af6ByCzvNaWpJjI9aRPWpQIADTUwhR+TJUcqSrHtTREZ2pQAAAgAElEQVQOQ1lqsTovqjgiVzfSc3B3O6BGrQfbeE+PAIEYcRRDIz81K8vdUnppUHUIgTfV1aqkUQ5qknPOSFBg1kCNZL9jPzvllJP+admyZRdOcy7Pb952PeccqP3Fj3730ftr+PSwXiqRrFDHUlOkVwI1Zihrg0DNFi3VcLax5gmc/6YTcfT+FaA1hm6eYMDxkAQ+PKeiMpa00PNNIRldxW8EZGsMzNUQJzGChEN6RTSUShH1gcxQ5gb0OAA3LQyBYTUYnsyAf7/qNkhRQis1EDulNqhNtri23VLrPMu5VaL4KWrJb+3a9evyXyn2ozhtHFIQaTdv+qLzioqnxSJDrTUCwWMUyjbIS0ziptKII1UTAjO6dpu4bYysJY5UYxhmERKlt2RCCh1MWECmQaOAOblnFP9iKRJSL9EENFtHmIbQHRP9/f1gJCygKi7yqosc1DpKcyYGGz78SMCPc7AxFagR6iWQWQLPK7ZBLXfBCdQoWUGWGoEdLQReFGtTiQtq+sSgLDcKQwR+E57noFgsKostr/3NuX/Ep9tRltrSpUvnEwUzBMvPC2rb6kLvKj7/Bdfe89EHx3DJqF0twitCpiEpP05g8lvtmFoIUwZgIkSRRxjQE5x3yquwjwsspjkajKFkm2qCJlEKw/aQRJniWEWNQMWiaN8Z9e/UODS3lBM3OGnaArXaCPrKFZL0ACwb66TAIOP4wa8ewKNDPkbrDKF0QC4yVRdMlOBR2NSZkBMrCnqeG1Mbd1gmZi+3Ampt97MDaiKywWAoaoVkASwng2ULZEkTgT8CEjEhEooNDRaoEzkHizKkUYpACCQ9Ffga1VqQu2gik9T/kswkXYEJgR9ln5MkUJYadzT4FF9zDPT39ynApJcMuZ9Uk0v/VsF3IinDxIZagFYi4EfUAJjB0Bg02g91OSeg1Q3lvlOn+w6o0dDR75kqnqd9dkANCtRobMlyI4szjX0UC64SDOiAGsXUFLF5UvH988bU1JTc3phaloTJG0495Ws33XTTx2doTs/ubrYVEGb3LLa69+cFtZ14blM69HlX3vWxh+vs4obXV9bKVcRBrV1I3ilPshQ/zc0CZRVkmgZXA5I1T2CxmeCLf3Ey2FiEPYsmPCmQBLmKhUVJB0rh68BY3VdseNchsUiJNIqgmw5aSUqchY1CQiRqRAP8yLohGAM9uPaXD+Anj6xEVOpHanShFmSwdGpwPLFPQbusaSOodQraKfu5KagRTYIC8zRRJ4OabE/IdWs72c/xWNrGvgdSg6OVkYUxNESwzAQiGkHsr4erJ+gt2Tj1xKNRsU1ULahYIuUOhtZFWP30Kjw72sCDoy00DAuhbiBkplL4TSVVSxjKFSXLjiywLI5UQkK3NbQyX0k+9Q30KTIx3QcKCUwCNZlb1SP1CH4KBWqUxzA06stAvnGc69ZRdQYnEVCKswFuKtUnZUMnuZ9pXjHi60TpyStKyFLLkhzUKpWKAjWqpyWXkwjDtOR6erllPvmzbQWOJwqmBGpcpv7rTz756zf8zw2fmNIDP7/Rc0ZgToEaWYvnXfnrjz9U4x/3SwtKVrUHreawcn9ydQx6+xswpIRDJU5IMewnqrnwAVUX9RX3YV8jwRc//Ha4QYaySRilqVrvmh8qNVvDs1TPRoI6sq+iRqKEJYtlmhBAEAklFdRTLmCk4UOjFncmx+VLfoE7Hnkacc+eSKoLMJTqqPkJSradK3hsDPhvDdTalI6MdNqo9pP4dB1ZpU6NZ6fONb+1Wwc1Dl3qiJsNOIZA1ckgm+tgJ3W86vADcOrLDwW1Ws7tSFX/oP7dqRYl0vGl374VdcND0zDQ1HS0COCYhRQWmDRgCQ06BeljonRImJam3E+y1HoX9CAld5OlMIWQmpCMwI0JKgGjdICBWitFKyb3M1OJCxIVMIhNQ6BGQXxF/cgtMy4lXCUplYPaOIeOLKic70bka7LgzIyphJGIW/AmWGoEah1aB4F/br1tHtRoxNl0QI2yxpoMTj7xxK9ff+P1F8/j08yMwJwCNRqSd13xm48/LQof38BL5VoiUCnbiBMfrldGrRUgCDMUHQtmUFeF6brtorvk4tn/+y0WGxl6ojFc+oGzURBAgQtoOifRDQwGEZrEx/Is1AGsHokQtnz0Oh4WVMnJAoi6RlMgjQQKFseYT2JuDjVDwO+eXIMf3f4rrM1MBWqhV8Wa0Tq6K9W20kZHY60NTu2YGB0/z35O4KlNBLV2viwv08+rIfIlv7WBH4GqCkZHa8qdoqwlBekp2xdFecKBE73Fr6PbSNBauQLnnnYsjjpgATyRoEwVFVRnoQrRad/Up5RC+oAPYEgAdz0e4cqf3Ao+sABP+wFip4hmRvLlBjytAIeb0FNyGVUZP4I4hO0aGNhrIfyspSgWpuKNSRW3Y0Q/IVCTFvyEqfu2YXgMaRqjUi5A1zLEflNZU/SyMjwHRslD0bEx8sQz6K1WMOLXFYhVq1UMrd2AoNZCoVJFZa/FCJIUzcFRdBWLCMM6RBJjv/32a1M5SASZpNJT9Ttx9NSiyMHPJTpTppMSEEmbfGumBJbbTulIo1CceOLxl9166y0fnJkpPRf3sn0+75wCNbLUzr/y1x97KitdPKyXS2OpQMHVkaSBArWm7yNMGIqWBStsoGJRJlOg29Wg10ewp2diD0vgTce8BB4BGIGaxrGmNoKsUEaoabj32SEsu/M3eHr9mHJNyEV1IXDgXotw7mlHg/kpyjpQJskipcjG0ciAx1YOYcnP78GzjQRJpQ/aoj2xphUqa40syI0xtTajP6feQoHqOKWjnJNetwhqFEHqZFLz7cdG6wrUKOBtGoaaqOSuErAlIsbwyHoMdBdhRg04/hiO2mcB3vTql2J/h+KKTVQ1QKcgPjnVZOlyE5mSKNeQMGBDC2hqwM/+sBo33X0XBg0TzuK9MRRLNCMJUy/C4hb0lCkSs2rkG4ZwXAsDew6gKVqQvB1PoySM8vLIFDOVVV1rJmgEJJFOOQ4JkQaKV2hRr804hG4VsHpwPXr3XITYb6FELyPbQihjNIImbJvK5DhklKkETl1VMenwuIXa6Bg8x1Bg+byg1nE/N+HHTstSo+RVEqcnnXj8v91yy9JdGtS2D1Z2LrDOOVB71w9/+fGnZeVjw3q5XM8A26Caxwi2W4JPxeepBs/U4MYt7F3ieNcp+6CUAN0mUJRAD4cqYNKyGKmMkWoa1gchEreKu1auxu0PPI4H1o4itbuUvHePrcNf9ywqpsQFp78eL11QwQI1LUNw0g9TGmvEoNIxFgIBA8Y04MkIuOHXj+Ph4QABpyPSrRi31mYK1IaHRtFoNGCZZKEZCJotdSSiMZAWSTMYQW/VRjq8AXx0PT589lvxkh4N3WR5RqkikFL/BVVKxDVkxLzXTAVohD+kQUmu3uM14F+uuRbDpo1BcNQ0R3Yt2pcNjRD1xQEnBj1VBEiGOAoV8CzYcwAt0ULWATXV7IYsHQ5B2VQYGKn5qDcCJWdOZOfm6CBE2IRrCGVpOtVeBBTYtzU0Rkew0HIwNrwBbrWIobEhNJs+9tljH6RNSthYkOUSNozWQIaVqRvQzZ0LakyK6Pjjjv73ZcuWfmjnQsHcOfqcA7XzfvirTzwjSheNmtVSQ5BaGCnVxrC9AkJipTNLNTvx0gAvWWDhA0cvQgkS5ARSSNhFiqg+BiZTCHLNCiU04eBpmeJfrrkJD41EYH37wOrfB8O1OmwRwxMhWqufwGItwaXnn4XFJqD7NeWCxhBotSJ4RhmcurGbQJ0Bj4TAV6+7BWu1fjR0qiZt3wpi9LfpqFu31PKKAoof5RGfjts62VJToFYfUzwsSklEYQjPcZSlhqwFnedcvWx0CP2Gho+cdTzKZMnVIiwsWtCiCIzIYGTeMQ3C0BXQUzWQWmIgIoK8Ddy7dhR1y8adK57E71cPYSTTEfMCYBQV3YOCXxSXow5dnm1j0Z59yv2kmBqVVuUdvCj1rKJvKgM6PNZCo9GCbVqoFlwkjRH4o+tgsxRuwQNzSlhXr2GoPoK991gIjIxhYV8PXnv8Abj9jkfwzDPPouSVsKC7H40wxiPr18MuVtBX7MHghiGYnoMkTXeapcYh4+OOPfrfli1b8uFNYWVXYRTMCtzNouk310CNn/O9Oz/xLKtcOGZVSy2axsR4lwlMx0UUZ+AaKdYmKGQBjt6vgguO7MEi2VAWhM05NEWxb2OMweETARQWHmr4+Oer/gdBaTHWo4BRWYA0LDRG1uOgRT3go6uRPfMwvnj+mTi4ZKAoQpSKFH+ijGECS7pIIqAVCoSOjfU2w1euvwWPxj2o65VxUKPJr9rs5eH4LbufFHeakCjYAqgNrt8A3/dRLhRVaVOWpCgXvbw3QTCGdPhpdBkCfa6Fl+6/H17/6hejSuVZzRR9BR08JopFO/OnUQZRQ6KENHMY1qkGkyw+IRHoNkIGRUC+e2UT371xGYzuvRBbBUTMRtZuMxiHMVzbxp6LBxCnZDnGecxOoXlusZIbTamJkdGWsshEGKKgM1giRNoYwcKqi0MOPQz7H6zj8utXYKQ1gj0XLcLK++7DGW86DQfuy/FP31mqgP9v3n0qRoaB73x/KUp77wW30o0nHnwMBx54ENYOjyHOsp0GakyK5Jijj/7mrbduwf2cxck/Gax22IFmBSMn7nSugZp2zvd+fvEqWb1wzO0u+YzIoFTQnsKgrFyaKVcoCwIUZIhTXzyA815Sxt4sQkqlO6aFsN5UwfQ4CtBMU2QFF4FRwBN+in/43rXQ9zgUTzaB9aGBYteACpkXZIBCOIyBaATvfs3heM0+XQo0dT3DULMGyQwUuQdb91SAndzPJ/5Y4/jpy6/CiHcgGgRqKpY27oLOFKitXb1aZQnL1DgmaKn6SarhHB0dxoAl8bdvejUWWhIuZ+iyAFMAVeJ9hSlkGKC7SESOce1BScDWLj8n99VErMZg7fAIuFPEYDOB29eHMQDX/vJx/OaJNQjsMpqai5A05LiBKIrhODb2WjQARC1okvo4tAtYKUmgejhQSkHD4HBNyUClfhNa6KPAYvQXTBxx0P447NAC7nwoxW2/+Q3skovEr+HgBYvwlhMOxB2/X48HH31IBfoX9C/E0Ufth6fXAdf95BcwSiX0V/rx9FPPgrmVnQZqlHjJ0iQ9/ug/+/fbbvvJ3876bH+BHGBOgRrJed9w+c8vfhaVj9a8nkqomcr9JFCjVnWU9SJQCxtjKIgYbzliP7ztUBt70BpZBk8jyw5oV9wgyGJEtB0Y1vxRO+3v/vHbyHr2R02rYgxFhDDQ1dUFf8MquP4g9kQdF516LF6zjwWTKsJZDJ84VFQc3kjgWKQhBgwRd+2Pc/iz374CQWl/BGw7QI0KpNN2Qfs2WGrDg4MKsIteQbHnSd0iDFrI4gSnvuxgnHdYBXsaOU2DHoaw2UJXwcvTDdS+j9CGWvExApt2VypF8Mgb1MSipjKFlm5Bh4daJBHrLmoceKYFfO3q29FwqxgzHLS4jVQz4CcEag72XrgA3G/AlKSpRsfPlTRU5wUloqljdKSOyA9gk/UY1FEQAV596EF46UFV+AHwz5f/GHq1C7qroVkbwQfOOR09JeAf//Uq9C0awOjoqLqnL/mTl+FVr9wTP38swq0/vxO9pR4MjzRhlnsQZnKnWGoK1OJIHH3M0f/5v7f/5K9eIJgz65e524DatsQXpJT8rMt/8clVrHpRw+3yYs2AwSntn0FyE1GSgGsW/LEReCLCW155CN5ysIYuKqGJhHI/VRvQVMBzOGIpkTKGtWGE0LbwuW9djbiyD+paVVlX62q+EoIssBS9WQPhI/fgWx89CwuIM0WZt4KOwaAF0y1CRqT2qiFmwDMB8IwBXHb9MoyyPkS8OG6pqZjaeO+C57ifE0FN9SigZyQn4OaxOOKp5d2qCCCagY+m4qERH60OPU0QNWvoL5dw8VmHY/8E6JUZDCUrlHveVFtKsj5UpylVi73xvgK8Q/JVR0uRoIVWs4aC4SgqCzcKYE4FT9UFmgWOz377J6h53RghLptmtkEtUsTlfRcMgIUBdNWQJY8M5qBGcj50DVzF04bXbUBPwYWdRYo0/abjj8BevcCN//M7PLNhFHBsDNaGsWigF+e95ZUYHQRuWn4LGqGPSleXstIboz7edu5xaAD41rd/ClO3UW9EKPYsVLW6+xKlg4jAFDDIiOgr1BgYup6HE9t6eyQ0SuVWqntr27pWMksaZZWFqrhQ2VZVtRCjj+pjH38I3/voXwPNQaBArGAqWFVFZEAcJK847ujv3nXrsr+Y9dm+lQNseX7tfm7pbgNq23rDz7nqno+vaFqXRIWqnVCMTIR5h3Y4EKoJCXGuMlgiRXc0hs+cdTj6GVAkMEuAggEMra+hv6sIy+BoZiFG4hiJU8JDwwGuvuNePDqSQu/dB/VMwqm4WPXQ77EPi/HO1x2J0w/pQw+NatKCZVAcXcPKVeuwaMHeCtBWN4GmAwz+0Tr63OVLEBb2RMhdVRkwmdaR3xqDhCVpcpbK6O6ZSOkgVThS7M1jcKTSS3QICrarakpOGmMMw40aao0aYr+BkiaxiOSSBtfgL/78VBxQAA4iWgup+lAGkcQXGemncaVbRiTjKCZLd/MLaaCFwRjKJRcIQ8S+D90qIjJcrBcORh0NX77mN1gjHYzoRcSmq4LyWRqiROTbUgkaddVqh9I6wo4TdXBHhjYofhtPYmhxBI9L7NHXg0MP3Bv77wHcetsKrFm7GqtWr8YbT38DDju4im9+ewmq3d0YbTSVtJHtFHHSKUdBt4Grf3wv6n6IffbeD8+u3oA00ZWlduBhByGiYv5mA73VKlICc+LOpUBSD1CxPVgFC8NpHRFL4DlEfmbQdBdjdYJKIv1K9FcqCGs11cMCYYAFRQdrVzyA733+UmDDaqBcAGvU4fYPoLVmNd3g1jHnnPn1n/371/8fSWcdDcgHKaQ5Aru/S8kCt18fkNEmapYWwOg7+px4h+iJyJ8KYETlrPN/Ewe6F5AUhKi1SySOYKxTsT/5Ju9+WLbx/OccqJ19xT0XP+pbn4kLVZPKZxSokaA28yBUcTXJ2yQwBFBK6nj14gJe1OWhOTqM/qILj2d4zWH7gmdCWXnk6oUEGFYZayRw+31P4fcrh7CmmeGZwREwU2C/gR6ccsgBOPpF3diT3tCKAuGrYm4qnTKMCuoJcMOtv4SzeD880fARd1VxxwMrUGcVRBqx7yeXOaks4FZAjZonUxs/Ai+yIkw6X3KdlcQOR8xJfodh9egIYmLfhy1kjRHsbXN0pTHe9frjcFAV2EMDPGJrdJ4EymRmeUKBZLgLBVLGndw6r1NsTwmETMTQqaVgs6FidqZTAErdGIKuXPa/v+rXWC091I0CUsOFIFHJxEeXo6OnUkYmqe603eyGrLSNirU5tAWNOobXr4OjcSzq6ULcaGB43Rrss3hPvO5VB2FxL3DlFXdANwyc+dZX4ZEnI/zohuvRM7AAXNWkcpx95lEIJXDjkhUYqzWhmRaiOIXnllQBviS+YX8RT6x4CE/ecgtQ8IAoAjwPaJH0O2CRRiXPkJQ4MiocDepAvQV4XVBoSeqaNIatJkzXVfUQBGz1oQ3YY6APa555CtViQXEkR4cHMdDTrXrIRsiaUZbev+/e+9z04EMPHa5zbtqeG+vgulsshH6zaQkuJc+4EFxkTHIhmczFhzuPjCr8oiI0lpvpUtNkW9nAMkwhWcaZZFxjQmNSULPCRGMssrJoVXcW3PaLH12zfFuNhplcb7Zwc+6B2lX3fPzRpvVZBWqkiZVtGdQsESAZW4keh9zFBgY8A2x0Ay7+m3ejjwrJlRquoQDHMD1KN2A0BYabwFA9xdBYHV3dFQx0cbnYATPJc2kGMPUEhkPikRlqSYrUKOLO+x7BdT/5FezFL8ITY6FSwW1IHVaxByQpvSVQI1WKYDOWWgfUCLwUzz8lUMutNQKJlOuIuIaVw4NIZKpc39aGZ7FAZ6iKEKe98uU46YACusIMJUSKmMvJ/xQSss2mpzIswyQOXXsGTZxJyrpiCIhXxjhIoJzWj6ijve5iEMATIfD1H/0aa+GiqRcgbFcx81kWo9s1FKjF7VaFubuZJz87NZt03PpYDa3aGDSRoMsrAnGEVm1EyYIv6O3GkS89ALff9r/Yb//9ceQrFuO663+LeoOAy0CcZEgkxyuOehUGh0fwfw88gFKlB8VSWfHXDJ1cZg7Hc+H0eCqT/fs77sCrXvoSBa5F20XcjFGAjmioAaFncPfsQQAfzbEhOJYLmdloNAN4rqvijs1mXY1hsVSASFK0Wg30dFdVBposYLpXzWauDKJzjaw72WjUxhzbHsqEtE1d08G5JYVwvEIBfquVl/aqdIlUnm6uX6wW9Rog7zhXWlcoR/hFf1arJElCQKb+ntuWyrlPGJNxIW3d/bPL/+WuNXfdcclMgtXO3tecA7Vzrrj3ohW+eWniVa1Y3zyokcVN0jPUj9N2JUQwDDuug4+uwxF79OK8U45Bnylghi1UHQssk4hjQgtNkXhp8qXEcFcdp/IKGvrJkgiMk6IHyfLEGAtb0J0ShjKJ//3dw/i/lSP4zZODQNeeSIu9qFH9u+W0tf+nYqllSgufFgI1ylySVUGvcAK1WIHaCOpBA91dJaSNMVRECDG0DofvvSfeddIh2BdAmfTZSJKI6h/asSOqLdXIhY3JAxpvnDBRxTDhpipkb0XE8KdC8zwzKjWuaB33bwAuX/4bDMFBSy+BOY6ih3AZo8czFaiFcS41RPvN5bfHQY2+27B+fS41RCGAKIRn6Cg6rlK9bdbHYBAnUOdK940bOh586BEsWLAAYw0qo5KqeqDWaCpBAo+SJZTVVW36dDTqPqrFXrW90+WgPrwGD//iTrz2ZS9Do1VXROWslSCtt1BbswELFi/Efi8/BGtG1mDVM49h0cAihC1g7ZpBvPSIl6k4ZpTEuPPOX2Fg8SL1cjno0ENy+cs0JYE2aLqOhOTffR8pZZddR/EjqTSrt7dXAR412iEqSqlUUmGBLfv/RLfJkyv0NOa2badMLv9st33No6xSqvBCpx9EJa0NPXrD5Zf99prvfnamgGhbYt8dOH5Oa4gZOok5B2rvuOLeCx/xzc8pUFNFzuOWmpKiYdRYOAc1iq+ZVCsV1eD6w1isp3jfacdifxOIR9Zi764K4qAJy7SQRAJJlsI0beWaJVEAx3DQHG3CNGzwogNuUyPjTNWKclLvQIZWEqoY07qM47dPrMeP7/wD6noXqnu9GGtGmwhJ7JDlahtqaX9um/uZKdlquom5+ymgfG7V6o+aNOtYX6thQ20UlUpR0SeqmkQ6ugFFpDj5sANxzuELUJ6g657r0I5T9bb0nNEEomAMUTfGiJ3PodROaNuhEPj1ilVYfveDaDp9GBIWQsMBs1xojLh1KbrIUqtWkEbxRpczb/TMc0tNUTsAahxD/DpS3jCp6XSaIYtC2IaJYon6qzZhu5YqBVPtAElGhVRBhESZakBHxuAVy9AMU/VcoMRJHCcwdAsFpwCeMegaw8K9+zC6diUe/eWdeMWhf6IkjvxmC7f+x7dJ9RMIUyx+2UvwkmOPwoqnV+Cx25bnAntUDaI7OPbMt8ErlzE0Wsevr7+BWokp2amXvv0diEhO3C0R+kJyQ4kcUHE+CSv0eDZkEmLVqlUKxKj6g14opOVGBOn8pbIVXOsgQ3u8cumB8UXtS/2qUkfjaSQm0RWPRc/e8t2vX331dz99AKPw3NxYdk1Qm4azfc4V93x0hW9+PvG67C2BmoqpUeyJp2hmAYKxdThyj26cd8zhOMgGeiiWFLZQcU0EzQBuoZjrsZHuF8kUJUSNCJWVhSYFXArITFsVeDeJNsIZiqTrT9UESRPDQQCz1I+HIoFHasB//vinUi/txepCg2ZrSml2OqBGnAWjLVlN3ejpwVb9GBSo1VELAnBdR9gaQ79noWJxtIbWohw38FenvA49pkSxaMO1oawGha1kOU2MtW3yvCtrlSwpqgTT80J+qiwYHkqxcv0Q7n9qNX731FpYA/tiVBhKkogmMyjDmKWoujq6CWgpE9jWjyOXT/VDVeTjHNTIbavXm0iiGLZGSr2pEhIwdE0JO4ZZgISoN1GiaCL03eDwqNJHo6UVhHAd4tpRkxV105W0EP1ONBfEKaJWHQOLulBb+zQe+8UdOOpPDobjGoiaPkp2QRXjtzaMqaqK0t59iP/YKtEfHoZtGXAcD0EQwHE9Bcgj9Zaqiy1Ve5FyDdxyMVJvIsik4klGqVR1yG6xoKhDtQ1r4Vm6ss6IHkTnlksgSQVsRDze2pL7puMBNnLjJy4dkcvcFibRTsqY50TnSjIWB79desmSb37la4yxraPnboR3OxTUttk0ncYAvuOK333kEd/4QuJVNwtqkifQ5DiowWKIa+tw1OJufPDoF4HVQizgCfYoFhG1mqpgmhKMBFihkoQOIUUAHYGaZGEjJukOhE4BEckbqVIrwKPAcr2Ovu4C1tdHEZfKGISOhwLgsqtvx3DoIrNK0ItuHuadqqXWrooiUDOoV6mS1CGLJy8IXzfWQJASp0wiCBtwNYH+qoeoMYrG6qfRlQWomLrKrir1V4uklfI2epQoUB3gJ1iQHTmfvHUdB9nBjucgDnwMbViXW0y6DelWwQpdaDIPtZQhZrqylpQ0eBqiYuvorpZU/4a8H2ouDUTcNMLlHNQ4RmvEgyMycKQmuK5pqmaT4lXNoIkwDmC7NgzDVCBA5WBEAyFpbprQPd19eOaZZ5TuWk9/n7ouAsokTpEEAQa6upDFLeyxRze8xMfdN/wIr/nTQ2BqUG5v4sfo9kqomh4ikWAkbSHOYhjU+IV04CzSevPR8kM4nqf6PZQrPWj6EUbHmqhUe9AIYoRxljeJERyca9BNGyOjQ6AGUrqpKXEEOtoS7qMAACAASURBVH+y1Ah/hBTqfozLiW9mUrB2i8TOi0gZAx0pqvxLsmhpIeeUYn4EbiqlIIFi2hp+8OYr/vu7137/4uez1KZhZ0xjNk9t0x0KalM7xQlbbcPInnvlvR9+uGX+fexV7Vxja7L72QE1pQbBUoQiwYKqhdZj9+MtRx6Ks4/cF32qoB2wNaAW5dppVBqk2BPUyAMBDDTBkhSuUUILOkZgoi6YElEsaUAfAzxq7hFnMFwNjwUNrIKGr169BA2zDz4q8KUNbpvbFlMrltHdO07pyBMFFFPLo8YkeEiEX+o7mSvH5qC2ZqSmzkkSsZhRcm4Ens3gkq5Yqw4rTWCQThnLXR4KDtLEp8lEmd+im1cUbOy/qQAuf2wUVSYNVdA7IepHliixRZrpG+oBxiIBt3shqJacGGBUysBJgDH2UXZ0dFWKSq9uS6BGlg/VbhZKBLYu0iRRFo2SBGIEDlzpsRVKZC1F6m9kfY2MjGBsbAwHHXCgsuAIKMjlJAuIfmh7AjylfOvXUC2a2HevPhitUVz7wQ/AKHtI6kMoVMoqntpYMwgk5EI6iHgGQryiYSBNAthFTcUsybISYQLd8ZC2fNWvQjMsJC2ytKhfn4RG0uNNX/3b7u5FWBsBFB3GB0i3jW4QITi9SMhCK5Xyzy0ulDJo/3HjTN5kSquYXHs9JRzacU7pWYka5bh52/CjD7xlenNzGybm9A6wXVtvBdR2rRPd1qs66/u//buVsvx53yxYLZHA1CgwnFM6KKY2CdQg0MxSVBwNTn0dCv4gjjloL7z5dS9BFcCqoRjFLhM333oPHn7kUey1Rz/ecMJr0F/UUWShcrlIbWx1y0fLKePWu+7DXfc9jLJbxt+efaqiSlAsSHeB36x+FjfcdTceqUskxQWItR5EgnTY8pzV9ltqFDcT7URBpzkzgVs7qN+W7lmzbjRvYsJyXhvFFCHzjvH0jU71mJTBbM+ODsm0M94bHxDV33Lyt51GKeTs5mHq3A2iK0pY3o4w45ZSsKVMJFkIrqEjiwK4JsOC/p42FWLzlhqB2vDwqHIbs3YTZtU+gHpyEqhtbBM47n5NbHKcpwXzk35OC0H1nYBnawibgzh43wHsYWv42hlvxotf+mIctN8eaNZH0dfVDZkIdDklrF67BoUFvRitjWBhpYuE85BoeQyVQJSsLcpoRkGA7q5eZGkK6n7YGbbxpso5DYcsUlJtGbd+t/UpH18v33dOWs7fNJPdz86aRKKmlxQtFKdbuKAf3/2Pb9VPeNUrvv33//DFv3/RwoVU6DInlt3LUtuGIT/7+3df+IwsEaiZWwM1iqnRBNww2kB/VwkV6SMbXYUBK8ORhx6AQw/aG1UP+PFP/g+Dg8PwG3UUNIkPX/AWdDGgi2WKxkA8qCY0PPLHTNrXv38VeIEeZoaD99gLJ7z2UEUXufvxtbjtd7/FE/UW4tICJHYfWlkBQhoqaUHZqLxNyfYlCqgFHfHU6IGmfZCCrioMVyKLFNEzsHYtgRopXlAjZxUpQ0bhk3YIRaMoGjXlbU+OvDphYqh54qBPFqDsgBrJo49bAHklANE9CEwJ9FUPz4QSNAy2QR2UCNQ0DPT3qBiZumwVR8tdUNWfoM1XqzVaKrZHllVC/TjJEp3QaFiShLrK7E2ezB0QU+q4G0Ft8nXlGcEQaWsUe/V56EeMH3z0Q7jkog/hgnPfioLFVLaULDotY2Bcg/DyO0XPjwIsAxiuN8hylKZpsqJtoFZvwiYhUp3oQJ3Qfe4qbgzaE6gRjUXLQxZTXSZe9ebumqLJqIoIotxI5b4HYYhmvYF3nnvu2Ev/9PB//sQ/fvGrfYw1p3oOu9p2cw/UfvDbjz8jyp/tgJpBlPAJltpG8q1qZktvaR1l24WrxxDxGLJkGG6BYWBhH7r7uvGT229HT3dJCUE2nn0a3/i796hsYW++V/iZQF1qCHQDn/vOlXAX7I1RP8aGdcM4+EUH4ID99sW99/8fnly3AXqpF9ztQy0yEcYWBNdgWQQwFLuaCqhROj/Pdqn/tyV8cpkPKgjXsW7tqFK7yEFOKu2yDEQvyN/aXOapgc5ko39tVOV4ztM6mS5Af1at7ZRxqOzACeq7eakWxbLU2UV5HaltUiObEI5FoJb3KOgsqkSqDWYKGMEwPDpCVWsK1FSgn1bgTLmeZK2RjFF+vm0KwyadMw0tDzqOX9/4RREoJ9R4hQjUfUUU64P4zkc+iH/7/Kdx/tlvUImhWn0Upm6pLClxW32NoeDa0PwEISWRvJKy1EjJqdnMu1AFQUuVnaWCCL62aqKsQF/FwPJ1lGVFLxNB47956ypH+wmp6c2gx0TLdHMWHxX0E12EEjL0Se43qR1T3PGII44I3vjm07/0lS996auMMVJnnxPLnAO1M39w1/97VlQ+45sFfXOW2kRKh55psNIqKEyiGQK6kSBhARrJGEIZQOr0HUPVs2ClAUaeehRfev+5SkCxh7J/Saq4URvCBLFt4Av//n1oPYuQWh5GmqEKjNM8DKIYxUIXXK8bjRZDEHGkmYUg8mGX6dmmibn9oKbiOG2lW8rk0sShXpz5ZKBgm44Na0bVv2k96gRPEyxlqQI3pZPb1m/rAJNyX6g9nDqfCbT1jciziUXU/n7cyqJi9LxLeg4mRDAVSOMEGnVGJz22OFTduKhF3kRQo/U7E7Ozv7E6JQpEXl6lSrlovPKu8WT5UcJATewOFWbieVK/VwooTmiaorBEBcrz8EpfbxWenmJhQUP29KP43l+9F//0hU/i/HPPQOiPoaeXIqx0PRqGxmoIuIDnFtFN/LyREF7RpmoorFjxOPY7cD8YBlMlVrrJEUaBUhemMVcZSgVu9CLKbSoV+4ypUUyesd60cmN7flf7In6uqg0ZrwAplUjWigCNKtlCxGGEYrmkXkQv/tNDwze88Y2XfeFzn/1ysVgkvvScWHYYqO2oCN1Z37/7kpWy9CnfLGgEahYfj6l1yqQ65Fsj5bAjYnZbKgmQIEYIUrtNkVFBnSkRJ01VauVQt6U0wBnHvw4LXQ39eYtIZRT5AlgzInHVzUtRXLgHVo014RN/W3cg6A0vNFTMMkxSqfApzkw6axZGqClMgcQop2apEahRcxM6DQIzAirivOVLbq2tXzsMThptkprO0ISiIv1ElfwogR+pj8ebJkx26p25WTOBVGk3PjXjQCyIeLuxGD2fsAQ2ZC8q2kEcKjoBgVpMjaJtC/39vWqyTXKbJshlqwQIkVVVJjb/IWUQlcWjSgpO/VXz+NQm5Y8bQULXKfs3HhxX0DEBtMktNrMQ/dQY9JnH8N9/85f41y9dgr9+79tB1ZZ+7KvEQ5bkRN6GkHBsG1XmIGtSr4UKblm2HF/60pfwX5f/F/Y/8EC0guZGIKNooWoO3bZk6dgTQc2BpeKuMwFqCjTbL6XOJ71UTUtXiRaua6pC4/+39x1wVlRn38/M3Lq90XtfYCkqn0qi+UQFlbrA7lKkCVi/mJA3nyWCriC9iBASWxIrERtCIJZEo68JSl4LimJF2sKCwPZ2+7z5PzPn7t1lb9l777KFO/yW22bOOXPmzH+e+n+MZhPFWaw0ZNhQ29Qp2evWrFm1XpIklN5oE9t5A7XzNVt5W/9nWYE7eXGVOUGuATljA6Amcj/hAU0A1TSIDz0SVSBqHSqVxUSyAZ61GrJaFHLUFJPsqibJWUVGFPuoqeIkawThIoatrKKGkuISyZqYQoaEZPqm8BTFd+xEZXYXmazJzACSoJqYFx+uSASQwhPoUtxUrdaQR4EK13hJjZNndPXRBVBTHAxu3ptWVeh0YTHJHjgDDGxTAfB5IKnp4KGBmt433+w6JNZT43yT7WsdBhqg4HCwmXDgLGcmaES5+APkwjMLUIP6aQJTicNBJgtK5HVg1fKczQtsHg5AdaOUIdLNPJDUEGCrxXAB1AySiSRvAWcN3JgiSc8lgtqqwbM4sbodglkEoNYtXiLzySP0xG0LaHP+XbRwdg6pko2siXF0+uwZMsgmSkrLoLMOO5kUEyWhHmyVjeISrbTz1d00bcZ0+uzzTylzUH9y6s8Vh8tBZVV6xXtv0r7WP8bIAcWkAXO0tvoOEXh+4cBQjAaO3dOK7RgoPt5CWVlDq8dPGLfuvjWrNqZJUll0xhCJ+BLJsbWjb3OgNu35j5Yf8yQB1MgvqCFOjaUsJ1mTDWR3O8nukMjtNJAix/GN4qp2kL2ynNqlJrAHVUEyswuBnk4O9uTUF4+H2rfrTCWnzhIYyDpntGcVpbC0mJK6d+MKVC5VJovJQlZSCLmhsEHZHNVkl21ksiK8QLvZwgU1BRXRoQorTnIqLvLIkMJ0w7mq0JnCIr5pFI8GagA0qJ+QHjSngIWlOO1mqEUyvdBe7UrxIlndGxBOAkhuLpbUNHYQqI5gQgFrBaLmET/ndtawZc9kNpLNaSOT2UztO3YiF1KZal2sXvucSNcCxYQTDxKXm5weFDTWaJCYeoKzB2ptUnxJdUkSkibGhcI5AkS0kxFeWrw3kBFBwXY7dTDaiQ5/Q8/fPp82r1xCP795JklGF5VVlVElYtCsCfTS9tcIZrPU5FTKGz2WKotLKKNjCr333j9o7ty59Pbbb1PX7t04WwEqc3mlFi/nlRP5PGvjyHCOUAd97WKNBZZgNzAeCrCjIUAYdSnAG4gx4LtBgwbVTJo4fl1+/v2bk5KSihrbdzT2jyx2tWEQDDYn0Rj3eW0jb+sHy467kxdXmxPlKreWkwg1zCUhtACnC7ULkIQnvoNq1DIGAb45PGYyAn48ZrKoCplg6HY7KMGqVaQqAlhlpJFqBF2Nh2ocTqoqq6Y+3XpR8bHjXPgYdiKHpNJZp4PSu3ShoydOcECoAzl9lZWUnBJHlkQDlbsqyOl0U4IhkRSIOn68d0bFt5hxKqmeWpJI1Mc0uLWb2gUHgCJUUP02UmU6XXiW7UHM8cWBtB7el9UgH1Dz3lj1HvVC4tE8qjqRo041zsnRuuFbk9I0YBOSEmxpXCcUsW8Oey2osaQGUIOkJpKy6qqIAnxw83lUFzsKEAwsQA1ghVxKxPLCWQJprRYcNYkNGxTWc0FNW5IAQHuVgynOuiQqREe+pedvnUdbli+mBfNzye5AmT2JalCImYzUuXMHkhKTmAb83b+8SWVFRdSpczptf+1lWrRoEb3zzjuUmTmQPb0V5VoFr2+/P+jzYKh9IIji00YvPUp4t0mwGxglApELi3lDMC9yT2GPtFhMNHDgkMq83Jyly5bl/06SJFBEt4lND+Kp85Bu1Sc2f/e+RV+XupbbDcnxZTYPJcYne21KbAtCHCRzMHpIld2kepArIGK7oE6BFBBqnXZboCYk6HLAa4anLjxiyB8EICBFRvFI5HKAJtxEDreLqkFVnZxIBquZSspK2SYE3jF2qUNFhKEedSsVAIJCFqeJ4LCoa1mqVZUQD2s0KUx/beUwAYMe8e8kRFIoqkkzOLMxWjtOZSlMM54jf9HlcnOOJdQ+tkuBz4HVN/yJxCj9kHrWKZ0iQq8Cr6mUosiLFl8nQKM251CAGlp0IngUhh2Am4w5NJDZqgXBchQ98s7qbdqiPEf/rTdHIgZY9/7qklnwxesrjRLJLhfFmySSUUCn6AQ9N2caPbr6frr5ljwmy6yoBKAhwLaKzhSfoYqys9S1azdKT+lMDruTUpMT6O13/kYTJ06k/fv308DMwWyQR2YF5vvMGV/7+7lqJnJbMRd48OE4jcEjngFIqz/qYZteamqaRsUhSbwfqmuhD2FrxGeeNT0DBPugXaicXHRHUfgV7UF6M5lkBrXcnClLHnpo6WYJQYRtZAsG9K3qNCHKTtz61v2FDtNiSuhgUqwZVF5azZKaQU/4BaDBqI1sA9yeMCNrMkjDG4OAB5KGkxcG8guxcEQdTdmp8u9Gaxwz+pVVVZNkMDAA2mqqKc5iZskQBnqP7CKXDFDTMhTgIbQ4jGTw2lRqpRXNU+ZhbjOTyUhxcRaulQkgwPpDnxyz5TFoCo2vIalWvCJbjZ0ZXZ12qM1OcsOIBYcAQjdANW531hqgfI7z116d7wUA+gn4xLDEfIlcRoA85gZ/BqOQHkXcQuNfOYuxsePW90fQsMHpoDgzYsWcFF90krbOzqXHVi+hBbfmMqhZjElUePIMKWYTU7Enxhk50NbhNFNRcQn17dmL3n7777WgNjCTbDatgDRATStF6H8DGIkMB0h4eM+eXVTscrn4ocilAK1Wbi89PZkqKmroxIkT1K9fXyovr+C0LwAV9sXxmFtsviAJMASooU3sazYrkDgrp+XlLV6+fNkWCflabWRrU6CGazLxz3/79WnVsqLEYzYr5jRy46aHJw7ZBFBHIKkpEoMKNoS/ivAD32sqJobBQ5J44eAV4jwWDp6oJlQ8R3gB2GItVmZZLQdxvgTxXss38Lg0LyO71eF5VDyal1C3e5ncCtMXaZtuX2PVUAsB0BasiUEtLt7CC5azmfBEdsN2ptFN+/OeIekeYRMuF9KfcNNoKqgWP+Zh1pHGhA5o1Qw0u4w25MBLCDekkB54lIgvQ7I/aLJlmZwc5V4bghCpF7AxxyPIOBioqS4zVVbVUHFZGVnjFaouK6KOHTuSm+I5Fz/Rag0IagDAYJuYD0hVWG9FRUUMPniAwdDfpUsXBjWsu4KCAl6HSH4X9ESwl2E+AaCoyYDPnK6m8al5gRVtiHbRdr/+fStnzZx5//LlyyCptTFQi47TIdi1Oy+/z975Qe4PFbZHy9zmdGNiGlf6hhqGWxBeM6igADQAG2wxqgPSzrlqgRDGsYDE0xKvWsJ0BZWXl3NBXqPLTiaD5vWzOZyaYyAugcygl3GpnDIjNtixNEBT+RXTDg+YV/DnNxroiJgmlghNBopPsDKw4SkrQI2lH4BiAEkJi5cdBLoqw95DkaSuS1KRXRgfcGtAYnLBFSiBeBJnhv8QmY9z5yx+Btrm2jRQc5HFjMCTWknt0TVLaL4uqakOE/344xkyWMzUrn0yyW47X3uHG7Y+ooyU1ICg9tVXXwU8PSHBYl1lZmYy0OMYLkBtNjPAjRgxgt8D0PCQgMRWWFhIOTk5VFZWpnm13W6NtcRmY2DDwxdURlBdAWbY8KDFsVjHDGr9elfOnnXjgytWrHhEkryxQM11OaLWb5uT1H797mdX7Pny8GYpOX14asdu0o8/nq2N3eF4LomlJaYdQ24iCgfoAaiY1foTwkneuq0CaiASv7GosZA6ZqRSdclZijebyOn2UFWNnWR4OuOSyOlSqbICcUwoVKwZsTn0kkkQtej7c2xgPkGi3Kl+0wPU8BSG+glJDeongxPK3SEGTQ9aaGhViNxH398EsPmCW3gryudhUC8+SsRJwdbIkfTsJtCof2D4Vz1a3VJtfptHSGBHhstFVhSYUZ1kLT5JL8yGTQ2glsOq/8ljxdSzd08qKaukdmkokEM0duw19PL2t6iquoYSLJDUYFObpNnU6qmfhw8fDji1kLggzUGiysrK4uv77bffskSlGfQtbOjHQwmAdvDgQQYpSHUAJoAh1gbADNca74V2gd8BcP5BrU/VjOnTV6xZswoZBY2iHorMaxneagt8VK1k1uZA7Zkfiru/seeTqaUOz1S7KvdUQJVAEsQ1SZJVznbxyJKMoj+QrmQJWXwIw8fd5cEueAUQKdhTlg0yCv9CXUPqi8fFaS6eOGuCnGi1UNGpE5RkjWe1DiX4FIOJnKpC5VUOqnGCKzBNSyhHPqNeJErjv9KlRqU2GNN7c3tFN6iH2lMVgIYFDpZW8WRmUGN1UI8X85qX4OjQQiW4KVniRGtOL0KVTjgtkDZDKiGNyI85LvD3Is5TT3T3Z9ayVdeQpGgpTVqwu+rtH+NAMG4o/QtfTqPNZ8INpMet+R7vC2oeclJckQZqv4NN7TaAmo0UNZFzf83/SS96aPkD1KNzO5aK5t+8iO2VGWlpASU1gE6gTRj+YWbo3LkzgxMemt27dyYXeNyqqunHH39kdTM1NYWOHDnK1x/gBSAUlEUAOdjx8AepDgCoSfkwXWh2vfrqZ//+fWumTJ68ZsOGdWskSQIZTZvYWiCoRa4LP/n58a7HTpe1Kzx1sofbpaZJKiUbFNWkkgeU8LKqIGFH1bNTFLeKOFs2nfHtpaiSxyC7FaMkq0ZFNkg1tupEg9HsklS3w+X02BKT44+pHtV89PDRcSYy/dRitFhY+pFAB6RQabWDVFMcdezRl34stZFDNhKor5klREhoUEVlj6YKewUeXWLxAbWkpAReuGaLUbenyayyaSEObm81pga9lBIxoaJkUMikGPgVqUWi/BteLUaLntakp1VqhPh1vZ0BP4vc04YtYw6bjZ8X7LXVWVjdLGW6OVPAYkL6lhb027h+I98flbeMTk1SA6hBUts2O1cDtVvh/bRR6VkIMDLFJSVS8dlCMoG5V1EoNbUbFZeWUVpKSkBQg30r0AbbrHAWAHQgtQGUMjIyaM+ePZSUnETdunZjiQzqZ69evWj58uX06KOP0qeffsoS2xtvvEEXX3wx9evXj06fPs3jE55uABqO9eMosI294YaNmzZtXC5JEsIA2sTWAkEtoDbVqEmHiKwfIL9HJLVrIHP4DJHcTheRfEuNHdc10a5EahmSDDSiVxQU8VxF5H7vDMW//ffXr1lxzwObyK324Hwfi5WTnqnSRtSzPw0dPZYuu3Ys1chW5vJ3CVZXzgPUIqicqHjObKXnAhr6w5MX0pnwFmJxMmMF852BZffckAjfSWJ2DEUjIRQ00ezNFWlHkWp+Aex5GAckD9E/h7cA2HUbEMahMEtkpINo1LLw7ozqW0ank6wmYx1Q27J6CS3UQY1ccXT2bDER8745uBAPs10YUuhscQl1aNcuIKh98w3KVvvfMAcAHeHBxHXB5x9++IFj386cPk1vv/MOgxTUUNjSZsyYQVOmTKFf//rX9PXXX1NeXi6NGnU13XvvvSzNY61g3WDu+/fvHyCkY7DtujFjNm/atPEhqQlYOppLRW2ZoBbeGj3vRz3y7AuXLbp50U6SDR0kqIUYAW7yhBQiUzz1vX4iXT31Rio3WKjKYCa7BOpuJv/hMA/2iSLv1NeSVydcSNzs/m/6Zr+AQUBNvygiVqOBawSAr/t1gJ2jeo1R00GqqaF4i5FcqoPiigrppXkzCaA2/+Ycdh4A1E6eOs0BuO07pFDZj4Wa5GxOp+TUNHYSvfXW32j8+PG0b98+NvYDgCCh4aGD7ziSHywjujoo3gO84EkFgKFNFF4BuCG27ZZbbuH9IZUNHTqUjhw5Ql27dqU333yT1q1bR08/8zS1y2jHUt6///1vuuv/30VXjbqKbr/9dlZV8Ydx4CHSo0cP7YGGP3jsrVYyGBTKzBxgv/666363atWKVUlJSTE+taiurlba2FNPbR1+y8Lb/6FIhlQJHk1SyQHhMDGZyJJIA8ZNpp/lzKZSUzxVGi1kk3WeMCZo1Co3qUz+zV4Ln4BT3xAHfXL8eNwjSbGJzrRHkrfYPBKaOG/mn2Njv5GcqoOsxRqoQf28SQc11YmYLgudLi6lLl0yyCqrNHLkSHr11beYfaVdempAUINzSUK2hV4VSsSQ4TMAB8G3ADN8hnSF34cMGcLey127drG6CUDCfpB0UTVr2bJlDF74DO8nslg+//xzuvLKK2nSpEn03HPPsRoqqlNhP4AlvKNoX2RlXHTR0Jprrh69ZeXKZauTk5OLo7Memr+VZn/QN/8UhD+Cbdu2D5s3Y+Z/GyU5GSqUkzzE5MtJqaRakyhz/BS6Im8eFZkTqUKxUI0BFEDMLqjKHgecEmRQUZ0dOYwa5Y+2NQBqfsWX5gWGgFxgIU9t85yDAYbUGg3UwH0GUNs2bwb9bs1iuumWHK5jWlaEEI5qSkxNoW0vPsvqJySgiRNnsse7S6cOAUFNgJkWNC15pSd8xgZQAtgI4IGB/xe/+AXnkb766qs0bNgw3gexatu3b6fbbr2VPvr4YwY3qK6Q1DCeJ554gpY++CDd+5vf8PGnTp2ibt266aqyP1AbVj1m9OiNS5fmr09NTQ0eUBfy9fTZMXITeaN7DQxqzTCgRp9BMx6wfdv2rBkzZvzTJKkpYKAAm0QNvJqJKaTGp1Dm+FwamTuHis1JVGGIpxoFtD0ImHWQQbVzJoHBE6cTBYoTCfUGr7XDIUVKXCrtVdJyW33kv7q/18qFEX8fxPsZmrey/vijOD4fAqX684GEe8lm1yQ1HdReuGkGPbp6Mc3TQc1RLVFpeTXZ3Hbq1b0bnTx2kEBn5HKZKCWtHcVbjQFBDaqeKHcHcPr+++8ZpGD7wvcAN3g3sR8CZhGCkZ6eTgsWLKCvv/qK1m/YQJdddhnbUEePHk3z58+nefPm0cmTJ6l79+4s0a1Zs4b+8OST9PM772RbG5wPXINBllm9FeonJD4Aq1A/B2QOqMqeOHHNvffevbF9+/ZNynx7Pu1rMUktAlB85ZW/DJ6el7vHIMvJZnCUqR6qgcMgMZnc1hQaOH4q/SRvARWZE6hCiSO7osVqoYiy0WPjauqKB+pnYGN/g0P0SnZaaEi0vYcCjIK3q1UnCIviEDmozeD1FPPFCfl2B8VZzeTyOMhSfJL+PG8mPbZmMc3VQU1yW6jG7ia7B2X4qshZUUqpqelkNCZTcWkFde3cnkFtwvjx9GkDNjXY0wAkALH6oCacJgjhALhB6mKqJbebg28feOABtsm98sorHJC7+L776IVt29hehrYGDBhA//jHP+j++++n6667jm677TYOtoXKik04ifyBWmZmZnluztRlq1atQEJ7s4R0NAXYxUAtAlDbseP1QdmTsz8wKkqyCXQ+qovsbpWkhCRyW5JZUvvp9PlUgopThjh2FMBBoHgcZPbYmb1CJQtTbQff/NmudFbV4A0E2SMcWPJp0k/wbX3SwnM+e9XtiE+g0Q0gqRgTKgAAIABJREFUpEN1uLyghpCO5wFqaxezTQ35oLInnk6cPEPmBAslJFgoyaRQZWU1S2pni8uoV48uASU1ptJGOp4f9RMSFexdCM2AGglpDZIWQBAhHPBg9u3blzZu3Miez7vuuoszBUSGAQDrgw8+YCnu7NkzHNcG6Q3qJwAVQOnPpjb8omGleTk59y9b9uBjkiTV8qo3eib9HRAtVa9x7YQIar6NNq6DqM1PC2xo9+7dA8dPmLyXDIYkC+xhHhc5YACOSyS3NY2yxuXST6fdRGXGZKpQrBzSIaPClQoWXRtXYHIbLByY67v5ms9q358Lal7u+zpHh3t9wgM1Lwtu2KAWqrrd8AKIxFHCM+XwMPuJgx0FGqg9vkZTPwWolVfZ6dTZU/SHPzxGttIi6tdvAM2cuZDiE1OCqp9CzRRFhQFG2IR6KJwFADWoizDip6Ul0b59X1CfPn0oKSmOTpz4kQEPtjcE4B47VsDSGsBQZB1AQkObffv2pNOntfdoU+SFNuwoGFYyY/r0e/Lz73+yBd5eYQ8pRFALu/02feCOHTsGZU/J+1AyGJJMnN/oYI40Q1wiOS1JdNnYqTQqZzZVGOKoRrKQG1Q/HicZPG5mW+XFrSjkRKQ/kxtqtQFqX4OrlVqeaG24PPOehWbIClrUI5SLV78ieCjH1N2n7vhDSi/wPV+gaqjnW38/vgBupnVy4bqUnqbfLZxLj61bSjfdPJ1DbwqPnSGzNZ6s8XHULiOFBvTpRf37D6BXXtpNh48epd69ewaU1JA65S+kA98D5EQICLyV8IBqDBz9vPF8sLP95Cc/4cBc2MOQD3rgwAGW6iCF4Ti8B8AhIBceTgAg1Fq8+lM/B2YOKJ4zZ+5dDzyw+E+Nv24t6whfNTYGahFcmzfffLPvDTeM+1yW5TgEyCI4EguptKyCPKiMDa9mQjKzdhBYWmF5YtELOUa6hGLUpbQGJZ0AVm7RDsbfADd9ULUvtPiyEGYnCiEd4Y4/0uM4wd6jGQTdHs7asBeepN9v2Uhz592oleIjhY33TGyAAtJOO9u8jAYrOVxOSkvNoL+/87Zf6iHYxGD4h/oJOxjsXFAJ8RmqpZDY8Fnkd2LSNWO+gW1kkLgAXHjFBnBDyIbwnMIzit9hhzt06BAfAzCDhxSqLGxsWoqdxn7M9UkNBho8eGDR7FmzIKn9MYQL3Wp2iQqohafwhHdUS5rZN954Y8CkCRM/MBgMadUoKcS2EzM/MYE5vHC5LqXmkRSbIFnkfAfEL9XenKDjBW3IOQU0/IKU3npY/kKtMnAw5Azwu8/VCFv91GYnrPFH4ThJAQuLTM5KrUJcRseOtGrVKsqZMpWBrKKsjCUfLsfn0Kq9w2aFtK+yigrKaNcpIKgJz6cI50AfGimBxAAHIBN0TFxxXk9/ExkfACdBQCDsc/wck7T6p9g00kd4ZDX7HMBSsH/gO9jgBCcbwExklgwZMrh41swZ9+Y/mB9TP1sSsDTnWLZv3z4wZ8rUfRaLxQx6aiw68JPhyY5F2b5DBzpbUhv+U0tFqS1GBrWQQEWcZUM3fwSSWmPAsyHQqjP54YJjM44f6qi9hiw6USOzwhpNDGpzZs1iiUqRFTp85DBZTBoJY/t27ensmTP8Hte5U+fuAUENEpLwcqJ9X+onLd3KoLEj6+lj+A7qKP6wP0DNNy0OU+6b9ibAUZBLivg3ABvsaZDi0A6kO2QwQAIUYDh0aFbR9GnTwHz7WHPeR9Hu26+k1hSu1mgPvrnb2759e9ad/+/nr5SVlQ2AH1MzxibzwoXYL+OpKIuScrVq2rlxtJEZy5uLZLHueYTjaGgo2DhIO95QlnD7q3scHkbYIMmkpaTS2dOn6fEnn6TZN97IYIBIfkTso9r67Nmz+RUG/LvvvpsLLaekIvfTv/rJUh4kd50tmVVan8+CCbg2SBcSl5PHwySaeu6ukK4wVsGUi1ccLzbsLwBLgCeOE7mgwoYn6LSGDc0qycnJyV+5cvlvm/teimb/UVE/ozmg1tTWjh07hmRnZ38sy7IJT3XY01iFycjgJ+KZorO8KDWxzLfohuYA4K+ZRTbSLexIsXAjzM6tKh6R+tl84+ekeqOR3C6QRZr5ej3yyCMMYLj5IfEAOM78eJpuuOEGNikgGHbTpk0MICZzPL3z9ts0QdQoqMenhiBZAU6aZzONbV3oBzmeooQdpDFIUrDL4j0CcoXnEqvDlxfPlw+Pyw2CGl23l4n1JijTMX7kjApiSLQjyA0GDx5Ymj0p+6F161ZvjNUoiPQejOrxzWebe+211y6ZNm3au2azOVEwywqqGZFQXFXTMKOLVhIP9pSoTkYzNBb8BAJfodCl1IivdAMNSIpWMwHg4HQ4qGu3bhzMmpuby0CSnJRMhw4fqlU/27dnMDIoCpWUllLnLj0CSmow3AOkBDhCyuvduwfV1Dg4SR1/ABnsA7BDQjyACewb6Af2MH746YzFgtgTOSNcr1ovGei7jwAuAJkW5tGXPbCQ2jQTiQaCALWJEyasXr9h3Xq5hTHfRqIptjFJLeJlfw4oBJrcF1544bIZM258v1evXqYjRw55Oavw9IUtRTMENyyJadRtYLBtBhyKdalLycTSEcIosAkW2j/96U80Z84c9iKigLIInIVKiGubnpZOJrOJTQzJSekBQQ3ABODBWgDYQIrHHz4jNAOSnMjfBPDAU4l+jh07xkArVEpR/UtQs0P1xHtRuwDgJRwJonALjsE6hGcU+wpV2KAYSFZkysoaVHrD9dev27z5kXWSJDUfr3r02Mb4OrZ6UIsE0SO9t5955pkrbr31ttc/+ujjxKysQV7+dyxGLCatTJlW2SfkLRLenUiODXmAfnaMSP303/k5pxTgHMM7fZnVPIADgAaS0YoVK5jLDN/DVgrQw/WEl1FIXQAQ2FA7dugaENQAmlqxHJnBSlAS+VaMAsjhe7SH/QVXXseOGVRWpgGuL/W673sulqzz4wnPKfoS6qag9oZphCnh6zgKBpeOGT1mw5Ytm9c2ls470uXSlMe3elBryskJ1vazzz579U03LfhLQUFBPIzJHL9k1IzCtUbc+uqV72ehuonX8G7LYOP0+b3JO2jEWFrUrgAcPIQQxPqHP/yBbWoABEhmAIiKqkoGLzgOkEh++eWXszqXkd4xIKiJAio4WTzssDYQX5aWlqbigSzqeiIGDZ5K1CcQLLXaejJ6E98FKy4kO7wXXlO0rZGJGpgSHK9C+kR/qBkK5wNAWYAp+hgyZHDJ6GuvfXjLls2Q1JhgJrwt+hpSeOPQjoqBWgSz98ILL1wza9YcgFpc+KAW3CYVwRBjh4Y4A/5ADaCA3+DpHDhwIIdY4HXHjh2sNqoeJSCogecMEpLIvwSIOXWnBDMXGwwMNtgAgNjQB6Stiopystu1eigAW1GDFp8BwIiXw9iE7QzHQX0VYSD4Hg4H7Ie+6oNaVtag4jGjx6zfsmXTw5GBWoiTfJ52i4FaBBO9ffv2q3Nzp+1qHKjV7RCM43WYbyMYTzQlsgtFpEMtGGz+QE3U4QRAHD9xghJ0vn9Ia6wuJqBGgf+QDqiVHAirKOxhFdQ/IpMAwIh2RGwavJ+QBjEeqKX4Hu8Fe4eIR8PxIiYNYxSOCAAYxmqz1ZDHowFyQ6AG0MzKGnT2huuvX7Np08ZNzW1Ta+yyDyQbRh3UWpYgKqaqaUYVOahpCcxNAGqNXSMX7P7BQA22NHgo4RRADiXAA5sIjJVkU0BQw/FCjRQ5ngKgoHICgEQmAWi9YdQHmAGMBCWRiGUTaVWwu2HdQMUEKALgsD82ka0gqknBPudPUhsyZPDp7EkTlq9du/b3sbqfF+wtUPfEX3755WumT59eT/3UCnPUD4z0N2W+Rt9g09o00Bys17b9u4j/8iep4ToCTAQQOWxa7ic+19htlJrWPqhNTQS9AqREIRpvaIYkcR4nYsl8g2ch4aEfvAL80J/wfHIeqsHAvwMoBQOIsJfhFZuQ5uqCGtKkZO4rK2tQYc7UqUtXr175RFu6ylGX1NrS5AQ7l1dffXVUXl4e1E8fRwGShrWob99ob79tsaQWbvBpsBHGfg82AwFATfV4PBKAQUhYq1evpqSERHYUzJw5k8oqytlRcG5Cu4Oqqir5uM8++0wv2KwF0EISA1BBogLnGWLTwMoB6m3wp4kHIr4H0CEVCxuAD8fDXuYrlUEFFaEfACoutgLvp6LwfoiLC2BTOzp92vT8FSuWPRNsnlrT7+cZ1NqWrLF79+4rJ02a9HpBQUFCraOgrqQWKAyNZ0N1M69aeNyxTbfULgSbGp+jpJEPOPx4PwFAAIvK8grq1r0bJSUmcYDs7t27yWAyksWcEDD3E/Yx/GEDWwdA67XXXqOLLrqIjfqwpwEkUcl97NixXJUKJfDgGACr7TXXXEO9e/dmAISkhzZEsjvaFI4MqLmQ0IRtjSmNnA5KS0UR5HMdBbqk9sPsWbOWPPjgA9uabiWd/5bPM6id/xP012M04PX111+/fMKECX8rKChIDBfUtLzNQKAmRtpQrmPzzmcDwNcKsVArbegP1OCRBHCgkj3UQCSzg4SAI/kVmZIS0wKCGuxjYKxF/BuA6i9/+QvlTJ1Kt91+O0HyE3mZ7777Lkt/77zzDg0ePJheeuklWrx4MQcB33PPPdShQwYdP36SgcvXDicojAQZJcaLfQBqALggjoLv5sy+8b78/PxXm3clhde7vxjVCxbUwpvGukft2LHjstzc3HePHj1qBajh6QcDsiieIVz2wftqeZJa8DG3jT1804xgVEdw6ubNm+nmm2/mIFhIRXgFOABABPWQUPVSUzICkkSK4iqQ+D766CMGrnHjxtGLL26jEycKCQn1sLmh3sCgQYPob397k44dO85g9+yzz9J9991Hd9xxB/3mN79hoEKWg/CYinzPQFcCTgUBfIIGXGQjDL9o6FdzZs29b8mSe3e2hqsZqiASA7UIrua7776bNWrUqD179+5NQpKzoIvBgkSAJcR+b0J7BP2ch0N9JKxQl05kowqnl3COCTZKXB+ACoJZcd0AAn/84x9p2rRpXq8k1Ec8rAAKsGuJBHV4RHv26KOD2jjat++zc4oZI/UK+yHt6ZIRl9DCBQspPz+f7WgXX3wxFZ46SX//+9/p5oUL6amnn+bMhVGjRgk1Un3kkUek9evW0eIlS2jJkiWsygLYoI4Kh0CgcwQQQn0VnGuchG/Sslz69e/zxU1z5y958MElu85vQntTXMnaWYiBWrBVH+D3r776qtPIkSO3bdmyZdjIkSOTEc2NJ31JaQmlpqTyjSLYSiPoJuqHNu2Sivpwm7RBPIjYk6l7GwFcv//972n69OkMGoJ9Bd9/+eWXnB+KfWEHQ95m1y49AkpqAElI7AA1ZCnAhgbQvOqqK+n06SKyOx10/fXXswMAxVWQD3rFFVdw39988w3NmjWLQQwcb3PnzuX3kBaxtgC0GH+gDSDmD9T69+uzf+7c2Q8uXbp0pyT5qZbdpLPfNI03GtSaM9eyaaYg/FZVVbX+7Gc/W1JQUDDj8OHDXJfs6NGjHM8kNl+20vB7ahFHthJ7WeOGKcIicPMj7gteyIcffphuueUWNiNA4oYnEhIS2C6grqISOgoNAwzj45ICghpsaiKpHX2NGTOGjh8/Th9++CE/8A4e+oGmTp3KNjQ8FKGGAvggiQHQQAf+8ssv04QJ4zm7AFIfxpqWlkplZeXeJHZ/KwTrz6/6OXzoF5OzJy9fvXrFa60t+DYgkEfvdrkwn/8ffvhhz5EjR76/atUq46JFizoKrqqaGiSza+kvsa3lzoAIYhXMszAZPPbYY7Rw4UI28MPbCFURr/BGIj8T36MQCgfkdu8dENQgeSE0AxtoiCC5oSDxpZdeyo6CUddczeEacBBAGoSkD0ls165d9Mtf/pKef/55Ln8HwBVOCwAVwFLY14JJav5AbdjwoV9OHD9+5fr1awFqodX9bObbPBShqtGSWstdns0zssLCwriXXnppxKJFi57Pz8/33HXXXT3wBIcRF4se6kv0tsZwVtTttXHyS+gjbqp2/Y4gyh0CUABYsK2JgiRQD+F1hAoINU8QOfoGSgs2jWCOAmQjIP4MYAhJDeAJoEOfAKW/vvE6E0NeffXVLHUhbAP7Yh/0B0DEOhK0R4KSG79jgz0w0Ab7mV+bWr/eByZnT1n9yCMbXpUkSSuy0Qa2GKhF6SLec889wzZs2LApMzMz/pe//GWnXr16Wa+88so03BSRbFG+hwMNBV2BUwt/IIGDSxbrw4jiRvw+xMGEuFuo0yLGg7GAuzqMcvb+uwLQICD21KlTrrNnz9rHjRsXv3r1Gho/fhwb1GG4R1I4VEIRZwZpSuRqpqW2CyipfffddwxS7733Hqu2kMYAoGgT0lZldRUDE/qBNCYKqmBc8KhD/YRaivdQgdE3gA0qLCfUByHkCwxqfb/KnjRp7V13/ddL3bp1a1GgFopE5u+qngtqzSxehrrSW+J+e/bsab9s2bLr33rrrctSUlLcpaWlHUwmE+7xOFVVLbIsm1VVhetJ3JwIPsOM40+8x6mJ73xfxfe+p462ff/Eb/XbFJ/F7wAsABdKXQnQsKuqWiNJUiXyu3XwgBjQk4jaIXY0gjkPF+cwFvyVgV1HHxPmz6K/950/DK9+rLNY3/Vfxb4eRVFqFEVxVFZWphkMhkRcm+eee84MRwGADJtgxt27dy9LTACZ/v37s82tQ/vOQSu0A3gASlBbAUr4LNg5EMCLDRKjqD2AfSGdoV9R5xNACNse9oGUJryZwWy2IqQEMWvnhHQMH/bNmNHXrr3vvntf7Ny5c8MUzRFc9FAOjQS8Qge1UEZyQe3TeJQvKCiwHj58OOHUqVOK2WyW7Xa7ZDKZZIfDIbndbllRFMnpdEp4rayslHTyQewDlcf7oJFlWdJpZPg7HCMkBPyG9waDgW9kvApXPT7jd7zquYFSdXU1+ubv3G63iv3NZrNHlmUP3iuK4jGbzW4kNuN3vQ1DTU1NpzvvvPN3W7ZsaWexWLqK2pRQzQTTRCTLQVBZi2Iggm5aD4P4ePv27Wfuvvvu/JqamgqXyyV17tzZXVZWZrTb7bLBYJDT09NlETbjdrs9OF+cJ/YV54s+BKOF2WyWcM7iz26387mWlpaaJElKuummm9548cUXLZMnT2bggT0NIAMpSjDIjhgxgoNoOW0pITVg7mewuYH3U4xN5HCK9DoRJwdg8y2BhzaxLkTKFMYmckoFCaSwwUG1DeAo+Pa6Mdet3rx549aYoyDYlYr93mZm4NSpU/F33HHHU+vXr8/p2bOnhBsZdh+AGtSmOgVBmG/Ev0VD4yM593dR+xKTJt4DnAoKCirnzJnz1+3bty/o2LGjRgHbhNvx48fT+/btu3/z5s3tc3NzDULNhKoH0MUrVD+EdEBSQ6WwlJTA1aS++uqr2pKmDYwdld91IPbmiHIxGL0KFMBdgJ54oAmKbqjDADaopfCWVoIoUs84gDQIkISK6t+m1ueb7EnZqzdtevjPTQ9qjRcOwr3UMZtauDN3gRx36tSp9vPnz38uPz9/zJAhQ9j2w+X/ZJlv8GDqT7BpAigKjjCRzC2StE+ePOmaOHHi2/v377/B204T3htFRUVJ6enpRzdu3GhauHBhHAABti+kN4l4toMHD7KNDBunLCmWgJIaYs0CbYpRq5quS8b8KuYUcwNgEkG2kNzwh2uAeDmEhEASQ8gIVFuEn2AT9OF4D6kvQJzaNzk5U5avX79+W2TUQ014UYItoAZ+j4FaGJN2IR1SUVHRfsGCBS8sXrz46n79+rEtR6iKmAdRrzLcOcEN6wtqgi4HNzZu1uzs7Df27t07Ntz2G3NcWVlZWnJy8sEtW7ZYb731VgvnfBqNBGM/7Gc9e/b0VlDHPEAttdW4gtb9DDQG0BcJDjSX08lGQfSJvgX7hqj+xKy5euqWUKkhLYvCxfhd5IWK9C6M07/6OeybydkTlq5evfrF85tR0Jir0vh9Y6DW+Dm7oI4oLy/PyMvLe23Dhg1XgFVCVAdvDGdcoAkTxUJw44mbVnCHAUguv/zyDz755JNxqampkbmRQ7hqJSUlKRkZGQefeOKJpPnz5xsFzz8yBxB4CxUPQPbpp596Qy26dA5cIs/XztngEORaaQwSGDaAlKCu0u2m3rqeYr5EupbwmAp1VfQnVFWo0IFsajlTJz+wcuXKl0KYnha9i6/DIQZqLfpSNf/gVFU1Z2Zm/mvXrl0jIKkBeARFdTRi8ATvvtEI0kMPexd9GScGDBjw8f79+ye2a9fuZFPPhg5qPzz66KPWhQsXWgEuQjWEeofaBACVSy65hHbu3MmOA49bjkj9REI7bJRQJ9E+NtT8RAwbvJWi9J2oKytqeopYSFFAW6iv9au0A9AC2NS+nXXjrAdWrnwoKqDWUpTQGKg19Z3i2/55uurRdJND/ezYseOBQ4cOZSCkADe5oLQWhvRIplCUeBMqrWCZxc0LaWPo0KEf7dy5c2FmZub+SPoJ5VhVVePNZvM3mzZtSpk3b14CAAVhHQi+jYuPo927dnuLmlx77bUMOMGqSbGjIMCGEnx4SIhCxtgVdjiEeGB+DQB7l5slN8y9oB4SLLfC8wvQY2p41EOQZW/VKOwXyFEwd86spQ899FCMTy2UBdK69zlP6NMKJqmgoKBft27dvnQ6nSauWuR0ksFo5LgzX9qecE9FSCBoW0iBQgoBqOXm5n78wAMP/HzEiBH/DrePUI8rLS1N7dy580e//e1v282aNSsJ48FYkIyODZKZ8P4KGu1OnbpoktqEbNr/xWc0MHMQ2ew1VFVZQw6njah+PVQOR/R4v3e5VfJ44Aww6jViZbLZqglRNbIMEkiJJAnvUcuA5TFyOlHOz0EOB2jGrfw9jhe/++5vNMKmBvJIByUlJfD+breT2x0+fOjX0/JylkUF1FrQLROT1EJd8Rfofq+//vr/ffnll59+/PHHEc/BswDJAqEEvqEYTTU9d99992dZWVl3zp07919N1Ydot6CgIG3AgAH/s3nz5vQ5c+akQAoSUqmQgnwlInyHrIBt27bR4sX300svbaOsrKFktZrpzJkiBg+AiC8JKMAEn8Wry+Vh0AIDb/1X7AcwE/uDJZmrj6mIm9bAUYAePovjRX/4bLc7yWAAzx+Yd1FSz0lVVRWwDaqXXnrpvuzs7DWLFy+OivrZ1Ncn1PajAmotCKRDPe/YfiHMgKqqhvz8/Ft79Ojxm5kzZ3YRkfDCSA31K6ghPIR+Au3yxBNPfH7mzJl1S5Ys2RphU0EPB5XUoEGD9j/++OPK/PnzU6G6iawCAWqi+In4zEwd8fGsLsIuBsM95gXvRdEWdCxsc/XTmsSDwl+6k28cYEMnEEodDJERgVfY4DCutLQ01yWXXPLJqFGjHt24cWOsRkHQ1RHbodXMQLAHUs+ePd/auXPn6EGDBklCRRQkiSIo1Odkw02H8jtfX3/9deHo0aP3Hj9+PKfxYQfBzq5utwBxWZaPPfXUU6kzZsywiBg6sZcvsAkQgiSHeUDMGLIPENMGkMOGvF84PXwBqw54qcQ2M1/A8+0DbUAyFMAmHia+n0UWggBOcbzvZ+FZxivYY6xWCx5G7uHDh79zww03PLl27dpXmnrBRtPOG2ysUZHUgnUS+711zsAXX3zRIScnZ9fHH330fywwWnNZNkS7y6yCwpDd1JvdbnckJiZ++913343p1avXqabs7/DhkpRevVI/27ZtW4/s7GyW0gBS2PxJTAARSGeiSjo+QzXHdwLc6o/ZF9gCSWIiK0D0LzybwY7xBTZIm74OBBEigvGNGTNm25VXXvncunXrXtdOsoHs2aac8CZqOwZqTTSx/pptTetm8uTJ/5WXl3fjf2qbXizICUUiNj6LQrmhTmE4YhwklUWLFv331KlT77/qqqv+GWpf4ewHGqnevXv/NScnp/vFF1/cSVEUQ0lJCVLDkBOrgh1W/8NnkAK4EhISVIPR6CovK3NBFS0tLVWTk5MN1dXV+N2I/VQV3gLvxg4WsXHembZ5iQnQFza8CknMZz9xKDfiA3AiuR8sJmgA7SK/WNUpj9T4+Hh7eXk5CAx+VBTl23Xr1qUsWLBgw4aHH/5AliQY6trEFgO1NnEZo38Se/fu7XDbbbc98f7774+Jj4+3OJ0uUlUtYh1/ULsAapBKmnLDTf35558f+8UvfrFz9+7d96elpWm5QE2wff/99+YpU6YsPHr0aLbH40k3m822ysrK9gAmWZFdsiTbZVl26Nxj1ZIkVbvdbsXtdpdXV1crKSkpPyYkJFRWV1d38ng8cmlpafekpKQiqLW6HASpSQAcv7pcLrC3sPdAkiSXJEkOWZaZOUWWZQY6PW1KQpuqqioej8fk8XgMaNfj8UDXBSEBz4hOXQRAVdEuxoe8ToPBYLdYLOXl5eWdZFmu6NKly/5Dhw5Vb9269ZkZM2YUNMF0NluTTQ5q51OXPmcWGxSLWpOs1GzrAsys+XfcccflkyZNuh4g5hto66vONPUIAWp2u92TlpZW+K9//esnl156aZPegACdI0eOJOG8HA6HwWQygfqIN6RJ+UhUzDl34MAB5g7KysryFgv48ssvTcnJyQo4ysT61yWnOtMFSezw4cOcRlBVVeUZPHgwQIxrJvqzHwLUkHZ68OBByWKxyDabDfsj40FIekGPP3DggOI73qa+hk3dfv07uslBralPKNZ+dGdAVVXjn//855Fr165d/Nlnn11ls9lMIn3Ht+QfVBrf6PXojqJua7Btbd26de+ePXv++h+V6ZH27dt7gaYp+4213TpnoFGgFpNxWudFDnXU4IErKSmxjB49+pV9+/aNUBQlCZHugTZhHzrXeK1Z0GCYZpUI/2QEktb+1W+3obAHqF4ANdiu4uLivv3kk09+mpWVVRzqOcX2u/BmoFHA/BDrAAAEFUlEQVSgduFNz4VzxlCZoJIkJye/8eyzz2aOHTu2p0jLCTQL9cGs/mdfaiLfUIRQgBL7gE4HOZCwL7333ns7Ro0aNZiIBlw4VyZ2pgFNWA1IWjFQ866ZUOTQUPbRGgx9z+ZftFA5Dxw4kJ6dnb3yV7/61fC8vLyLECmPnEehevobZUN8ar7ApiiwkWvevoZCEXzjrBrqA+2D08xqtTrS0tKUrVu33vHkk0923LNnz7Lmn7nYCFriDMRArSVelfM8pvfff79dTk7Opg0bNiizZs3KEzmdgucsVKlK7BcsCt63vWCSXGlpKcImQIGulpaW/tVsNt++e/fuXtOmTXvo6aefvnnevHk/nOfpinXXwmcgBmpRuEDN6uGtN/7GSogff/xx3KWXXrqFiEYPGDDgzA8//DDQ4XAgnMCtkw6Kghxo2rc4DHpmw5kes4XQKhRyQSgBPIPsjdPrBOA4DkfQQxpErBZCEXAM1wxAGIMeEwZPIkIbHHBUANCMRmOBzWZLhaOwS5cupXqdgor/1H1YihrSkV7Gxs5bY/ePdHyx40OfAS+oxS5S6JPWlvYEIP8ntzJeUZSUwsLCNACSxWJBXNMZgIjJZCr2eDzeaFHEPok/zIPNZvMWnvTdD79hv/j4eBtQr6qqCoGgMt7bbPwVR5iigIrFYgH4eSwWi8fpdLrj4uJQQMWNwio9evQogQOja9eujkOHDiX06dOn7J///Gd/s9lcjnaSk5PLhw0bFkL9gtgKb0vrNtC5xCS1C+VKBzhP2NT27duXctFFF9mPHDkix8fHu44dO2YfMWIEgkBjW2wGmmcGwnwOxUCteS5XrNfYDEQ2A2He8JF12jqOjoFa2NcptqrCnrrYgbEZaMIZiIFaE05uW2k6Bt9t5UpeGOcRA7UL4zrHzrLNzkBbfeSEf14xUGuziz12YrEZuDBnoMWBWkuK+bowl0TsrFvFDIQvyLSK04tkkC0O1CI5mdixrXAGYjdnK7xoLXvIMVBr2denxYzuQpKgYzjbYpZdWAOJgVpY09YSD4rdipFelZYA3C1hDJHOY3Mf3yJALXYhm3sZxPqPzUDbmYGogVoMmPwsipgA1XbultiZtIoZiBqotYqzjQ2y9c9A7CHR+q9hE5/BBQ5qsTukiddXrPkmnoG6GlJsPWO6L3BQa+IVF2u+2WagbdzebeMszvciOBfUWto8trTxnO8rFGJ/MZtmiBMV260VzkDjQCAmqXkvceMm7ryvjBY+vPM+H7EOYzMQwDfXdicnBgRt99rGzqyZZyC6N5e3tSg0G5PUorI0onAlojKO5mjkQj735pjvWJ/BZiAGasFmKPb7+ZuBZsfHZh/AuXPdAod0/hZEeD01O6jFrll4Fy52lDYDsfXTcuehuZxX/wsTbr4ZU/R+PQAAAABJRU5ErkJggg==;" parent="1" vertex="1">
          <mxGeometry x="635" y="-89.65" width="90" height="47.47774480712166" as="geometry" />
        </mxCell>
        <mxCell id="80" style="edgeStyle=none;html=1;exitX=1;exitY=0.25;exitDx=0;exitDy=0;entryX=0.403;entryY=1.022;entryDx=0;entryDy=0;fontSize=16;fontColor=#FFFFFF;entryPerimeter=0;" parent="1" source="67" target="22" edge="1">
          <mxGeometry relative="1" as="geometry" />
        </mxCell>
        <mxCell id="F-ps1HYFmdbSuYRwOLOO-80" value="Off-chain workers" style="label;whiteSpace=wrap;html=1;align=center;verticalAlign=bottom;spacingLeft=0;spacingBottom=4;imageAlign=center;imageVerticalAlign=top;image=img/clipart/Gear_128x128.png;fontSize=14;strokeColor=none;" vertex="1" parent="1">
          <mxGeometry x="582.5" y="250" width="120" height="80" as="geometry" />
        </mxCell>
        <mxCell id="F-ps1HYFmdbSuYRwOLOO-83" value="." style="text;html=1;strokeColor=none;fillColor=none;align=center;verticalAlign=middle;whiteSpace=wrap;rounded=0;" vertex="1" parent="1">
          <mxGeometry x="850" y="460" width="60" height="30" as="geometry" />
        </mxCell>
      </root>
    </mxGraphModel>
  </diagram>
</mxfile>
